<?xml version="1.0" standalone="no"?>
<!DOCTYPE svg PUBLIC "-//W3C//DTD SVG 1.1//EN" "http://www.w3.org/Graphics/SVG/1.1/DTD/svg11.dtd">
<svg xmlns="http://www.w3.org/2000/svg">
<metadata>Generated by Fontastic.me</metadata>
<defs>
<font id="goldensofas" horiz-adv-x="512">
<font-face font-family="goldensofas" units-per-em="512" ascent="480" descent="-32"/>
<missing-glyph horiz-adv-x="512" />

<glyph glyph-name="bag" unicode="&#97;" d="M193 98c-24 0-43-19-43-43 0-24 19-43 43-43 24 0 43 19 43 43 0 24-19 43-43 43z m230 0c-24 0-43-19-43-43 0-24 19-43 43-43 24 0 43 19 43 43 0 24-19 43-43 43z m63 297l-335 0-17 84c-2 12-13 21-24 21l-85 0c-13 0-25-12-25-26 0-14 12-25 25-25l63 0 17-83c0-1 0-2 1-2l35-175c6-31 34-54 65-54l204 0c33-1 62 23 68 55l33 175c2 8-1 16-5 21-5 6-13 9-20 9z m-59-197c-1-7-8-13-17-13l-203 0c-8 0-15 6-16 13l-30 146 294 0z"/>
<glyph glyph-name="compra" unicode="&#98;" d="M449 408l-190 101c-3 2-7 2-11 0l-185-101c-3-2-6-5-6-10l0-132c0-110 65-209 166-253l25-12c3-1 6-1 8 0l29 13c102 43 169 143 169 253l0 130c1 5-2 9-5 11z m-17-139c0-103-61-195-155-234l-24-11-22 10c-92 40-151 131-152 232l0 126 174 96 179-96z m-248 4c-3 5-10 6-15 2-2-2-4-5-4-8 0-3 1-5 3-8l49-59c4-4 11-5 16-1l116 95c2 1 4 4 4 8 0 3-1 6-2 7-2 3-5 4-8 4-3 0-5-1-8-2l-108-88z"/>
<glyph glyph-name="down" unicode="&#99;" d="M503 386c-5 4-11 4-17 0l-230-230-230 230c-6 6-15 6-20 0-3-2-5-6-5-10 0-3 2-7 5-10l240-239c5-6 14-6 20 0l240 239c5 7 4 16-3 20z"/>
<glyph glyph-name="entrega" unicode="&#100;" d="M484 279l-1 0-5 56 2 0c3 0 6 2 6 6l2 8c2 9 0 17-6 24-5 6-13 10-22 10l-61 0 4 18c0 4-1 8-3 12-3 3-7 4-11 4l-291 0c-8 0-16-6-17-14l-26-146c-1-2 0-4 1-5 1-1 3-2 4-3l2 0c3 0 6 2 6 5l26 146c1 2 2 3 4 3l291 0-25-146c-1-2 0-4 1-5 1-1 2-2 4-3l1 0c3 0 7 2 7 5l2 12 98 0c11 1 21-8 22-19l0-2-28 0c-4 0-7-2-7-5l-3-17c-1-6 0-13 4-18 4-5 10-7 16-7l10 0-7-38-23 0 0 1c-1 7-5 14-9 19-9 10-21 15-33 15-23-1-43-14-53-34l0-1-6 0 11 62c1 3-2 7-5 7l-2 0c-3 0-6-2-6-5l-11-64-152 0 0 2c-1 6-4 13-9 18-8 10-20 15-33 15-22-1-42-14-52-34l-1-1-49 0 4 21 37 0c4 0 7 3 7 6 0 4-2 8-6 8 0 0 0 0-1 0l-85 0c-4 0-8-3-8-6 0-4 3-8 6-8 1 0 1 0 2 0l34 0-3-17c0-5 1-9 3-12 3-3 7-5 11-5l44 0 0-1c-3-13 1-26 9-36 9-9 21-15 33-14 28 1 51 21 57 49 0 0 0 1 0 1l0 2 166 0 0-2c-3-12 1-25 9-35 8-10 20-15 33-15 28 2 51 22 57 49 0 0 0 1 0 1l0 2 28 0c3 0 6 2 7 5l15 86c3 11 0 22-7 31-4 4-11 8-19 9z m-103 1l10 55 74 0 4-55z m94 72l-1-4-80 0 3 21 63 0c4 0 9-2 12-5 3-3 4-8 3-12z m-293-207c-4-21-23-36-44-37-9 0-17 4-23 10-5 6-8 16-6 25 5 21 23 36 44 37 9 0 17-4 23-10 5-6 8-16 6-25z m265 0c-4-21-22-36-44-37-8 0-17 4-22 10-6 7-8 16-6 25 4 21 22 36 44 37 8 0 17-4 22-10 6-6 8-16 6-25z m46 66l-12 0c-2 0-4 1-6 3-1 1-1 4-1 6l2 12 21 0z m-343-52c-1 0-2 1-3 0-8 0-15-6-16-14-1-4 0-8 3-11 2-3 6-5 11-5 8 0 15 6 16 14 1 7-4 14-11 16z m265 0c-1 0-2 1-3 0-8 0-15-6-17-14-1-7 3-14 11-16 1 0 2-1 3 0 8 0 15 6 16 14 2 7-2 14-10 16z m-193 35c-4-1-7-4-7-7 1-3 3-6 7-6l101 0c4 0 7 3 7 7-1 3-4 5-7 6z m-192 21l149 0c3 0 7 3 7 7 0 3-4 6-7 6l-149 0c-4 0-7-3-7-6 0-4 3-7 7-7z m65 41c0-3 3-6 6-6l204 0-20-14c-3-2-4-7-1-10 1-1 3-2 5-2 1 0 2 1 3 1l39 26c2 1 3 3 3 5 0 2 0 4-2 5l-30 26c-1 1-3 2-4 2-2 0-4-1-5-3-3-2-3-7 0-10l16-14-208 0c-3 1-6-2-6-6z"/>
<glyph glyph-name="fabricantes" unicode="&#101;" d="M487 321l-12 0 0 37c0 22-18 40-40 40l-146 0c-13 0-26-6-33-17-7 11-20 17-32 17l-92 0c-4 0-7-3-7-7 0-3 3-7 7-7l92 0c14 0 25-11 25-26l0-74 0 0c-9 9-21 13-33 13l-125 0c0 10-7 19-17 22-3 1-5 2-8 2l-14 0 0 37c0 14 11 25 25 25l24 0c5 0 7 3 7 7 0 4-3 8-7 8l-24 0c-21 0-39-17-40-38l0-40-10 0c-14 0-25-11-25-25l0-77c0-30 23-53 52-53l4 0-8-22c-4-11 1-24 12-28 2-1 5-1 8-1l12 0c7 0 13 3 17 8l32 43 250 0 32-43c4-5 10-8 17-8l12 0c12 0 21 9 21 21 0 3 0 6-1 8l-8 22 4 0c29 0 52 23 52 53l0 77c1 14-10 25-23 26z m-224 37c0 14 12 25 26 25l146 0c14 0 25-11 25-25l0-38-14 0c-10 0-19-6-23-16-1-2-2-5-2-7l-125 0c-12 0-24-5-33-14z m-172-76l124 0c19 0 34-15 34-34l0-10-158 0z m-4-150c-1-2-3-3-5-3l-12 0c-4 0-7 3-6 8 0 0 0 0 0 1l10 27 38 0z m358-3c-1 0-2 0-2 0l-12 0c-3 0-5 0-5 3l-26 33 38 0 10-27c2-4 0-7-3-9z m50 89c1-20-15-37-35-38l-406 0c-20 0-37 17-37 38l0 77c0 6 4 10 10 10l39 0c5 0 10-4 10-10l0-65c0-4 3-7 7-7l274 0c5 0 7 3 7 7 0 5-2 8-7 8l-94 0 0 11c0 18 15 33 34 33l124 0 0-44-33 0c-4 0-7-3-7-7 0-3 3-7 7-7l40 0c5 0 8 3 8 7l0 65c0 6 4 10 10 10l39 0c6 0 10-4 10-10z"/>
<glyph glyph-name="favorite" unicode="&#102;" d="M374 493c-48 0-92-25-116-67l-3-5-3 5c-24 41-67 67-114 67-72 0-130-59-137-140-2-19-1-37 4-54 11-46 36-87 71-118l178-161 182 161c35 31 59 73 71 118 5 18 6 36 4 54-7 81-65 140-137 140z m108-188c-10-41-32-77-63-105l-165-147-161 147c-31 27-54 64-63 105-4 14-5 28-4 43l0 2c6 68 53 118 112 118 44-1 84-28 100-69l9-23c1-2 5-7 8-7 4 0 5 2 7 6l10 23c17 42 57 68 102 69 59 0 105-50 112-119 1-15 0-29-4-43z"/>
<glyph glyph-name="garantia" unicode="&#103;" d="M456 278l0 140c0 6-2 11-6 16 9 10 8 26-3 34-10 9-26 8-35-3-4-4-6-10-5-16 0-6 2-11 6-16-3-3-5-8-5-12-50 15-101 23-152 22-51 1-102-6-151-21-1 5-2 9-5 12 4 5 5 10 6 16-1 13-13 24-26 23-12-1-23-11-23-23 0-6 2-11 6-16-4-5-6-10-6-16l0-140-55-100c-2-1-2-2-2-4l0-90c0-4 4-8 9-8l27 0 0-30c0-5 4-9 9-9l38 0c5 0 9 4 9 9l0 30 326 0 0-30c0-5 4-9 8-9l39 0c5 0 9 4 9 9l0 30 27 0c5 0 9 4 9 8l0 90c0 2 0 3-1 4z m-32 172c0 4 3 7 7 7 4 0 7-3 7-7 0-4-3-7-7-7-4 0-7 3-7 7 0 0 0 0 0 0z m0-32c0 4 3 7 7 7 4 0 7-3 7-7l0-108-14 26z m-319-14c49 15 100 23 151 22 51 1 102-6 151-22l0-61-19 0c0 25-26 46-57 46-32 0-58-20-58-46l-33 0c0 25-26 46-58 46-31 0-57-20-57-46l-19 0 0 61z m265-62c0-8-3-16-40-16-28 0-36 5-39 10 0 3 0 4 0 6 0 16 18 28 40 28 22 0 39-12 39-28z m-148 0c0-8-3-16-40-16-37 0-40 8-40 16 0 16 18 28 40 28 22 0 40-12 40-28z m-141 115c4 0 7-3 7-7 0-4-3-7-7-7-4 0-7 3-7 7 0 4 3 7 7 7z m-7-39c1 4 4 7 8 6 3 0 6-3 6-6l0-82-14-26z m28-94l28 0c12-15 39-15 52-15 14 0 40 0 52 15l45 0c12-15 38-15 52-15 13 0 40 0 51 15l29 0 77-141-464 0z m-27-269l-21 0 0 21 21 0z m383 0l-21 0 0 21 21 0z m37 38l-478 0 0 72 478 0z"/>
<glyph glyph-name="left" unicode="&#104;" d="M156 256l230 230c6 6 6 15 0 21-2 2-6 4-11 4-3 0-7-2-9-5l-240-240c-6-5-6-14 0-20l240-240c6-6 15-6 21 0 6 5 6 14 0 20z"/>
<glyph glyph-name="less" unicode="&#105;" d="M495 272l-478 2c-9 0-17-8-17-17 0-8 8-17 18-17l477-2c10 0 18 8 18 18 0 9-8 16-18 16z"/>
<glyph glyph-name="location" unicode="&#106;" d="M256 508c-112 0-202-91-202-202 0-13 1-26 3-38 0-1 1-3 2-8 3-13 8-26 14-40 21-50 69-129 174-213 3-2 5-4 9-4 4 0 6 1 9 4 105 84 153 163 174 214 7 13 11 26 14 40 1 4 1 7 2 7 2 13 3 25 3 39-1 110-91 201-202 201z m170-235c0-1 0-3-1-5-3-11-6-23-11-34-20-47-64-119-158-196-94 76-138 148-158 195-5 11-8 22-11 35-1 2-1 4-1 4 0 0 0 0 0 1-2 11-4 22-4 33 0 96 78 173 174 173 96 0 174-77 174-173 0-11-1-22-4-33z m-170 159c-71 0-128-57-128-128 0-71 57-128 128-128 71 0 128 57 128 128 0 70-58 128-128 128z m100-128c0-55-45-100-100-100-55 0-100 45-100 100 0 55 45 100 100 100 55 0 100-45 100-100z"/>
<glyph glyph-name="lojas" unicode="&#107;" d="M364 233l-69 0c-17 0-31-14-31-31l0-54c0-17 14-31 31-31l69 0c17 0 32 14 32 31l0 54c0 17-15 31-32 31z m13-85c0-8-5-13-13-12l-70 0c-7 0-13 5-12 12l0 55c0 7 6 11 13 11l70 0c8 0 12-5 12-12z m54 324c-1 2-4 4-8 4l-334 0c-3 0-7-2-8-4l-76-134c-1-2-1-3-1-5 0-27 16-53 42-64l2-1 0-222c0-6 4-10 9-10l398 0c5 0 9 4 9 10l0 219 0 3 2 1c25 12 42 37 42 64 0 2 0 3-1 5z m-336-15l323 0 63-110-450 0z m274-129l-1-4c-4-20-20-37-41-41-29-5-55 14-61 41l0 4z m-121 0l-1-4c-4-20-21-37-41-41-28-5-56 14-61 41l-1 4z m-225-4l0 4 102 0-1-4c-3-20-20-36-41-41-27-5-54 14-60 41z m191-269l-78 0 0 138c0 12 10 21 21 21l36 0c12 0 21-9 21-21z m233 0l-213 0 0 138c0 22-18 40-40 40l-37 0c-22 0-40-18-40-40l0-138-51 0 1 0 0 208 7 0c24 0 46 11 58 31l3 4 3-4c12-20 35-31 58-31 23 0 45 11 58 31l2 4 3-4c5-8 12-14 20-20 32-21 75-12 96 20l3 4 3-4c13-20 35-31 58-31l8 0z m42 268c-3-20-20-37-41-41-27-5-55 14-60 41l0 4 102 0z"/>
<glyph glyph-name="plus" unicode="&#108;" d="M495 272l-221 1-1 222c0 10-8 17-17 17-10 0-18-8-18-18l1-221-221 1c-10 0-18-8-18-18 0-10 8-17 18-17l221-1 1-221c0-10 8-17 18-17 10 0 16 8 16 17l0 221 221 0c10 0 18 7 18 17 0 10-8 17-18 17z"/>
<glyph glyph-name="right" unicode="&#109;" d="M386 266l-240 240c-6 6-16 5-20-1-5-5-5-13 0-19l230-230-230-230c-6-6-6-15 0-21 2-3 6-5 10-5 3 0 7 2 10 5l239 241c7 5 7 15 1 20z"/>
<glyph glyph-name="right2" unicode="&#110;" d="M439 331c-2 2-5 2-6 0-2-1-2-5 0-6l64-64-492 0c-3 0-5-2-5-5 0-3 2-5 5-5l492 0-64-63c-2-2-2-5 0-7 1-1 2-1 3-1 1 0 2 1 3 1l71 72c2 1 2 5 0 6z"/>
<glyph glyph-name="search" unicode="&#111;" d="M503 53l-105 105c73 98 54 236-44 310-98 73-236 53-310-44-73-97-53-236 44-310 78-59 186-59 266 0l105-105c6-5 13-9 22-9 8 0 16 4 21 9 13 13 13 31 1 44z m-283 79c-87 0-158 71-158 159 0 87 71 159 158 159 88 0 159-71 159-158 1-89-70-160-159-160z"/>
<glyph glyph-name="share" unicode="&#112;" d="M404 184c-28 0-54-13-71-35l-139 77c3 10 5 20 5 30 0 11-2 21-5 31l139 77c30-39 87-47 126-17 39 31 48 88 17 127-30 39-87 47-126 17-23-17-36-44-36-72 0-10 2-21 5-30l-138-77c-30 39-87 47-126 17-40-31-49-88-18-128 30-40 87-47 126-17 7 5 13 11 17 17l139-77c-3-10-5-20-5-31 0-50 40-90 90-90 50 0 90 40 90 90 0 50-40 91-90 91z m0 296c35 0 62-27 62-62 0-35-27-63-62-63-35 0-62 28-62 63 0 35 27 62 62 62z m-295-286c-35 0-63 28-63 62 0 35 28 63 63 63 35 0 62-28 62-63 0-34-28-62-62-62z m295-162c-35 0-62 27-62 62 0 35 27 63 62 63 35 0 62-28 62-63 0-35-27-62-62-62z"/>
<glyph glyph-name="star" unicode="&#113;" d="M335 339l-79 160-79-160-177-26 128-124-30-176 158 83 158-83-30 176 128 124z"/>
<glyph glyph-name="stock1" unicode="&#114;" d="M451 425l-267-266-123 130c-1 2-3 4-5 5-15 12-36 10-47-4-12-15-10-36 4-47l146-155c6-7 15-11 24-11 9 0 18 4 24 10l292 290c13 14 13 35 0 48-14 14-35 14-48 0z"/>
<glyph glyph-name="stock2" unicode="&#115;" d="M316 257l182 182c17 17 17 44 0 61-17 17-44 17-61 0l-181-184-181 184c-17 17-44 17-61 0-17-17-17-44 0-61l181-184-181-182c-17-17-16-44 0-61 17-17 44-16 61 0l181 182 181-182c8-7 19-12 30-12 24 0 43 20 43 43 0 11-5 22-12 30z"/>
<glyph glyph-name="up" unicode="&#116;" d="M266 386c-5 6-14 6-19 0l-241-240c-6-5-6-14 0-20 5-6 14-6 21 0l229 230 230-230c6-6 16-6 21 0 3 2 5 6 5 10 0 3-2 7-5 10z"/>
<glyph glyph-name="zoom" unicode="&#117;" d="M508 267l-73 72c-2 3-6 4-10 4-4 0-8-1-10-4-6-6-6-14 0-20l48-48-192 0 0 192 48-48c6-6 14-6 20 0 6 6 6 14 0 20l-72 73c-2 1-4 2-5 3-2 1-4 1-6 1-5 0-8-2-11-4l-72-73c-6-6-6-14 0-20 2-3 6-4 10-4 4 0 8 1 10 4l48 48 0-192-192 0 48 48c3 2 4 6 4 10 0 8-6 14-14 14-4 0-8-1-10-4l-73-72c-1-2-2-4-3-5-1-2-1-4-1-6 0-1 0-3 1-5 1-1 2-3 3-5l73-72c6-6 14-6 20 0 6 6 6 14 0 20l-48 48 192 0 0-192-48 48c-6 6-14 6-20 0-3-3-4-6-4-10 0-5 1-8 4-10l72-73c2-2 4-2 5-3 6-2 12-1 16 3l72 73c3 2 4 5 4 10 0 4-1 7-4 10-2 3-6 4-10 4-4 0-8-1-10-4l-48-48 0 192 192 0-48-48c-6-6-6-14 0-20 3-3 6-4 10-4 5 0 8 1 10 4l73 72c2 2 2 4 3 5 1 2 1 4 1 5 0 2 0 4-1 6 0 1-1 3-2 5z"/>
</font>
</defs>
</svg>
