<svg xmlns="http://www.w3.org/2000/svg" viewBox="0 0 29.91 29.95"><g id="Layer_2" data-name="Layer 2"><g id="Layer_1-2" data-name="Layer 1"><path d="M23.65,18.55a3,3,0,0,0-2.14-1,3,3,0,0,0-2.16,1l-2,2-.48-.25c-.23-.12-.45-.23-.63-.34A21.81,21.81,0,0,1,11,15.21a13.14,13.14,0,0,1-1.71-2.69c.52-.48,1-1,1.47-1.45l.53-.53a2.9,2.9,0,0,0,0-4.38L9.6,4.44,9,3.84c-.37-.39-.77-.8-1.18-1.18a3,3,0,0,0-2.12-.93,3.08,3.08,0,0,0-2.15.93h0L1.4,4.84A4.63,4.63,0,0,0,0,7.78a10.88,10.88,0,0,0,.81,4.69,27.28,27.28,0,0,0,4.83,8.07,29.8,29.8,0,0,0,9.91,7.75,15.38,15.38,0,0,0,5.56,1.65h.4a4.72,4.72,0,0,0,3.64-1.57l0,0a13.17,13.17,0,0,1,1.11-1.14c.27-.26.55-.53.82-.82a3.17,3.17,0,0,0,.95-2.19,3,3,0,0,0-1-2.16Zm2.26,6.66h0l-.77.77a16.27,16.27,0,0,0-1.22,1.26,3,3,0,0,1-2.38,1h-.29a13.68,13.68,0,0,1-4.93-1.48A28.08,28.08,0,0,1,7,19.46a25.91,25.91,0,0,1-4.55-7.58,9.09,9.09,0,0,1-.71-4A2.94,2.94,0,0,1,2.61,6L4.76,3.89a1.45,1.45,0,0,1,1-.45,1.34,1.34,0,0,1,.92.44l0,0c.39.36.76.73,1.14,1.13l.6.62,1.73,1.72a1.21,1.21,0,0,1,0,2c-.19.18-.36.37-.55.54-.53.55-1,1.05-1.58,1.55l0,0a1.26,1.26,0,0,0-.33,1.43l0,.06a13.54,13.54,0,0,0,2,3.33h0a23.19,23.19,0,0,0,5.62,5.1,8.63,8.63,0,0,0,.77.43c.23.11.45.22.63.33l.08.05a1.43,1.43,0,0,0,.62.16,1.31,1.31,0,0,0,1-.44l2.16-2.16a1.43,1.43,0,0,1,1-.48,1.29,1.29,0,0,1,.91.47l3.49,3.49a1.24,1.24,0,0,1,0,2Z"/><path d="M16.16,7.12a8.14,8.14,0,0,1,6.63,6.63.85.85,0,0,0,.84.71l.14,0a.85.85,0,0,0,.71-1,9.85,9.85,0,0,0-8-8,.87.87,0,0,0-1,.7.84.84,0,0,0,.69,1Z"/><path d="M29.89,13.21A16.18,16.18,0,0,0,16.69,0a.85.85,0,0,0-1,.7.84.84,0,0,0,.7,1,14.46,14.46,0,0,1,11.79,11.8.85.85,0,0,0,.84.71l.15,0a.82.82,0,0,0,.69-1Z"/></g></g></svg>