<svg xmlns="http://www.w3.org/2000/svg" viewBox="0 0 34.93 33.25"><g id="Layer_2" data-name="Layer 2"><g id="Layer_1-2" data-name="Layer 1"><path d="M13.18,27.39a2.93,2.93,0,1,0,2.93,2.93A2.93,2.93,0,0,0,13.18,27.39Z"/><path d="M28.89,27.39a2.93,2.93,0,1,0,2.93,2.93A2.94,2.94,0,0,0,28.89,27.39Z"/><path d="M34.53,7.78a1.78,1.78,0,0,0-1.35-.64H10.33L9.18,1.41A1.75,1.75,0,0,0,7.46,0H1.75a1.75,1.75,0,0,0,0,3.5H6L7.16,9.15a.85.85,0,0,0,0,.17l2.38,11.9a4.59,4.59,0,0,0,4.48,3.71H28a4.56,4.56,0,0,0,4.61-3.72l2.29-12A1.74,1.74,0,0,0,34.53,7.78ZM29.18,20.54a1.12,1.12,0,0,1-1.14.89H14.12A1.11,1.11,0,0,1,13,20.54l-2-9.9h20Z"/></g></g></svg>