<svg xmlns="http://www.w3.org/2000/svg" viewBox="0 0 60.53 54.38"><g id="Layer_2" data-name="Layer 2"><g id="Layer_1-2" data-name="Layer 1"><path d="M30.26,11.82A1.19,1.19,0,1,0,31.45,13,1.18,1.18,0,0,0,30.26,11.82Z"/><path d="M10.64,33.1a1.18,1.18,0,1,0-1.18-1.18A1.18,1.18,0,0,0,10.64,33.1Z"/><path d="M39.72,0c-10.64,0-19.38,7.34-20,16.58C9.53,17.09,0,24.4,0,34.28A16.51,16.51,0,0,0,4.61,45.59a7.18,7.18,0,0,1-1.9,6.77,1.18,1.18,0,0,0,.84,2,13,13,0,0,0,9-3.65A27,27,0,0,0,20.81,52c10.64,0,19.37-7.34,20.05-16.58A26.76,26.76,0,0,0,48,34.18a13,13,0,0,0,9,3.65,1.19,1.19,0,0,0,.84-2A7.16,7.16,0,0,1,55.92,29a16.55,16.55,0,0,0,4.61-11.31C60.53,7.46,50.26,0,39.72,0ZM20.81,49.65a24.09,24.09,0,0,1-8.1-1.39,1.17,1.17,0,0,0-1.31.3,10.71,10.71,0,0,1-5.31,3.15,9.54,9.54,0,0,0,.72-7,1.1,1.1,0,0,0-.29-.5,14.21,14.21,0,0,1-4.16-9.89c0-8.33,8.45-15.36,18.45-15.36,9.44,0,17.73,6.56,17.73,15.36C38.54,42.76,30.58,49.65,20.81,49.65ZM54,27.62a1.18,1.18,0,0,0-.28.5,9.54,9.54,0,0,0,.72,7A10.66,10.66,0,0,1,49.13,32a1.16,1.16,0,0,0-1.31-.3,23.31,23.31,0,0,1-7,1.36,17,17,0,0,0-6.39-11.79H49.89a1.18,1.18,0,1,0,0-2.36h-19A21.91,21.91,0,0,0,22,16.59c.68-7.94,8.35-14.23,17.68-14.23,10,0,18.44,7,18.44,15.37A14.16,14.16,0,0,1,54,27.62Z"/><path d="M30.26,30.74H15.37a1.18,1.18,0,0,0,0,2.36H30.26a1.18,1.18,0,1,0,0-2.36Z"/><path d="M30.26,37.83H10.64a1.18,1.18,0,1,0,0,2.36H30.26a1.18,1.18,0,1,0,0-2.36Z"/><path d="M49.89,11.82H35a1.19,1.19,0,0,0,0,2.37h14.9a1.19,1.19,0,0,0,0-2.37Z"/></g></g></svg>