<?xml version="1.0" encoding="utf-8"?>
<!-- Generator: Adobe Illustrator 24.1.2, SVG Export Plug-In . SVG Version: 6.00 Build 0)  -->
<svg version="1.1" id="Grupo_3154" xmlns="http://www.w3.org/2000/svg" xmlns:xlink="http://www.w3.org/1999/xlink" x="0px" y="0px"
	 viewBox="0 0 33.1 24.6" style="enable-background:new 0 0 33.1 24.6;" xml:space="preserve">
<style type="text/css">
	.st0{fill-rule:evenodd;clip-rule:evenodd;fill:#E42919;}
	.st1{fill-rule:evenodd;clip-rule:evenodd;fill:#1E1E1C;}
</style>
<path id="Caminho_9933" class="st0" d="M20.9,1.4c-0.1-0.3-0.1-0.6,0-0.6s0.2,0.2,0.3,0.5s0.1,0.6,0,0.6S21,1.7,20.9,1.4z M25.3,5.3
	c0.1-0.1,0.2-0.1,0.2,0c0.1,0.1,0.5,0.4,0.4,0.5s-0.6-0.2-0.6-0.2C25.3,5.6,25.3,5.5,25.3,5.3L25.3,5.3z M14.7,2.5
	c0.1-0.1,0.2-0.1,0.3-0.1c0.2,0,0.3,0.1,0.3,0.3L14.7,2.5z M13.9,9.4c0-0.2-0.6-1-1.2-2c-0.1-0.4,0.4-0.6,0.6-0.6c1,0.4,1.3,0,1.3,0
	s-0.2,0.2-0.6,0c-0.2-0.1-0.3-0.3-0.6-0.5c-0.1-0.1-0.5,0.2-0.9,0.4l-1.6,1c-0.5,0.7-1.1,1.3-1.7,1.8c0,0-0.1,0.1,0,0.1
	C9.4,9.7,9.4,9.8,9.5,10c0,0.3-0.1,0.5-0.2,0.7c0,0.1-0.2,0.2-0.2,0v-0.6c0-0.1-0.1-0.1-0.1,0s-0.1,0.2-0.2,0.4
	c-0.1,0.2-0.1,0.4-0.1,0.5c-0.1,0.1-0.2,0.1-0.2,0c0,0,0,0,0,0l-0.2-0.4v-0.2c0-0.2,0.1-0.4,0.2-0.6c0-0.1,0.3-0.5,0.5-1l0.6-1.2
	c0.1-0.1,0.1-0.2,0.2-0.3l0.9-0.7l1.7-1.5c0.2-0.2,0.4-0.4,0.7-0.4c0.3-0.1,0.9-0.4,0.9-0.6c0-0.2,0-0.3-0.1-0.4
	c-0.7-0.4-1-2.1,0.3-2.2c0.6-0.1,1.1,0.2,1.3,0.8c0,0,0,0,0,0c0,0,0.4,0.3,0.4,0.4l-0.2,0.2l0.1,0.3v0.2l0.1,0.2c0,0,0,0.2-0.1,0.2
	C15.4,4,15,4,14.7,4l-0.3-0.4c0.1,0.2,0.2,0.4,0.2,0.6c0.1,0.1,0.3,0.1,0.6,0.1c0,0.2,0,0.5-0.2,0.6c0.1,0,0.3,0,0.4,0.1l-0.2-0.2
	c0.1-0.1,0.1-0.2,0.1-0.3c0.3,0,0.5,0,0.7,0.1c0.6,0.2,1.2,0.4,1.8,0.6C17.8,4.6,18.2,3.3,18,3c-0.2-0.2-0.3-0.3-0.5-0.4V2.5L15.9,3
	l-0.1-0.2l1.6-0.6V1.9c0-0.1,0-0.1,0.1-0.1c0,0,0,0,0,0L18,1.7h0.3l0.2,0.1l1.3-0.5l0.7-1.2c0-0.1,0-0.1,0.1-0.1c0,0,0,0,0,0
	c0.2-0.1,0.5,0.3,0.7,1s0.2,1.2,0,1.2h-0.1L20,1.7l-1.4,0.4c0,0.2,0.1,0.5,0.1,0.6c0.1,0.8,0.3,1.6,0.3,2.5c0,0.3-0.2,0.6-0.3,0.9
	c-0.2,0.1-0.3,0.3-0.5,0.3c-0.4,0-0.8-0.1-1.2-0.2c-0.1-0.3-0.3-0.6-0.5-0.7c0.2,0.3,0.3,0.6,0.3,0.9c-0.1,0.2-0.2,0.4-0.2,0.6v0.6
	c-0.1,0.5-0.3,0.7-0.2,1c0.1,0.3,0.1,0.6,0.1,1c0,0.4-0.1,0.8-0.3,1.1c0.6,0.1,1.1,0.4,1.6,0.6c0.6-0.2,1-0.7,1.3-1.3
	c0.5-3.5,3.7-6.7,6.1-6.3c0.2,0-0.4,0.4-0.2,0.5c0.5,0.2,0.9,0.5,1.3,0.9c0.2,0.2,0.3,0.5,0.3,0.7c0.4,0.5,1,1,1.6,1.3
	c0,0.3,0.1,0.7,0.2,1c-0.2,0.2-0.4,0.5-0.5,0.7c-0.2,0.1-0.4,0.1-0.6,0c-0.1,0-0.2-0.3-0.2-0.3s-0.4-0.6-0.9-0.7
	c-1,0.2-2.1-0.4-2.5-1.4c-1.2,0.5-1.8,2.7-1.8,4.6c0.5-2,1.3-3.9,1.8-3.9c0.1,0.2,0.2,0.4,0.3,0.5c-0.6,1.2-0.5,2.6,0.1,3.7
	c0.3,0.8,0.4,1.7,0.1,2.6c-0.2,0-0.5-0.1-0.6-0.2c-0.2-0.2-0.4-0.4-0.6-0.5c0,0,0.5,0.6,0.5,1c0.2,0.1,0.7,0.2,1,0.7
	c1.1,0.1,2.1,0.1,3.2,0c1.3,1,2.4,2.2,3.4,3.5c0,0,0.7,1.2,0.1,1.2c-0.4,0-0.8-0.1-1.2-0.2c-0.4-0.3-0.3-1.2-0.6-1.6
	c-0.6-0.5-1.2-0.9-1.8-1.3c0.2,0.3,0.3,0.6,0.4,0.9c-1.1,0.8-2.2,1.5-3.4,2.1c0,0-1.3,0.5-1.2-0.1c0.1-0.4,0.3-0.8,0.4-1.2
	c0.3-0.3,1.2-0.1,1.7-0.3c0.6-0.4,1.2-1,1.6-1.6c-1.3,0-2.6,0.3-3.7,1c-0.1,0.1-0.3,0-0.5-0.1c-0.6-0.2-1-0.7-1.3-1.3
	c-0.2,0.2-0.5,0.3-0.7,0.4c0.2,0.1,0.3,0.1,0.5,0.1c0.1,0.3,0.3,0.6,0.5,0.9c-0.8,0.4-1.7,0.7-2.6,0.9c-1.6,0.1-2.7-1-4.7-1.2
	c0.1-0.3,0.4-0.5,0.6-0.6c-0.6,0.1-1.2,0.3-1.6,0.7c-0.1,0-0.1,0-0.1,0.1c0,0,0,0,0,0c-0.1,0.1-0.1,0.2-0.2,0.4
	c-0.4,0.9-1.2,1.6-2.1,2c-0.1,0.2-0.2,0.3-0.3,0.5c-0.4,1-0.9,1.9-1.4,2.8C8.9,23.6,8,24.1,7,24c0-0.6,0.1-1.2,0.4-1.7
	c0.1-0.1,1,0,1.1-0.1c0.5-0.6,0.8-1.4,0.9-2.1c0.4-0.2,0.7-0.3,1.1-0.5c-0.7,0.1-1.4,0.2-2,0.3C8,20,7.8,20.3,7.6,20.6
	c-0.5,0.9-1.1,1.8-1.7,2.6c-0.6,0.7-1.6,1.1-2.6,1.1c0.1-0.6,0.3-1.1,0.6-1.6c0.1-0.1,1,0.2,1.1,0c1.3-1.1,1.3-3.4,1.6-3.9
	c0,0,1.5-0.9,1.3-2.2c-0.2-1.8,0.3-2.9,1.3-3.5c-2.5,0.7-3.3,4.9-7,4.4c-0.1,0-0.1-0.1,0-0.2c1-0.2,1.2-0.6,1.2-0.6
	c-1.1,0.2-2.3-0.1-3.3-0.6C0,15.7,0,15.6,0.2,15.6c1.7,0.2,3.3-0.4,4.6-1.5c1.2-1.2,1.9-2,3.3-2.1c0.7-0.1,1.4,0,2,0.4
	c0.6-0.2,1.3-0.4,1.9-0.5c0.3-0.1,1-0.1,1.7-0.2c-0.5-0.5-0.5-1.4,0-1.9C13.8,9.7,13.9,9.5,13.9,9.4L13.9,9.4z"/>
<path id="Caminho_9934" class="st1" d="M14.5,24.2l-0.2-0.3c-0.1,0.1-0.3,0.2-0.4,0.2c-0.1,0-0.2,0-0.3-0.1
	c-0.1-0.1-0.1-0.3-0.1-0.6s0-0.5,0.1-0.6s0.2-0.2,0.3-0.2s0.2,0.1,0.4,0.2l0.2-0.3c-0.2-0.2-0.4-0.2-0.6-0.2c-0.6,0-1.1,0.6-1.1,1.2
	c0,0,0,0.1,0,0.1c0,0.7,0.3,1.2,1,1.2C14,24.6,14.3,24.4,14.5,24.2z"/>
<path id="Caminho_9935" class="st1" d="M15.4,21.5l-0.5,0.1v0.5h-0.2v0.4h0.2v1.4c0,0.3,0.2,0.6,0.5,0.6c0.1,0,0.1,0,0.2,0
	c0.2,0,0.3,0,0.4-0.1l-0.1-0.3h-0.2c-0.2,0-0.3-0.1-0.3-0.2c0,0,0-0.1,0-0.1v-1.3h0.4l0.1-0.3h-0.5C15.3,21.9,15.4,21.7,15.4,21.5z"
	/>
<path id="Caminho_9936" class="st1" d="M16.9,21.5l-0.5,0.1v0.5h-0.3v0.4h0.2v1.4c0,0.3,0.2,0.6,0.5,0.6c0.1,0,0.1,0,0.2,0
	c0.2,0,0.3,0,0.4-0.1l-0.1-0.3H17c-0.2,0-0.3-0.1-0.3-0.2c0,0,0-0.1,0-0.1v-1.3h0.4l0.1-0.3h-0.5C16.8,22,16.9,21.7,16.9,21.5z"/>
<path id="Caminho_9937" class="st1" d="M19.2,22.1c-0.2,0-0.4,0.1-0.6,0.2c-0.2,0.3-0.4,0.6-0.3,1c0,0.3,0.1,0.6,0.2,0.9
	c0.2,0.2,0.5,0.4,0.7,0.3c0.3,0,0.6-0.1,0.7-0.3l-0.2-0.2c-0.1,0.1-0.3,0.2-0.5,0.2c-0.3,0-0.5-0.3-0.5-0.7c0-0.3,0-0.5,0.1-0.7
	c0.1-0.1,0.3-0.2,0.4-0.2c0.2,0,0.3,0,0.4,0.2l0.2-0.2C19.7,22.2,19.4,22.1,19.2,22.1z"/>
<path id="Caminho_9938" class="st1" d="M21.7,22.7c0.1,0.1,0.1,0.3,0.1,0.6c0,0.2,0,0.4-0.1,0.5c-0.1,0.2-0.3,0.4-0.5,0.3
	c-0.2,0-0.4-0.1-0.4-0.2c-0.1-0.1-0.1-0.4-0.1-0.7c0-0.2,0-0.4,0.1-0.6c0.1-0.1,0.3-0.2,0.4-0.2C21.4,22.4,21.6,22.5,21.7,22.7z
	 M20.2,23.3c0,0.7,0.3,1.2,1,1.2c0.5,0,1-0.4,1-1.2c0-0.3-0.1-0.6-0.2-0.9c-0.2-0.3-0.4-0.4-0.7-0.4C20.6,22.1,20.2,22.7,20.2,23.3
	L20.2,23.3z"/>
<path id="Caminho_9939" class="st1" d="M22.9,22.7v1.7h0.3v-1.4c0-0.2,0-0.2,0.1-0.3c0.1-0.1,0.3-0.2,0.4-0.2h0.1l0.1-0.4h-0.1
	c-0.3,0-0.5,0.2-0.6,0.4c0-0.1,0-0.2-0.1-0.3l-0.3,0.1C22.8,22.2,22.9,22.4,22.9,22.7z"/>
<path id="Caminho_9940" class="st1" d="M24.3,22.7v1.7h0.3v-1.4c0-0.2,0-0.2,0.1-0.3c0.1-0.1,0.3-0.2,0.4-0.2h0.1l0.1-0.4h-0.1
	c-0.3,0-0.5,0.2-0.6,0.4c0-0.1,0-0.2-0.1-0.3l-0.3,0.1C24.2,22.2,24.3,22.4,24.3,22.7z"/>
<path id="Caminho_9941" class="st1" d="M26.4,22.4c0.2,0,0.3,0.1,0.4,0.2c0.1,0.1,0.1,0.2,0.1,0.5h-1.1C26,22.6,26.1,22.4,26.4,22.4
	z M26.6,24.2c-0.2,0-0.4-0.1-0.5-0.3C26,23.7,26,23.6,26,23.4v-0.1h1.4c0-0.3-0.1-0.7-0.2-1c-0.2-0.2-0.4-0.2-0.6-0.2
	c-0.3,0-0.5,0.1-0.6,0.3c-0.2,0.2-0.3,0.5-0.3,0.9c0,0.7,0.4,1.2,1,1.2c0.3,0,0.6-0.1,0.7-0.3l-0.1-0.2
	C27.1,24.1,26.8,24.2,26.6,24.2z"/>
<path id="Caminho_9942" class="st1" d="M27.9,21.5c0,0.2,0.1,0.3,0.3,0.3c0.2,0,0.3-0.1,0.3-0.3c0-0.2-0.1-0.3-0.3-0.3
	C28,21.2,27.9,21.3,27.9,21.5z M28,24.4h0.3v-2.3L28,22.2V24.4z"/>
<path id="Caminho_9943" class="st1" d="M30.5,22.7c0.1,0.1,0.1,0.3,0.1,0.6c0,0.2,0,0.4-0.1,0.5c-0.1,0.2-0.3,0.4-0.5,0.3
	c-0.2,0-0.4-0.1-0.4-0.2c-0.1-0.1-0.1-0.4-0.1-0.7c0-0.2,0-0.4,0.1-0.6c0.1-0.1,0.3-0.2,0.4-0.2C30.2,22.4,30.4,22.5,30.5,22.7z
	 M29,23.3c0,0.7,0.3,1.2,1,1.2c0.5,0,1-0.4,1-1.2c0-0.3-0.1-0.6-0.2-0.9c-0.2-0.3-0.4-0.4-0.7-0.4C29.4,22.1,29,22.7,29,23.3
	L29,23.3z"/>
<path id="Caminho_9944" class="st1" d="M32.3,22.1c-0.4,0-0.8,0.3-0.9,0.7c0,0.3,0.2,0.6,0.5,0.6l0.3,0.1c0.2,0.1,0.4,0.2,0.4,0.3
	c0,0.2-0.2,0.4-0.4,0.4c-0.3,0-0.5-0.1-0.7-0.2l-0.1,0.2c0.3,0.1,0.6,0.2,0.9,0.2c0.4,0.1,0.8-0.2,0.8-0.7c0,0,0-0.1,0-0.1
	c0-0.3-0.2-0.5-0.6-0.6l-0.3-0.1c-0.2,0-0.3-0.1-0.3-0.2c0,0,0-0.1,0-0.1c0-0.2,0.2-0.4,0.4-0.4c0.2,0,0.3,0.1,0.5,0.2l0.1-0.2
	C32.7,22.2,32.5,22.1,32.3,22.1z"/>
</svg>
