<svg xmlns="http://www.w3.org/2000/svg" viewBox="0 0 34.45 30.5"><g id="Layer_2" data-name="Layer 2"><g id="Layer_1-2" data-name="Layer 1"><path d="M17.23,30.5A1.75,1.75,0,0,1,16,30L2.9,16.9a9.9,9.9,0,1,1,14-14l.33.33.33-.33a9.84,9.84,0,0,1,7-2.9h0a9.8,9.8,0,0,1,7,2.88l0,0a9.91,9.91,0,0,1,0,14L18.47,30A1.77,1.77,0,0,1,17.23,30.5ZM9.9,3.5A6.4,6.4,0,0,0,5.37,14.42L17.23,26.28,29.08,14.42a6.39,6.39,0,0,0,0-9l0,0A6.38,6.38,0,0,0,24.56,3.5h0A6.34,6.34,0,0,0,20,5.37L18.47,6.94a1.74,1.74,0,0,1-2.48,0L14.42,5.38A6.37,6.37,0,0,0,9.9,3.5Z"/></g></g></svg>