<svg xmlns="http://www.w3.org/2000/svg" viewBox="0 0 59.22 59.23"><g id="Layer_2" data-name="Layer 2"><g id="Layer_1-2" data-name="Layer 1"><path d="M57.63,25.76h0L33.47,1.6a5.44,5.44,0,0,0-7.71,0L1.61,25.75l0,0a5.45,5.45,0,0,0,3.63,9.29H6.34V52.85a6.39,6.39,0,0,0,6.38,6.38h9.46a1.73,1.73,0,0,0,1.73-1.74V43.55a2.92,2.92,0,0,1,2.91-2.91H32.4a2.91,2.91,0,0,1,2.91,2.91V57.49a1.74,1.74,0,0,0,1.74,1.74H46.5a6.38,6.38,0,0,0,6.38-6.38V35.07h.89a5.46,5.46,0,0,0,3.86-9.31ZM55.18,31a2,2,0,0,1-1.41.58H51.15a1.73,1.73,0,0,0-1.74,1.73V52.85a2.92,2.92,0,0,1-2.91,2.91H38.78V43.55a6.39,6.39,0,0,0-6.38-6.38H26.82a6.4,6.4,0,0,0-6.38,6.38V55.76H12.72a2.92,2.92,0,0,1-2.91-2.91V33.33A1.72,1.72,0,0,0,8.08,31.6H5.41A1.93,1.93,0,0,1,4.05,31a2,2,0,0,1,0-2.81h0L28.21,4.05a2,2,0,0,1,2.8,0L55.17,28.21h0A2,2,0,0,1,55.18,31Z"/></g></g></svg>