<svg xmlns="http://www.w3.org/2000/svg" viewBox="0 0 36.91 28"><g id="Layer_2" data-name="Layer 2"><g id="Layer_1-2" data-name="Layer 1"><path d="M35.64,1.28A4.38,4.38,0,0,0,32.55,0H4.37A4.37,4.37,0,0,0,0,4.37V23.63A4.37,4.37,0,0,0,4.37,28H32.54a4.37,4.37,0,0,0,4.37-4.37V4.38A4.38,4.38,0,0,0,35.64,1.28Zm-.43,22.35a2.67,2.67,0,0,1-2.66,2.67H4.37A2.68,2.68,0,0,1,1.7,23.63V4.38A2.68,2.68,0,0,1,4.37,1.71H32.54a2.68,2.68,0,0,1,2.67,2.67V23.44h0Z"/><path d="M31.77,24.06a.86.86,0,0,1-.59-.23l-9.4-8.93-2.73,2.45a.85.85,0,0,1-.57.22.87.87,0,0,1-.57-.22L15.25,15,5.8,23.82a.85.85,0,0,1-.58.23.9.9,0,0,1-.63-.27.86.86,0,0,1,0-1.21L14,13.83,4.59,5.44a.88.88,0,0,1-.29-.59.89.89,0,0,1,.22-.62.87.87,0,0,1,1.21-.07l10,8.94.11.09.08.08,2.57,2.3L31.18,4.17A.87.87,0,0,1,31.75,4a.86.86,0,0,1,.57,1.49l-9.27,8.32,9.31,8.83a.85.85,0,0,1-.59,1.47Z"/></g></g></svg>