<svg xmlns="http://www.w3.org/2000/svg" viewBox="0 0 30.07 30.07"><g id="Layer_2" data-name="Layer 2"><g id="Layer_1-2" data-name="Layer 1"><g id="Grupo_3483" data-name="Grupo 3483"><path id="Caminho_4402" data-name="Caminho 4402" d="M15,7.77A7.27,7.27,0,1,0,22.3,15,7.26,7.26,0,0,0,15,7.77Zm0,12A4.72,4.72,0,1,1,19.76,15h0A4.72,4.72,0,0,1,15,19.75Z"/><g id="Grupo_1473" data-name="Grupo 1473"><path id="Caminho_4403" data-name="Caminho 4403" d="M15,30.07c-3.84,0-4.35,0-5.88-.09a11.22,11.22,0,0,1-3.71-.72A8,8,0,0,1,.81,24.62a11,11,0,0,1-.72-3.71C0,19.38,0,18.87,0,15s0-4.34.09-5.87A11.26,11.26,0,0,1,.8,5.44,8.17,8.17,0,0,1,5.45.8,11.2,11.2,0,0,1,9.16.09C10.69,0,11.2,0,15,0s4.34,0,5.87.09A11.2,11.2,0,0,1,24.62.8a8.12,8.12,0,0,1,4.64,4.64A11.27,11.27,0,0,1,30,9.16h0c.07,1.53.09,2,.09,5.87s0,4.35-.09,5.88a11.46,11.46,0,0,1-.71,3.71,8.16,8.16,0,0,1-4.65,4.65,11.2,11.2,0,0,1-3.71.71C19.38,30.05,18.87,30.07,15,30.07Zm0-28.3c-3.81,0-4.3,0-5.8.08a9.78,9.78,0,0,0-3.16.6A6.39,6.39,0,0,0,2.45,6.08a9.73,9.73,0,0,0-.6,3.16c-.07,1.5-.08,2-.08,5.79s0,4.3.08,5.8A9.41,9.41,0,0,0,2.45,24a6.35,6.35,0,0,0,3.63,3.64,9.73,9.73,0,0,0,3.16.6c1.5.06,2,.08,5.79.08s4.3,0,5.8-.08a9.78,9.78,0,0,0,3.16-.6A6.41,6.41,0,0,0,27.62,24a9.67,9.67,0,0,0,.6-3.15c.07-1.5.08-2,.08-5.8s0-4.29-.08-5.79h0a9.73,9.73,0,0,0-.6-3.16A6.36,6.36,0,0,0,24,2.45a9.73,9.73,0,0,0-3.16-.6c-1.5-.07-2-.08-5.79-.08Z"/></g><path id="Caminho_4404" data-name="Caminho 4404" d="M22.59,9.18a1.7,1.7,0,1,1,1.7-1.7,1.7,1.7,0,0,1-1.7,1.7Z"/></g></g></g></svg>