<svg style="fill: #707070;" xmlns="http://www.w3.org/2000/svg" xmlns:xlink="http://www.w3.org/1999/xlink" viewBox="0 0 247.66 234.72"><defs><style>.cls-1{clip-path:url(#clip-path);}</style><clipPath id="clip-path" transform="translate(6.12)"><path d="M97.57,135.28C87.14,147.17,84,155.63,84,168.79c0,32.2,26.87,44,30.19,45.36a166.63,166.63,0,0,0,63-44,40,40,0,0,0-2.41-16.37c-5.13-14.24-18.27-32.52-44.29-32.52-13.37,0-26,6.12-32.93,14M100,30.55C-6.12,89.46.07,191.07.07,191.07S11.9,159,43.37,128.41C91.94,81.24,128.2,72.79,128.2,72.79s-33.79,18.31-76,62.66c-39.7,41.69-47.88,92.23-47.88,92.23s43.8,7,92.7-7.53a59.85,59.85,0,0,1-28.34-51.36c0-35.91,29.52-60.65,61.85-60.65s48.84,23.44,51.67,27.14c4.17,5.43,7.83,16.25,8.47,18.21,20.24-35.57,26-86.92,28.73-105C224.3,16.12,241.55.28,241.55.28S237.49,0,230.45,0c-23.67,0-81,3.14-130.41,30.55"/></clipPath></defs><g id="Layer_2" data-name="Layer 2"><g id="Layer_1-2" data-name="Layer 1"><path d="M97.57,135.28C87.14,147.17,84,155.63,84,168.79c0,32.2,26.87,44,30.19,45.36a166.63,166.63,0,0,0,63-44,40,40,0,0,0-2.41-16.37c-5.13-14.24-18.27-32.52-44.29-32.52-13.37,0-26,6.12-32.93,14M100,30.55C-6.12,89.46.07,191.07.07,191.07S11.9,159,43.37,128.41C91.94,81.24,128.2,72.79,128.2,72.79s-33.79,18.31-76,62.66c-39.7,41.69-47.88,92.23-47.88,92.23s43.8,7,92.7-7.53a59.85,59.85,0,0,1-28.34-51.36c0-35.91,29.52-60.65,61.85-60.65s48.84,23.44,51.67,27.14c4.17,5.43,7.83,16.25,8.47,18.21,20.24-35.57,26-86.92,28.73-105C224.3,16.12,241.55.28,241.55.28S237.49,0,230.45,0c-23.67,0-81,3.14-130.41,30.55" transform="translate(6.12)"/><g class="cls-1"><rect width="247.66" height="234.72"/></g></g></g></svg>