<svg xmlns="http://www.w3.org/2000/svg" viewBox="0 0 175.35 143.72"><g id="Layer_2" data-name="Layer 2"><g id="Layer_1-2" data-name="Layer 1"><g id="Caminho_10139" data-name="Caminho 10139"><path d="M140.09,143.72H0l.13-1.11c4-34.88,15.3-64.08,33.67-86.79C48.5,37.64,67.71,23.57,90.9,14,130.33-2.3,168.14.11,168.52.14l.7,0,.19.68a204.05,204.05,0,0,1,5.92,51.9c-.41,26.65-6.8,64-35,90.67Zm-137.85-2h137c27.39-26.15,33.63-62.77,34-88.93A205.1,205.1,0,0,0,167.67,2.1c-5.36-.25-40-1.15-76.07,13.76C68.74,25.32,49.81,39.2,35.33,57.11,17.41,79.28,6.29,107.74,2.24,141.72Z"/></g></g></g></svg>