<?xml version="1.0" encoding="utf-8"?>
<!-- Generator: Adobe Illustrator 24.1.2, SVG Export Plug-In . SVG Version: 6.00 Build 0)  -->
<svg version="1.1" id="Grupo_3478" xmlns="http://www.w3.org/2000/svg" xmlns:xlink="http://www.w3.org/1999/xlink" x="0px" y="0px"
	 viewBox="0 0 100.1 39.6" style="enable-background:new 0 0 100.1 39.6;" xml:space="preserve">
<style type="text/css">
	.st0{fill:#1D1D1B;}
</style>
<g id="Camada_1-2_1_">
	<path id="Caminho_9554" class="st0" d="M31.8,17.5c-0.1-0.1-0.3-0.2-0.5-0.3c-0.3-0.1-0.6-0.1-0.9,0h-0.5v3.6h0.8
		c0.2,0,0.4,0,0.7,0c0.2,0,0.3-0.1,0.4-0.2c0.1-0.1,0.2-0.3,0.3-0.5c0.2-0.6,0.2-1.3,0-2C32.1,17.8,32,17.6,31.8,17.5z"/>
	<path id="Caminho_9555" class="st0" d="M18.6,18.3c0.1-0.1,0.1-0.3,0.1-0.4c0-0.2,0-0.3-0.2-0.4c-0.1-0.1-0.3-0.2-0.4-0.2h-1.6v1.4
		h0.8c0.3,0,0.7,0,1-0.1C18.4,18.5,18.5,18.4,18.6,18.3z"/>
	<path id="Caminho_9556" class="st0" d="M19.8,0C8.8,0,0,8.9,0,19.8c0,10.9,8.9,19.8,19.8,19.8c10.9,0,19.8-8.9,19.8-19.8
		c0,0,0,0,0,0C39.6,8.9,30.7,0,19.8,0C19.8,0,19.8,0,19.8,0z M7.4,21.7H3.6v-5.4h1.1v4.5h2.7V21.7z M9.3,21.7H8.2v-5.5h1.1V21.7z
		 M12.8,21.7h-1.2l-1.9-5.4h1.2l1.4,4l1.3-4h1.2L12.8,21.7z M18.9,21.7l-0.8-1.2c-0.2-0.3-0.4-0.5-0.6-0.8c-0.1-0.1-0.2-0.2-0.3-0.2
		c-0.2,0-0.4-0.1-0.5-0.1h-0.2v2.3h-1.1v-5.5h2.3c0.4,0,0.8,0,1.3,0.2c0.3,0.1,0.5,0.3,0.6,0.5c0.2,0.3,0.2,0.6,0.2,0.9
		c0,0.4-0.1,0.7-0.4,1c-0.3,0.3-0.7,0.5-1.1,0.5c0.2,0.1,0.4,0.3,0.6,0.5c0.2,0.3,0.4,0.6,0.6,0.9l0.7,1.1L18.9,21.7z M25.2,21
		c-0.5,0.5-1.2,0.8-1.9,0.7c-0.7,0-1.4-0.2-1.9-0.7c-0.5-0.6-0.8-1.3-0.7-2c0-0.5,0.1-0.9,0.2-1.4c0.1-0.3,0.3-0.5,0.5-0.7
		c0.2-0.2,0.4-0.4,0.7-0.5c0.4-0.2,0.8-0.2,1.2-0.2c0.7,0,1.4,0.2,1.9,0.7c0.5,0.6,0.8,1.3,0.7,2.1C25.9,19.8,25.7,20.5,25.2,21z
		 M33.2,20.2c-0.1,0.4-0.3,0.7-0.6,1c-0.2,0.2-0.5,0.3-0.8,0.4c-0.3,0.1-0.7,0.1-1,0.1h-2v-5.5h2c0.3,0,0.7,0,1,0.1
		c0.3,0.1,0.6,0.3,0.8,0.5c0.2,0.2,0.4,0.5,0.5,0.9c0.1,0.4,0.2,0.9,0.2,1.3C33.4,19.4,33.4,19.8,33.2,20.2z M34.3,16.2h4v0.9h-2.9
		v1.2h2.7v0.9h-2.7v1.5h3v0.9h-4.1L34.3,16.2z"/>
	<path id="Caminho_9557" class="st0" d="M23.2,17.1c-0.4,0-0.8,0.2-1.1,0.5c-0.6,0.9-0.6,2,0,2.8c0.3,0.3,0.7,0.5,1.1,0.5
		c0.4,0,0.8-0.2,1.1-0.5c0.3-0.4,0.5-0.9,0.4-1.4c0-0.5-0.1-1-0.4-1.4C24.1,17.3,23.7,17.1,23.2,17.1z"/>
	<path id="Caminho_9558" class="st0" d="M45.1,19.7c-0.2-0.2-0.4-0.4-0.6-0.5c0.4,0,0.8-0.2,1.1-0.5c0.3-0.3,0.4-0.6,0.4-1
		c0-0.3-0.1-0.6-0.2-0.9c-0.1-0.2-0.4-0.4-0.6-0.5c-0.4-0.1-0.8-0.2-1.3-0.2h-2.3v5.4h1.1v-2.3h0.2c0.2,0,0.4,0,0.6,0.1
		c0.1,0,0.2,0.1,0.3,0.2c0.2,0.2,0.4,0.5,0.6,0.8l0.8,1.2h1.3l-0.7-1.1C45.6,20.3,45.3,20,45.1,19.7z M43.5,18.6h-0.8v-1.4h1.6
		c0.2,0,0.3,0.1,0.4,0.2c0.1,0.1,0.2,0.3,0.2,0.4c0,0.1,0,0.3-0.1,0.4c-0.1,0.1-0.2,0.2-0.3,0.2C44.1,18.5,43.8,18.6,43.5,18.6
		L43.5,18.6z"/>
	<path id="Caminho_9559" class="st0" d="M48.1,19.3h2.7v-0.9h-2.7v-1.2H51v-0.9h-4v5.5h4.1v-0.9h-3V19.3z"/>
	<path id="Caminho_9560" class="st0" d="M55.1,20.6c-0.2,0.2-0.5,0.3-0.7,0.3c-0.4,0-0.7-0.2-0.9-0.4C53.1,20,53,19.5,53,19
		c0-0.5,0.1-1,0.4-1.4c0.2-0.3,0.6-0.4,1-0.4c0.3,0,0.5,0.1,0.7,0.2c0.2,0.2,0.4,0.4,0.4,0.7l1.1-0.3c-0.1-0.4-0.3-0.7-0.5-1
		c-0.4-0.4-1-0.6-1.6-0.6c-0.7,0-1.4,0.2-1.8,0.7c-0.5,0.6-0.8,1.3-0.7,2.1c0,0.7,0.2,1.5,0.7,2c0.9,0.9,2.2,1,3.2,0.3
		c0.4-0.3,0.7-0.8,0.8-1.3l-1.1-0.4C55.5,20,55.3,20.3,55.1,20.6z"/>
	<path id="Caminho_9561" class="st0" d="M58.6,16.3h-1.1v5.4h3.8v-0.9h-2.7V16.3z"/>
	<path id="Caminho_9562" class="st0" d="M63.7,16.2l-2.1,5.5h1.2l0.4-1.2h2.2l0.5,1.2H67l-2.2-5.4L63.7,16.2L63.7,16.2z M63.6,19.5
		l0.7-2l0.7,2H63.6z"/>
	<path id="Caminho_9563" class="st0" d="M70.3,20l-1-3.7h-1.6v5.5h1v-4.3l1.1,4.3h1l1.1-4.3v4.3h1v-5.5h-1.6L70.3,20z"/>
	<path id="Caminho_9564" class="st0" d="M75.5,16.2l-2.1,5.4h1.2l0.4-1.2h2.2l0.5,1.2h1.2l-2.2-5.4H75.5z M75.4,19.5l0.7-2l0.7,2
		H75.4z"/>
	<path id="Caminho_9565" class="st0" d="M82.5,20.6c-0.2,0.2-0.5,0.3-0.7,0.3c-0.4,0-0.7-0.2-0.9-0.4c-0.3-0.4-0.4-0.9-0.4-1.5
		c0-0.5,0.1-1,0.4-1.4c0.2-0.3,0.6-0.4,1-0.4c0.3,0,0.5,0.1,0.7,0.2c0.2,0.2,0.4,0.4,0.4,0.7l1.1-0.3c-0.1-0.4-0.3-0.7-0.5-1
		c-0.4-0.4-1-0.6-1.6-0.6c-0.7,0-1.4,0.2-1.8,0.7c-0.5,0.6-0.7,1.4-0.7,2.1c0,0.7,0.2,1.5,0.7,2c0.4,0.4,0.9,0.7,1.4,0.7
		c-0.1,0-0.2,0-0.3,0.1l-0.1,0.4c0.2,0,0.3-0.1,0.5-0.1c0.1,0,0.2,0,0.4,0.1c0.1,0,0.1,0.1,0.1,0.2c0,0.1,0,0.2-0.1,0.2
		c-0.1,0.1-0.3,0.1-0.5,0.1c-0.2,0-0.5,0-0.7,0v0.4c0.2,0,0.5,0.1,0.7,0.1c0.4,0,0.7-0.1,1-0.3c0.2-0.1,0.3-0.3,0.3-0.5
		c0-0.2-0.1-0.4-0.2-0.5c-0.1-0.1-0.2-0.1-0.4-0.2c0.4,0,0.8-0.2,1.2-0.4c0.4-0.4,0.7-0.8,0.8-1.3L83,19.7
		C82.9,20,82.7,20.3,82.5,20.6z"/>
	<path id="Caminho_9566" class="st0" d="M86.5,16c0-0.1,0-0.2,0.1-0.2c0.1,0,0.1-0.1,0.2-0.1c0.2,0,0.3,0.1,0.5,0.1
		c0.1,0,0.3,0.1,0.4,0.2c0.1,0,0.2,0,0.2,0c0.2,0,0.3-0.1,0.5-0.2c0.1-0.2,0.2-0.5,0.2-0.7h-0.5c0,0.1,0,0.2-0.1,0.2
		c-0.1,0.1-0.1,0.1-0.2,0.1c-0.2,0-0.3,0-0.5-0.1c-0.1-0.1-0.3-0.1-0.4-0.2c-0.1,0-0.2,0-0.2,0c-0.2,0-0.3,0.1-0.5,0.2
		c-0.1,0.2-0.2,0.4-0.2,0.6V16H86.5z"/>
	<path id="Caminho_9567" class="st0" d="M87.3,16.2c-0.4,0-0.8,0.1-1.2,0.2c-0.3,0.1-0.5,0.3-0.7,0.5c-0.2,0.2-0.4,0.5-0.5,0.7
		c-0.2,0.4-0.3,0.9-0.2,1.4c0,0.7,0.2,1.5,0.7,2c1.1,1,2.8,1,3.8,0c0.5-0.6,0.8-1.3,0.7-2c0-0.8-0.2-1.5-0.7-2.1
		C88.8,16.4,88.1,16.1,87.3,16.2z M88.4,20.4C87.9,21,87,21,86.4,20.4l-0.1-0.1C86,20,85.8,19.5,85.8,19c0-0.5,0.1-1,0.4-1.4
		c0.6-0.6,1.5-0.6,2.1-0.1c0,0,0,0,0.1,0.1c0.3,0.4,0.4,0.9,0.4,1.4C88.9,19.5,88.7,20,88.4,20.4L88.4,20.4z"/>
	<path id="Caminho_9568" class="st0" d="M91.9,19.3h2.7v-0.9h-2.7v-1.2h2.9v-0.9h-4v5.5H95v-0.9h-3.1V19.3z"/>
	<path id="Caminho_9569" class="st0" d="M99.8,19.2c-0.1-0.2-0.3-0.4-0.6-0.5c-0.4-0.2-0.8-0.3-1.2-0.4c-0.4-0.1-0.7-0.2-1-0.4
		c-0.1-0.1-0.2-0.2-0.2-0.3c0-0.1,0.1-0.3,0.2-0.4c0.2-0.1,0.5-0.2,0.7-0.2c0.2,0,0.5,0.1,0.7,0.2c0.2,0.2,0.3,0.4,0.3,0.6l1.1,0
		c0-0.5-0.2-0.9-0.6-1.2c-0.4-0.3-1-0.5-1.5-0.5c-0.4,0-0.7,0.1-1.1,0.2c-0.3,0.1-0.5,0.3-0.7,0.5c-0.2,0.2-0.2,0.5-0.2,0.8
		c0,0.4,0.2,0.8,0.5,1.1c0.4,0.3,0.8,0.5,1.2,0.5c0.5,0.1,0.7,0.2,0.9,0.2c0.2,0,0.3,0.1,0.4,0.2c0.1,0.1,0.1,0.2,0.1,0.3
		c0,0.2-0.1,0.4-0.3,0.5c-0.5,0.3-1.1,0.3-1.6,0c-0.2-0.2-0.4-0.5-0.4-0.8L95.7,20c0,0.5,0.3,1,0.7,1.4c0.4,0.3,1,0.5,1.6,0.5
		c0.4,0,0.8-0.1,1.2-0.2c0.3-0.1,0.6-0.3,0.7-0.6C100.2,20.5,100.2,19.8,99.8,19.2L99.8,19.2z"/>
</g>
</svg>
