<?xml version="1.0" encoding="utf-8"?>
<!-- Generator: Adobe Illustrator 24.1.2, SVG Export Plug-In . SVG Version: 6.00 Build 0)  -->
<svg version="1.1" id="Grupo_3153" xmlns="http://www.w3.org/2000/svg" xmlns:xlink="http://www.w3.org/1999/xlink" x="0px" y="0px"
	 viewBox="0 0 73 13.8" style="enable-background:new 0 0 73 13.8;" xml:space="preserve">
<style type="text/css">
	.st0{fill-rule:evenodd;clip-rule:evenodd;fill:#1467B0;}
	.st1{fill-rule:evenodd;clip-rule:evenodd;fill:#231F20;}
	.st2{fill:#231F20;}
</style>
<g id="Grupo_3037" transform="translate(0 0)">
	<path id="Caminho_9920" class="st0" d="M2.8,0h9.1c0.7,0,1.2,0.6,1.2,1.2c0,0,0,0,0,0v0.6c0,0.3-0.2,0.6-0.5,0.6S11.9,2.4,11.9,2
		c0,0,0-0.1,0-0.1V1.6c0-0.2-0.1-0.3-0.3-0.3H2.5c-0.2,0-0.3,0.1-0.3,0.3v0.3c0,0.9-1.1,0.9-1.1,0V1.3c0-0.7,0.5-1.2,1.2-1.3H2.8z
		 M7.1,13.8h5.9c1.4,0,1.4-1.4,1.3-2.1c-0.1-0.3-0.4-0.4-0.7-0.3c-0.1,0.1-0.2,0.2-0.3,0.3v0.5c0,0.2-0.2,0.4-0.4,0.4H1.4
		c-0.2,0-0.4-0.2-0.4-0.4v-0.5c-0.1-0.3-0.4-0.4-0.7-0.3c-0.1,0.1-0.2,0.2-0.3,0.3c-0.1,0.7-0.1,2.1,1.3,2.1H7.1L7.1,13.8z"/>
	<path id="Caminho_9921" class="st1" d="M10.7,6.4h1c0.4-0.1,0.7-0.4,0.7-0.9l0,0c0-0.5-0.4-0.8-0.8-0.9c0,0,0,0,0,0H9.6v4.7h2.5
		c0.5,0,1-0.4,1-1c0,0,0,0,0,0l0,0c0-0.5-0.4-1-1-1c0,0,0,0,0,0h-1.4c-0.3,0-0.5-0.2-0.5-0.5c0,0,0,0,0-0.1l0,0
		C10.2,6.7,10.4,6.4,10.7,6.4C10.7,6.4,10.7,6.4,10.7,6.4L10.7,6.4z M12.9,6.8c0.6,0.3,1,0.9,1.1,1.6l0,0c0,1-0.9,1.8-1.9,1.8h-3
		c-0.3,0-0.5-0.2-0.5-0.4V4.2c0-0.3,0.2-0.5,0.5-0.5c0,0,0,0,0.1,0h2.5c1.1,0,1.9,0.8,1.9,1.9c0,0,0,0,0,0l0,0
		C13.5,6,13.3,6.5,12.9,6.8L12.9,6.8z"/>
	<path id="Caminho_9922" class="st2" d="M8.1,9.7c0,0.3-0.2,0.6-0.5,0.6C7.3,10.4,7,10.1,7,9.8L6.4,5.3L4.7,9.7l0,0
		c0,0.1,0,0.1-0.1,0.1c0,0,0,0,0,0l0,0c-0.1,0-0.1,0-0.1,0.1c0,0,0,0,0,0H4.1C4,9.9,4,9.9,4,9.8c0,0,0,0,0,0l0,0
		c0-0.1,0-0.1-0.1-0.1c0,0,0,0,0,0l0,0L2.2,5.3L1.6,9.8c0,0.3-0.3,0.6-0.6,0.5c-0.3,0-0.5-0.3-0.5-0.6L1,4.4l0,0V4.2
		c0-0.1,0-0.1,0.1-0.2c0.1-0.3,0.4-0.4,0.7-0.5h0.3c0.3,0.1,0.5,0.3,0.6,0.6l1.5,3.7l1.5-3.7c0.1-0.3,0.4-0.5,0.6-0.6h0.3
		c0.3,0,0.6,0.2,0.7,0.5c0,0.1,0.1,0.1,0.1,0.2v0.2l0,0L8.1,9.7z"/>
</g>
<g id="Grupo_3038" transform="translate(16.997 3.519)">
	<path id="Caminho_9923" class="st2" d="M12.9,0.6c0-0.4,0.3-0.6,0.6-0.6c0.4,0,0.6,0.3,0.6,0.6c0,0,0,0,0,0v3.3l0,0
		c0,0.7-0.3,1.4-0.9,1.9c-0.5,0.5-1.2,0.8-1.9,0.9l0,0c-0.7,0-1.4-0.3-1.9-0.9C9,5.4,8.6,4.7,8.6,3.9l0,0V0.6C8.6,0.3,8.9,0,9.3,0
		c0.4,0,0.6,0.3,0.6,0.6v3.3l0,0c0,0.4,0.2,0.8,0.4,1.1c0.3,0.3,0.7,0.4,1.1,0.4l0,0c0.4,0,0.8-0.2,1.1-0.4c0.3-0.3,0.4-0.7,0.4-1.1
		l0,0V0.6z"/>
	<path id="Caminho_9924" class="st2" d="M18.8,5.5c0.4,0,0.6,0.3,0.6,0.6c0,0.4-0.3,0.6-0.6,0.6h-1.7c-1.2,0-2.2-0.9-2.2-2.1
		c0,0,0-0.1,0-0.1l0,0V0.7c0-0.4,0.3-0.6,0.6-0.6c0.4,0,0.6,0.3,0.6,0.6v3.8l0,0c0,0.6,0.5,1.1,1.1,1.1h1.6L18.8,5.5z"/>
	<path id="Caminho_9925" class="st2" d="M8.4,6.1c0,0.3-0.2,0.6-0.5,0.6c-0.3,0-0.6-0.2-0.6-0.5L6.7,1.7L4.8,6.1
		C4.6,6.4,4.3,6.5,3.9,6.4L3.6,6.1l0,0L1.7,1.7L1.2,6.2c0,0.3-0.3,0.6-0.6,0.5C0.2,6.7,0,6.4,0,6.1L0.6,1c0-0.3,0.2-0.6,0.5-0.7
		c0.1,0,0.1,0,0.1-0.1c0,0,0,0,0,0h0.2c0.3,0,0.6,0.1,0.9,0.3l0.1,0.1c0,0.1,0,0.1,0.1,0.1c0,0,0,0,0,0v0.1l1.6,3.7l1.6-3.7
		c0.1-0.3,0.4-0.5,0.7-0.5h0.3c0.3,0,0.6,0.2,0.7,0.5l0,0c0,0.1,0.1,0.1,0.1,0.2v0.2l0,0L8.4,6.1z"/>
	<path id="Caminho_9926" class="st2" d="M21.4,6.2c0,0.4-0.3,0.6-0.6,0.6c-0.4,0-0.6-0.3-0.6-0.6V1.3h-1.7c-0.4,0-0.6-0.3-0.6-0.6
		c0-0.4,0.3-0.6,0.6-0.6c0,0,0,0,0,0h4.7c0.4,0,0.6,0.3,0.6,0.6c0,0.4-0.3,0.6-0.6,0.6c0,0,0,0,0,0h-1.7L21.4,6.2L21.4,6.2z"/>
	<path id="Caminho_9927" class="st2" d="M25.3,6.2c0,0.4-0.3,0.6-0.6,0.6c-0.4,0-0.6-0.3-0.6-0.6V0.7c0-0.4,0.3-0.6,0.6-0.6
		c0.4,0,0.6,0.3,0.6,0.6V6.2z"/>
	<path id="Caminho_9928" class="st2" d="M38,6.1c0,0.3-0.2,0.6-0.5,0.6c-0.3,0-0.6-0.2-0.6-0.5l-0.2-1.7h-2.1
		c-0.4,0-0.6-0.3-0.6-0.6c0-0.4,0.3-0.6,0.6-0.6h2l-0.1-0.4l0,0c0-0.1,0-0.2-0.1-0.3c0-0.1-0.1-0.2-0.1-0.3
		c-0.2-0.5-0.7-0.9-1.3-0.9h-0.3c-0.1,0-0.2,0.1-0.3,0.1c-0.5,0.3-0.8,0.8-0.9,1.4L33,6.2c0,0.3-0.3,0.6-0.6,0.5
		c-0.3,0-0.5-0.3-0.5-0.6l0.4-3.4c0.1-1,0.6-1.9,1.5-2.3c0.2-0.1,0.3-0.1,0.5-0.2c0.2,0,0.4-0.1,0.6-0.1l0,0c1,0,1.9,0.6,2.3,1.5
		c0.1,0.2,0.1,0.3,0.2,0.5c0,0.2,0.1,0.4,0.1,0.5v0.1l0,0L38,6.1z"/>
	<path id="Caminho_9929" class="st2" d="M39.9,6.2c0,0.4-0.3,0.6-0.6,0.6c-0.4,0-0.6-0.3-0.6-0.6V1.1l0,0V0.7l0,0V0.6l0,0
		c0.1-0.2,0.3-0.3,0.5-0.4h0.3c0.3,0,0.5,0.1,0.6,0.3l3.3,4.2V0.6C43.4,0.3,43.7,0,44,0c0.4,0,0.6,0.3,0.6,0.6v5.1
		c0,0.3-0.1,0.5-0.3,0.6l-0.1,0.1h-0.1c-0.2,0.1-0.4,0.1-0.6,0h-0.1l-0.1-0.1l-0.1-0.1l0,0l-3.3-4.2L39.9,6.2L39.9,6.2z"/>
	<path id="Caminho_9930" class="st2" d="M49.5,5.5c0.4,0,0.6,0.3,0.6,0.6c0,0.4-0.3,0.6-0.6,0.6h-1.8c-1.3-0.1-2.4-1.1-2.5-2.5l0,0
		V2.6l0,0c0.1-1.3,1.1-2.4,2.5-2.5h1.8c0.4,0,0.6,0.3,0.6,0.6c0,0.4-0.3,0.6-0.6,0.6c0,0,0,0,0,0h-1.8c-0.6,0-1.1,0.4-1.2,1
		c0,0.1,0,0.1,0,0.2l0,0v1.8l0,0c0,0.6,0.4,1.1,1,1.2c0.1,0,0.1,0,0.2,0H49.5z"/>
	<path id="Caminho_9931" class="st2" d="M53.1,0.1L53.1,0.1c0.8,0,1.5,0.3,2,0.9C55.7,1.5,56,2.2,56,3l0,0v1.2l0,0
		C56,5.7,54.7,7,53.1,7l0,0c-0.8,0-1.5-0.3-2-0.9c-0.6-0.5-0.9-1.3-0.9-2l0,0V2.9l0,0c0-1.5,1.2-2.8,2.7-2.8C53,0.1,53,0.1,53.1,0.1
		L53.1,0.1z M53.1,1.3L53.1,1.3c-0.4,0-0.8,0.2-1.2,0.4c-0.3,0.3-0.4,0.7-0.4,1.1l0,0v1.2l0,0c0,0.4,0.2,0.8,0.4,1.1
		c0.3,0.3,0.7,0.4,1.2,0.4l0,0c0.4,0,0.8-0.2,1.2-0.4c0.3-0.3,0.4-0.7,0.4-1.1l0,0V2.9l0,0c0-0.4-0.2-0.8-0.4-1.1
		C54,1.5,53.6,1.3,53.1,1.3z"/>
	<path id="Caminho_9932" class="st2" d="M25.8,3.4V0.7l0,0V0.5c0-0.1,0.1-0.1,0.1-0.2l0,0c0.1-0.1,0.3-0.2,0.4-0.2h2.3
		c1-0.1,1.9,0.7,1.9,1.7c0,0.1,0,0.1,0,0.2l0,0c0,0.4-0.1,0.8-0.3,1.1l0.3,0.3l0,0c0.3,0.4,0.5,0.9,0.5,1.4l0,0c0,0.5-0.2,1-0.6,1.4
		c-0.4,0.3-0.9,0.6-1.4,0.6h-3c-0.3,0-0.6-0.3-0.6-0.6V3.4H25.8z M27.1,1.3v4.3h2.3c0.4,0,0.7-0.3,0.7-0.7c0,0,0,0,0,0l0,0
		c0-0.2-0.1-0.4-0.2-0.5l0,0c-0.1-0.1-0.3-0.2-0.5-0.2h-0.9c-0.3,0-0.6-0.3-0.6-0.6l0,0c0-0.3,0.3-0.6,0.6-0.6h0.3
		c0.2,0,0.3-0.1,0.4-0.2l0,0c0.1-0.1,0.2-0.3,0.2-0.5l0,0c0-0.4-0.3-0.7-0.7-0.7c0,0,0,0,0,0L27.1,1.3L27.1,1.3z"/>
</g>
</svg>
