<?xml version="1.0" encoding="utf-8"?>
<!-- Generator: Adobe Illustrator 24.1.2, SVG Export Plug-In . SVG Version: 6.00 Build 0)  -->
<svg version="1.1" id="XMLID_1_" xmlns="http://www.w3.org/2000/svg" xmlns:xlink="http://www.w3.org/1999/xlink" x="0px" y="0px"
	 viewBox="0 0 60.1 16.1" style="enable-background:new 0 0 60.1 16.1;" xml:space="preserve">
<style type="text/css">
	.st0{fill:#263C7F;}
	.st1{fill:#179BD7;}
</style>
<g id="XMLID_2_" transform="translate(0 0)">
	<g id="XMLID_14_">
		<path id="Caminho_9912" class="st0" d="M7.8,4.4C7.6,6.1,6.3,6.1,5,6.1H4.3L4.8,3c0-0.2,0.2-0.3,0.4-0.3h0.3c0.9,0,1.6,0,2,0.5
			C7.9,3.3,7.9,3.7,7.8,4.4z M7.3,0H2.6C2.2,0,2,0.2,1.9,0.5L0,12.5c0,0.2,0.1,0.4,0.4,0.4c0,0,0.1,0,0.1,0h2.2
			c0.3,0,0.6-0.2,0.6-0.5l0.5-3.2c0-0.3,0.3-0.6,0.6-0.5H6c3.1,0,4.8-1.5,5.3-4.5c0.3-1,0-2.2-0.6-3C9.7,0.3,8.5-0.1,7.3,0z"/>
	</g>
	<g id="XMLID_11_" transform="translate(10.599 4.052)">
		<path id="Caminho_9913" class="st0" d="M7.5,4.6C7.3,5.8,6.2,6.7,5,6.7c-0.6,0-1.1-0.2-1.5-0.6C3.1,5.6,3,5,3.2,4.5
			c0.2-1.2,1.2-2.1,2.5-2.1c0.6,0,1.1,0.2,1.5,0.6C7.5,3.4,7.7,4,7.5,4.6z M10.6,0.2H8.4C8.2,0.2,8.1,0.3,8,0.5L7.8,1.2L7.7,1
			C7.1,0.2,6.1-0.1,5.1,0c-2.5,0.1-4.6,2-5,4.5c-0.2,1.2,0.1,2.5,0.9,3.4c0.7,0.8,1.7,1.2,2.8,1.2c1.2,0,2.3-0.4,3.1-1.3L6.7,8.4
			c0,0.2,0.1,0.4,0.4,0.4c0,0,0.1,0,0.1,0h2c0.3,0,0.6-0.2,0.6-0.5l1.2-7.7C11,0.4,10.8,0.2,10.6,0.2L10.6,0.2z"/>
	</g>
	<g id="XMLID_10_" transform="translate(22.781 4.266)">
		<path id="Caminho_9914" class="st0" d="M10.4,0H8.1C7.9,0,7.7,0.1,7.6,0.3L4.5,4.9L3.2,0.5C3.2,0.3,2.9,0.1,2.6,0.1H0.4
			C0,0.1-0.1,0.3,0,0.6l2.5,7.3l-2.3,3.3c-0.2,0.2,0,0.6,0.3,0.6h2.2c0.2,0,0.4-0.1,0.5-0.3l7.5-10.8c0.2-0.2,0.1-0.5-0.1-0.7
			C10.5,0,10.5,0,10.4,0z"/>
	</g>
	<g id="XMLID_7_" transform="translate(33.379)">
		<path id="Caminho_9915" class="st1" d="M7.8,4.4C7.6,6.1,6.3,6.1,5,6.1H4.3L4.8,3c0-0.2,0.2-0.3,0.4-0.3h0.3c0.9,0,1.6,0,2,0.5
			C7.8,3.3,7.9,3.7,7.8,4.4z M7.3,0H2.6C2.2,0,2,0.2,1.9,0.5L0,12.5c0,0.2,0.1,0.4,0.4,0.4c0,0,0.1,0,0.1,0h2.3
			c0.2,0,0.4-0.2,0.4-0.4l0.5-3.4c0-0.3,0.3-0.6,0.6-0.5h1.5c3.1,0,4.8-1.5,5.3-4.5c0.3-1,0-2.2-0.6-3C9.6,0.3,8.4-0.1,7.3,0z"/>
	</g>
	<g id="XMLID_4_" transform="translate(43.871 4.052)">
		<path id="Caminho_9916" class="st1" d="M7.5,4.6C7.3,5.8,6.2,6.7,5,6.7c-0.6,0-1.1-0.2-1.5-0.6C3.1,5.6,3,5,3.2,4.5
			c0.2-1.2,1.2-2.1,2.5-2.1c0.6,0,1.1,0.2,1.5,0.6C7.5,3.4,7.7,4,7.5,4.6z M10.6,0.2H8.4C8.2,0.2,8.1,0.3,8,0.5L7.9,1.2L7.7,1
			C7.1,0.2,6.1-0.1,5.1,0c-2.5,0.1-4.6,2-5,4.5c-0.2,1.2,0.1,2.5,0.9,3.4c0.7,0.8,1.7,1.2,2.8,1.2c1.2,0,2.3-0.4,3.1-1.3L6.7,8.4
			c0,0.2,0.1,0.4,0.4,0.4c0,0,0.1,0,0.1,0h2c0.3,0,0.6-0.2,0.6-0.5l1.2-7.7C11,0.4,10.9,0.2,10.6,0.2L10.6,0.2z"/>
	</g>
	<g id="XMLID_3_" transform="translate(55.24 0)">
		<path id="Caminho_9917" class="st1" d="M1.9,0.3L0,12.5c0,0.2,0.1,0.4,0.4,0.4c0,0,0.1,0,0.1,0h1.9c0.3,0,0.6-0.2,0.6-0.5L4.9,0.4
			C4.9,0.2,4.8,0,4.6,0c0,0-0.1,0-0.1,0H2.3C2.1,0,1.9,0.1,1.9,0.3z"/>
	</g>
</g>
</svg>
