<?xml version="1.0" encoding="utf-8"?>
<!-- Generator: Adobe Illustrator 24.1.2, SVG Export Plug-In . SVG Version: 6.00 Build 0)  -->
<svg version="1.1" id="Grupo_3155" xmlns="http://www.w3.org/2000/svg" xmlns:xlink="http://www.w3.org/1999/xlink" x="0px" y="0px"
	 viewBox="0 0 73.7 10.8" style="enable-background:new 0 0 73.7 10.8;" xml:space="preserve">
<style type="text/css">
	.st0{fill:#E5391F;}
	.st1{fill:#35509D;}
	.st2{fill:#5898D2;}
	.st3{fill:#CADBF2;}
</style>
<path id="Caminho_9947" class="st0" d="M40.4,7c0.1,1.2,0.7,1.6,1.9,1.6c0.7,0,1.6-0.3,1.6-1.1c0-0.9-1.5-1.1-2.9-1.5
	c-1.5-0.4-3-1.1-3-3c0-2.2,2.2-3.1,4.2-3.1c2,0,4.1,1,4.1,3.3h-2.7c0-1-0.9-1.2-1.6-1.2c-0.5,0-1.3,0.2-1.3,0.9c0,0.7,1.5,1,3,1.4
	s3,1.1,3,3c0,2.6-2.2,3.4-4.5,3.4c-2.3,0-4.4-1.1-4.4-3.6h2.6L40.4,7z"/>
<path id="Caminho_9948" class="st0" d="M47,0.3h8.1v2.1h-5.4v1.8h5v2h-5v1.9h5.7v2.2h-8.2V0.3H47z"/>
<path id="Caminho_9949" class="st0" d="M64.3,6.3c0,3-1.4,4.4-4.5,4.4s-4.5-1.5-4.5-4.4v-6H58v6.1c0,1.3,0.5,2,1.8,2s1.8-0.6,1.8-2
	V0.3h2.7V6.3z"/>
<path id="Caminho_9950" class="st0" d="M64.6,0.3h5.2c1.8,0,3.5,0.9,3.5,2.9c0,1.1-0.6,2.1-1.6,2.6l0,0c1.1,0.2,1.4,1.5,1.5,2.5
	c0,0.8,0.1,1.6,0.4,2.3H71C70.8,10,70.7,9.5,70.7,9c-0.1-1.1-0.2-2.1-1.5-2.1h-2v3.7h-2.7V0.3H64.6z M67.3,4.8h2.2
	c0.6,0.1,1.2-0.4,1.3-1c0-0.1,0-0.1,0-0.2c0-0.7-0.6-1.1-1.4-1.1h-2.1V4.8z"/>
<rect id="Retângulo_2643" x="14.4" y="0.6" class="st1" width="20.9" height="9.7"/>
<rect id="Retângulo_2644" x="5.9" y="0.6" class="st2" width="8.5" height="9.7"/>
<rect id="Retângulo_2645" y="0.6" class="st3" width="5.9" height="9.7"/>
</svg>
