<svg xmlns="http://www.w3.org/2000/svg" viewBox="0 0 30.08 31.8"><g id="Layer_2" data-name="Layer 2"><g id="Layer_1-2" data-name="Layer 1"><path d="M23.81,19.27a6.19,6.19,0,0,0-4.44,1.86l-7-3.91a6.39,6.39,0,0,0,0-2.66l7-3.9a6.18,6.18,0,0,0,4.45,1.87,6.27,6.27,0,1,0-6.26-6.27,5.92,5.92,0,0,0,.15,1.34l-7,3.89a6.26,6.26,0,1,0,0,8.8l7,3.9a6.07,6.07,0,0,0-.15,1.35,6.27,6.27,0,1,0,6.26-6.27ZM21,25.53a2.78,2.78,0,1,1,2.78,2.78A2.79,2.79,0,0,1,21,25.53ZM26.59,6.27a2.78,2.78,0,1,1-2.78-2.78A2.79,2.79,0,0,1,26.59,6.27ZM9.05,15.89a2.78,2.78,0,1,1-2.78-2.78A2.79,2.79,0,0,1,9.05,15.89Z"/></g></g></svg>