<svg xmlns="http://www.w3.org/2000/svg" viewBox="0 0 29.98 29.2"><g id="Layer_2" data-name="Layer 2"><g id="Layer_1-2" data-name="Layer 1"><path d="M29.91,25.54l-.08-.44c-.36-1.91-.84-4.52-4-6.05a29.71,29.71,0,0,1-5-2.93l-.25-.18.12-.29a1,1,0,0,1,.18-.3A9.44,9.44,0,0,0,23.28,9c0-5-3.68-9-8.19-9h-.2C10.37,0,6.7,4.05,6.7,9a9.44,9.44,0,0,0,2.36,6.32,1.16,1.16,0,0,1,.18.3l.12.29-.25.18a30.26,30.26,0,0,1-5,2.93C1,20.58.5,23.19.15,25.1l-.08.44A2.74,2.74,0,0,0,.6,27.92c1,1.28,3.12,1.28,4.24,1.28h20.3c1.11,0,3.19,0,4.24-1.28A2.74,2.74,0,0,0,29.91,25.54Zm-3.15.72a9.3,9.3,0,0,1-1.62.1H4.84a9.15,9.15,0,0,1-1.62-.1l-.39-.08.11-.57c.36-1.92.66-3.15,2.43-4a32.57,32.57,0,0,0,5.53-3.29,3,3,0,0,0,1.22-2.11,3.78,3.78,0,0,0-.95-2.76A6.58,6.58,0,0,1,9.54,9c0-3.41,2.4-6.19,5.35-6.19h.2C18,2.84,20.44,5.62,20.44,9a6.58,6.58,0,0,1-1.63,4.42,3.74,3.74,0,0,0-1,2.76,3,3,0,0,0,1.22,2.11,33.38,33.38,0,0,0,5.53,3.29c1.77.85,2.08,2.08,2.44,4l.1.57Z"/></g></g></svg>