<?xml version="1.0" encoding="utf-8"?>
<!-- Generator: Adobe Illustrator 24.1.2, SVG Export Plug-In . SVG Version: 6.00 Build 0)  -->
<svg version="1.1" id="g10_1_" xmlns="http://www.w3.org/2000/svg" xmlns:xlink="http://www.w3.org/1999/xlink" x="0px" y="0px"
	 viewBox="0 0 49.4 16" style="enable-background:new 0 0 49.4 16;" xml:space="preserve">
<style type="text/css">
	.st0{fill:#2F3B90;}
	.st1{fill:#F49519;}
</style>
<g id="g4163_1_" transform="translate(0 0)">
	<g id="g12_1_" transform="translate(17.42 0.299)">
		<g id="path14_1_" transform="translate(0)">
			<path id="Caminho_9906" class="st0" d="M0,15.5L2.5,0h4L4,15.5L0,15.5"/>
		</g>
	</g>
	<g id="g16_1_" transform="translate(23.978 0)">
		<g id="path18_1_" transform="translate(0 0)">
			<path id="Caminho_9907" class="st0" d="M12,0.7C10.9,0.2,9.7,0,8.4,0C4.5,0,1.7,2.1,1.7,5.1c0,2.2,2,3.5,3.5,4.2
				c1.5,0.8,2,1.3,2,2c0,1-1.3,1.5-2.4,1.5c-1.3,0-2.6-0.3-3.7-0.9l-0.5-0.3L0,15.2C1.4,15.7,2.9,16,4.4,16c4.2,0,6.9-2,7-5.3
				c0-1.8-1-3.1-3.3-4.2c-1.4-0.7-2.3-1.2-2.2-2c0-0.7,0.8-1.4,2.3-1.4c1,0,2,0.2,3,0.6L11.5,4L12,0.7"/>
		</g>
	</g>
	<g id="g20_1_" transform="translate(35.026 0.293)">
		<g id="path22_1_" transform="translate(0)">
			<path id="Caminho_9908" class="st0" d="M6.2,10c0.3-0.9,1.6-4.3,1.6-4.3s0.3-0.9,0.5-1.4l0.3,1.4c0,0,0.8,3.7,0.9,4.5
				C8.9,10,7.1,10,6.2,10z M11.1,0H8.1C7.2-0.1,6.3,0.4,6,1.3L0,15.5h4.2c0,0,0.7-1.9,0.9-2.3h5.1c0.1,0.5,0.5,2.3,0.5,2.3h3.7
				L11.1,0"/>
		</g>
	</g>
	<g id="g24_1_" transform="translate(4.17 0.336)">
		<g id="path26_1_" transform="translate(0 0)">
			<path id="Caminho_9909" class="st0" d="M9.9,0L6,10.6L5.5,8.4C4.6,5.7,2.6,3.3,0,2l3.6,13.5h4.3L14.1,0L9.9,0"/>
		</g>
	</g>
	<g id="g28_1_" transform="translate(0 0.297)">
		<g id="path30_1_" transform="translate(0 0)">
			<path id="Caminho_9910" class="st1" d="M6.6,0H0.1L0,0.3c5,1.3,8.3,4.3,9.7,8.1L8.3,1.3C8.1,0.3,7.4,0.1,6.6,0"/>
		</g>
	</g>
</g>
</svg>
