<?xml version="1.0" encoding="utf-8"?>
<!-- Generator: Adobe Illustrator 24.1.2, SVG Export Plug-In . SVG Version: 6.00 Build 0)  -->
<svg version="1.1" id="Grupo_3156" xmlns="http://www.w3.org/2000/svg" xmlns:xlink="http://www.w3.org/1999/xlink" x="0px" y="0px"
	 viewBox="0 0 75.2 16.4" style="enable-background:new 0 0 75.2 16.4;" xml:space="preserve">
<style type="text/css">
	.st0{fill:#3D3D3B;}
	.st1{fill:#E30238;}
</style>
<path id="Caminho_9952" class="st0" d="M55,14.4h-1.6V6.5C54.2,6.2,55.1,6,56,6c1.9,0,3.2,1.1,3.2,3c0,2-1.2,3.2-3.3,3.2h-0.1v-1.4
	c0.9,0.1,1.6-0.6,1.7-1.4c0-0.1,0-0.2,0-0.3c0.1-0.8-0.5-1.5-1.3-1.6c-0.1,0-0.2,0-0.3,0c-0.3,0-0.6,0-1,0.1 M74.2,10.8
	c-0.6,0-1.1-0.3-1.1-1V7.5h2V6.2h-2V4.1h-1.6v5.9c0,1.7,1,2.3,2.5,2.3c0.4,0,0.8,0,1.2-0.1v-1.5C74.9,10.8,74.5,10.8,74.2,10.8
	L74.2,10.8z M23,6.5c-1.5-0.9-3.4-0.5-4.3,1s-0.5,3.4,1,4.3c0.5,0.3,1.1,0.5,1.6,0.5c0.6,0,1.2-0.1,1.7-0.4v-1.5
	c-0.4,0.3-1,0.5-1.5,0.5c-0.9,0.1-1.6-0.6-1.7-1.4c0-0.1,0-0.2,0-0.3c0-0.9,0.6-1.7,1.5-1.7c0.1,0,0.1,0,0.2,0
	c0.5,0,1.1,0.2,1.5,0.5V6.5z M23.9,12h1.6V7.7c0.3-0.1,0.7-0.2,1.1-0.2c0.6,0,1.1,0.3,1.1,1v3.6h1.6V8.3c0.2-1.1-0.6-2.2-1.7-2.3
	c-0.2,0-0.3,0-0.5,0c-0.5,0-1,0.1-1.5,0.2V3.4h-1.6V12z M33.7,9.1c-0.1,1.6,1.2,3,2.8,3.1c0.1,0,0.2,0,0.3,0c1.7,0,3.1-1.3,3.1-3
	c0,0,0-0.1,0-0.1C40,7.4,38.7,6,37,6c-0.1,0-0.2,0-0.3,0C35.1,6,33.7,7.4,33.7,9.1L33.7,9.1z M38.3,9.1c-0.1,0.8-0.9,1.4-1.7,1.3
	s-1.4-0.9-1.3-1.7c0.1-0.7,0.7-1.3,1.5-1.3C37.7,7.4,38.3,8.1,38.3,9.1C38.3,9,38.3,9,38.3,9.1L38.3,9.1z M40.6,12h1.6V7.7
	c0.3-0.1,0.7-0.2,1.1-0.2c0.6,0,1.1,0.3,1.1,1v3.6H46V8.3C46,6.6,45,6,43.4,6c-0.9,0-1.9,0.2-2.8,0.5V12z M46.6,9.1
	c-0.1,1.6,1.2,3,2.8,3.1c0.1,0,0.2,0,0.3,0c1.7,0,3.1-1.3,3.1-3c0,0,0-0.1,0-0.1C52.9,7.4,51.6,6,50,6c-0.1,0-0.2,0-0.3,0
	c-1.7,0-3.1,1.3-3.1,3C46.6,9,46.6,9,46.6,9.1L46.6,9.1z M51.1,9.1c-0.1,0.8-0.9,1.4-1.7,1.3S48,9.5,48.1,8.7
	c0.1-0.7,0.7-1.3,1.5-1.3c0.8,0,1.5,0.7,1.5,1.5C51.1,9,51.1,9,51.1,9.1L51.1,9.1z M32.6,6.1c-1.5,0-2.6,0.5-2.6,2.3v3.7h1.6V8.5
	c0-0.6,0.3-1,1.1-1c0.4,0,0.7,0,1.1,0.1V6.2C33.4,6.1,33,6.1,32.6,6.1z M66.7,11.6c0.6,0.3,1.3,0.5,1.9,0.4c1.4,0,2.3-0.5,2.3-1.8
	c0-1.1-0.5-1.6-2-1.9c-0.5-0.1-0.7-0.3-0.7-0.6s0.2-0.5,0.7-0.5c0.6,0,1.2,0.2,1.7,0.5V6.3c-0.5-0.3-1.1-0.5-1.7-0.4
	c-1.3,0-2.2,0.6-2.2,1.9c0,1.1,0.5,1.6,1.9,1.8c0.6,0.1,0.9,0.3,0.9,0.6s-0.3,0.5-0.9,0.5c-0.7,0-1.4-0.3-1.9-0.6L66.7,11.6z
	 M59.9,9.1c-0.1,1.6,1.2,3,2.8,3.1c0.1,0,0.2,0,0.3,0c1.7,0,3.1-1.3,3.1-3c0,0,0-0.1,0-0.1c0.1-1.6-1.2-3-2.8-3.1
	c-0.1,0-0.2,0-0.3,0c-1.7,0-3.1,1.3-3.1,3C59.9,9,59.9,9,59.9,9.1z M64.4,9.1c-0.1,0.8-0.9,1.4-1.7,1.3s-1.4-0.9-1.3-1.7
	c0.1-0.7,0.7-1.3,1.5-1.3C63.8,7.4,64.5,8.2,64.4,9.1C64.4,9,64.4,9.1,64.4,9.1L64.4,9.1z"/>
<g id="Grupo_3045" transform="translate(0 0)">
	<path id="Caminho_9953" class="st1" d="M9.7,7.3H9.5L9.1,7C9,7,9,7,9,6.9c0,0,0,0,0,0l0,0V6.4c0-0.1,0-0.2,0.1-0.2l4.6-2.6L7.4,0.1
		c-0.1,0-0.2,0-0.2-0.1C7,0,6.9,0,6.9,0.1L0.5,3.5l7,4.3c0.1,0,0.1,0.1,0.1,0.2l-0.1,6.1c0,0.1,0,0.2-0.1,0.2L7,14.5H6.8l-0.4-0.2
		c-0.1,0-0.1-0.1-0.1-0.2l0.1-5.4c0-0.1,0-0.1-0.1-0.1c0,0,0,0,0,0L0.1,4.8L0,11.9c0,0.2,0.1,0.3,0.2,0.4l6.4,3.9
		c0.1,0,0.1,0.1,0.2,0.1s0.2,0,0.2-0.1l6.5-3.7c0.1-0.1,0.2-0.3,0.2-0.4L13.9,5"/>
</g>
</svg>
