<svg xmlns="http://www.w3.org/2000/svg" viewBox="0 0 49.5 31.18"><defs><style>.cls-1{fill:#2FAD49;}</style></defs><g id="Layer_2" data-name="Layer 2"><g id="Layer_1-2" data-name="Layer 1"><g id="Grupo_3258" data-name="Grupo 3258"><g id="Grupo_3250" data-name="Grupo 3250"><g id="Grupo_3244" data-name="Grupo 3244"><path id="Caminho_9997" data-name="Caminho 9997" class="cls-1" d="M48.72,14.47a3.25,3.25,0,0,0-2-1.13h-.09l-.4-5.39h.13A.65.65,0,0,0,47,7.41l.14-.83a2.75,2.75,0,0,0-.57-2.31,2.71,2.71,0,0,0-2.12-.95H38.63l.3-1.72A1.36,1.36,0,0,0,38.64.47a1.37,1.37,0,0,0-1-.47H9.49A1.69,1.69,0,0,0,7.87,1.37L5.38,15.48a.65.65,0,0,0,.53.75H6a.65.65,0,0,0,.65-.54L9.15,1.6a.38.38,0,0,1,.34-.29H37.66l-2.5,14.17a.64.64,0,0,0,.53.75h.11a.64.64,0,0,0,.64-.54l.2-1.12h9.41a2.12,2.12,0,0,1,1.66.72,2.09,2.09,0,0,1,.47,1.16v.14H45.47a.66.66,0,0,0-.65.54l-.29,1.66A2.08,2.08,0,0,0,45,20.51a2.05,2.05,0,0,0,1.58.71h.88l-.64,3.68H44.51l0-.1a4,4,0,0,0-.85-1.8,4.08,4.08,0,0,0-3.2-1.42,5.83,5.83,0,0,0-5,3.25l0,.07h-.54l1-5.87a.65.65,0,0,0-.53-.76h-.11a.66.66,0,0,0-.65.54L33.5,24.9H18.89l0-.1A4,4,0,0,0,18,23a4.07,4.07,0,0,0-3.2-1.42,5.83,5.83,0,0,0-5,3.25l0,.07H5.05l.35-2H9a.64.64,0,0,0,.7-.6.66.66,0,0,0-.6-.7H.7a.66.66,0,0,0-.7.6.64.64,0,0,0,.6.7.17.17,0,0,0,.1,0H4.07l-.3,1.73a1.37,1.37,0,0,0,.29,1.12,1.31,1.31,0,0,0,1,.47H9.3l0,.15a4.16,4.16,0,0,0,.87,3.41,4.08,4.08,0,0,0,3.2,1.42,5.83,5.83,0,0,0,5.52-4.69l0-.18V26.2h16l0,.15a4.23,4.23,0,0,0,.87,3.41A4.1,4.1,0,0,0,39,31.18a5.84,5.84,0,0,0,5.53-4.69s0-.1,0-.16l0-.13h2.78a.64.64,0,0,0,.64-.53l1.47-8.31A3.47,3.47,0,0,0,48.72,14.47ZM36.88,13.28l.94-5.34H45l.4,5.34Zm9-6.93,0,.29h-7.8l.36-2H44.5a1.44,1.44,0,0,1,1.12.49,1.49,1.49,0,0,1,.29,1.24ZM17.59,26.26a4.5,4.5,0,0,1-4.23,3.62,2.83,2.83,0,0,1-2.2-1,2.92,2.92,0,0,1-.58-2.43,4.5,4.5,0,0,1,4.24-3.61,2.73,2.73,0,0,1,2.77,3.38Zm25.63,0A4.51,4.51,0,0,1,39,29.88a2.85,2.85,0,0,1-2.2-1,3,3,0,0,1-.57-2.43,4.5,4.5,0,0,1,4.24-3.61,2.8,2.8,0,0,1,2.2,1,2.92,2.92,0,0,1,.57,2.42Zm4.44-6.34H46.55a.71.71,0,0,1-.58-.25.79.79,0,0,1-.15-.65L46,17.9h2Z"/></g><g id="Grupo_3245" data-name="Grupo 3245"><path id="Caminho_9998" data-name="Caminho 9998" class="cls-1" d="M14.23,24.9a1.68,1.68,0,0,0-1.61,1.36,1.32,1.32,0,0,0,1.32,1.6,1.69,1.69,0,0,0,1.62-1.37,1.33,1.33,0,0,0-.29-1.12A1.31,1.31,0,0,0,14.23,24.9Z"/></g><g id="Grupo_3246" data-name="Grupo 3246"><path id="Caminho_9999" data-name="Caminho 9999" class="cls-1" d="M39.86,24.9a1.68,1.68,0,0,0-1.62,1.36,1.39,1.39,0,0,0,.29,1.13,1.34,1.34,0,0,0,1,.47,1.7,1.7,0,0,0,1.62-1.37,1.37,1.37,0,0,0-.29-1.12A1.31,1.31,0,0,0,39.86,24.9Z"/></g><g id="Grupo_3247" data-name="Grupo 3247"><path id="Caminho_10000" data-name="Caminho 10000" class="cls-1" d="M21.46,21.58a.64.64,0,0,0-.6.7.65.65,0,0,0,.6.6h9.86a.65.65,0,0,0,0-1.3Z"/></g><g id="Grupo_3248" data-name="Grupo 3248"><path id="Caminho_10001" data-name="Caminho 10001" class="cls-1" d="M3,19.56H17.31a.65.65,0,0,0,.1-1.3H3a.65.65,0,1,0-.1,1.3Z"/></g><g id="Grupo_3249" data-name="Grupo 3249"><path id="Caminho_10002" data-name="Caminho 10002" class="cls-1" d="M9.19,15.59a.65.65,0,0,0,.65.65H29.49l-1.95,1.3a.66.66,0,0,0-.2.9.65.65,0,0,0,.9.19h0L32,16.13a.64.64,0,0,0,.18-.9.49.49,0,0,0-.12-.13L29.2,12.61a.63.63,0,0,0-.91.1.64.64,0,0,0,.06.88l1.56,1.35H9.84A.65.65,0,0,0,9.19,15.59Z"/></g></g></g></g></g></svg>