<svg xmlns="http://www.w3.org/2000/svg" viewBox="0 0 27.86 35.6"><defs><style>.cls-1{fill:#2FAD49;}</style></defs><g id="Layer_2" data-name="Layer 2"><g id="Layer_1-2" data-name="Layer 1"><g id="Grupo_3261" data-name="Grupo 3261"><g id="Grupo_3255" data-name="Grupo 3255"><path id="Caminho_10013" data-name="Caminho 10013" class="cls-1" d="M27.35,7.12,14.2.11a1,1,0,0,0-.91,0L.5,7.12A1,1,0,0,0,0,8v9.16A19.29,19.29,0,0,0,11.54,34.75l1.78.77a1,1,0,0,0,.76,0l2-.86A19.19,19.19,0,0,0,27.86,16.94V8A1,1,0,0,0,27.35,7.12ZM26,8.54v8.4a17.28,17.28,0,0,1-10.62,16l-1.62.7L12.32,33A17.32,17.32,0,0,1,1.92,17.12V8.53L13.76,2Z"/><path id="Caminho_10014" data-name="Caminho 10014" class="cls-1" d="M11.15,21.79a1,1,0,0,0,1.33.12l8.06-6.55a1,1,0,0,0,.35-.64A1,1,0,0,0,20,13.67h0a1,1,0,0,0-.7.21l-7.33,6L9.15,16.5a1,1,0,0,0-1.35-.1,1,1,0,0,0-.11,1.34h0Z"/></g></g></g></g></svg>