<?xml version="1.0" encoding="utf-8"?>
<!-- Generator: Adobe Illustrator 22.0.1, SVG Export Plug-In . SVG Version: 6.00 Build 0)  -->
<svg version="1.1" id="Camada_1" xmlns="http://www.w3.org/2000/svg" xmlns:xlink="http://www.w3.org/1999/xlink" x="0px" y="0px"
	 viewBox="0 0 240 240" style="enable-background:new 0 0 240 240;" xml:space="preserve">
<style type="text/css">
	.st0{clip-path:url(#SVGID_2_);}
</style>
<title>file</title>
<g id="Camada_1-2">
	<g>
		<defs>
			<rect id="SVGID_1_" y="0.2" width="239.8" height="240.7"/>
		</defs>
		<clipPath id="SVGID_2_">
			<use xlink:href="#SVGID_1_"  style="overflow:visible;"/>
		</clipPath>
		<g class="st0">
			<path class="st1" d="M120,0C53.7,0,0,53.7,0,120s53.7,120,120,120s120-53.7,120-120S186.3,0,120,0z M173.8,173.8
				c0,8.1-6.5,14.6-14.6,14.6l0,0H80.8c-8.1,0-14.6-6.5-14.6-14.6l0,0V66.2c0-8.1,6.5-14.6,14.6-14.6l0,0h61.5v29.2h31.4
				L173.8,173.8z M148.6,74.6V51.7l25.2,22.9L148.6,74.6z"/>
		</g>
	</g>
</g>
</svg>
