<svg xmlns="http://www.w3.org/2000/svg" viewBox="0 0 175.75 145.03"><defs><style>.cls-1{fill:#e20613;}.cls-1,.cls-2{fill-rule:evenodd;}.cls-2{fill:#004676;}</style></defs><title>ctt</title><g id="Camada_2" data-name="Camada 2"><g id="Camada_1-2" data-name="Camada 1"><path class="cls-1" d="M77.72,51.74c0-1.11-3.84-5.67-6.48-11.24-.5-2.44,2.5-3.82,3.35-3.49,5.7,2.2,7.07.05,7.07.05S80.59,38,78.05,37c-1.42-.55-1.83-2-3.33-2.77-.79-.73-3.27,1.11-5,2.37a94,94,0,0,1-9.26,5.25C57.84,45.49,52.2,50.61,50.65,52c-.26.23-.36.47-.28.64a13.33,13.33,0,0,1,1.07,2.93s-.75,3.28-1,4-1.21,1-1.24.12c0,0,.21-3,.18-3.33-.16-.64-.76-.34-.82,0A22.32,22.32,0,0,0,47.6,59c-.33,1.5-.35,3.05-.44,3.15s-.6.54-1.12.12c-.18-.17-1.47-2.63-1.47-2.63a3,3,0,0,1-.23-.68,3.19,3.19,0,0,1,0-.8s.72-2.92,1-3.54,1.59-2.91,3-5.23l3.7-6.83a6.64,6.64,0,0,1,1.4-1.67L58.56,37l9.64-8.24s1.93-2.31,4.38-2.27c1.94-.75,4.69-2.39,4.85-3.6a3,3,0,0,0-.66-2.23C72.51,18.28,71.09,8.52,78.51,7.8c0,0,6.29-1.28,7.14,4.68a22.11,22.11,0,0,1,2.49,2.17,2.32,2.32,0,0,1-1.16,1l.6,1.57-.22,1.08.54,1s.11,1.15-.45,1.39c-.47.45-5.67,1.11-5.87.89l-2-2.44s1.06,3.26,1.47,3.32a6.76,6.76,0,0,0,3.34.76c-.05,1.36-.26,3.18-1,3.83a9.22,9.22,0,0,1,2.66.86,2.19,2.19,0,0,0-1-1.13,4.44,4.44,0,0,0,.53-1.57,5.15,5.15,0,0,1,4.08.67c2.16,1.4,9.21,2.25,10.45,3.63-.44-3.63,1.57-11,.85-12.39a35.72,35.72,0,0,0-2.8-2.26,3.32,3.32,0,0,1-.23-.37L89,17.38l-.45-1.25,8.84-3.55a10.31,10.31,0,0,1-.06-1.4c0-.39.61-.82.61-.82l2.73-.85a3.33,3.33,0,0,1,1.7.08l1.38.38,7.12-2.8,4-6.57a1,1,0,0,1,.53-.56c1.11-.4,3,2,4.27,5.46s1.35,6.52.24,6.93a1,1,0,0,1-.8-.11l-7.27-2.43-7.81,2.56a26.32,26.32,0,0,0,.57,3.36s2,10.29,1.72,13.93c0,0-.77,3.83-1.53,4.64a8.17,8.17,0,0,1-3.26,1.79c-.58,0-4.69-.71-6.69-1.06-.31-2.36-3.15-4.41-3.15-4.41s2,2.78,1.62,4.92c-.31,1.48-.82,2.1-1.15,3.37-.26,1,0,2.67-.2,3.56-.66,2.72-1.58,4.18-1.28,5.42a16.44,16.44,0,0,1,.73,5.22,11.64,11.64,0,0,1-1.6,6.1,56.72,56.72,0,0,1,9.22,3.34,12.12,12.12,0,0,0,7-7.3c3.23-19.73,21-37.94,34-35.58,1.1,0-2.38,2.41-1.29,2.86,2,.82,6.17,3.41,7.35,5a7,7,0,0,1,1.88,4,30.22,30.22,0,0,0,8.93,7.13,14.2,14.2,0,0,0,1.24,5.67,27.24,27.24,0,0,0-3.18,4c-.43.4-2.44.41-3.36-.06a6.12,6.12,0,0,1-1.17-1.57s-2.38-3.77-4.53-4.28c-10.47,1.94-13.69-7.62-13.69-7.62C125.71,37.84,122,49.79,121.91,60.8c2.88-11.13,7-22,10.2-22.19a9.12,9.12,0,0,0,2,3.3c-1.65,4.77-4,14,.65,21.1,1.52,2.31,1.73,8.3.63,14.24a7.67,7.67,0,0,1-3.71-1.36,23.29,23.29,0,0,0-3.4-2.75s2.89,3.89,3.13,5.14c1.18.65,4.24,1.1,5.14,4.38,6.21.32,18,0,18,0,8.67,5.53,19.2,19.7,19.2,19.7s4.14,6.4.55,6.34c0,0-4.42-.26-6.72-1.48-2.2-1.54-1.63-6.63-3.38-9,0,0-7-6.12-10.18-7.51a19.41,19.41,0,0,1,2.29,5C148.6,102.05,137,107.88,137,107.88s-7,3-6.34-.56c0,0,1-4.31,2.63-6.36,1.9-1.9,6.81-.45,9.49-1.76,0,0,7.6-6.13,9.3-8.93-6.92-.38-14.44,2.56-21.09,5.31-.71.29-1.82-.27-2.9-.74-6-3.3-7.15-6.94-7.15-6.94A23.25,23.25,0,0,1,117,90.15a7.91,7.91,0,0,0,3.15.47,12.19,12.19,0,0,0,3,4.67c-4.39,1.78-10.3,4.85-14.34,5.06-9.13.48-15.06-5.51-26.29-6.71A8.81,8.81,0,0,1,86.28,90c-4.22.76-7.38,2.21-9.28,4.34a1.88,1.88,0,0,0-.68.85,8.17,8.17,0,0,0-1,2.11c-3.45,6.64-7.89,9.91-12.27,11.57a11.92,11.92,0,0,0-1.58,2.93,100,100,0,0,1-8,15.76c-2.91,4.63-10.34,8.61-13.77,7.48-.57-2.48,1.29-7.69,2.56-9.66.55-.85,5.45.3,6.16-.5,2.84-3.15,4-7.64,4.67-11.86a61.16,61.16,0,0,0,5.86-3c-5.08,1-9.57.47-11.65,1.53A9.75,9.75,0,0,0,42.94,116,98.15,98.15,0,0,1,33,130.62c-3.45,4.24-11.31,7.28-14.58,5.74-.26-2.52,2.22-7.47,3.72-9.27.65-.78,5.37,1,6.18.26,7-6.06,7-19.36,9-22.06,0,0,8.18-4.67,7.21-12.59-1.25-10.11,2-16,7.34-19.76-13.59,4-18.76,27.86-39.45,24.44-.74-.13-.86-.76-.23-.93C17.78,95,19,92.73,19,92.73A30,30,0,0,1,.37,89.23c-.64-.37-.4-1.07.34-1C11.05,88.82,20.49,86,26.6,80c6.61-6.51,10.59-11.27,18.81-12.11,5.83-.6,8.94.54,11.63,2.24a67.55,67.55,0,0,1,10.89-3.3,80.72,80.72,0,0,1,9.46-1c-3-2.63-2.62-6.94-.28-11a6.77,6.77,0,0,1,.61-3ZM81.65,13a1.77,1.77,0,0,1,3.21.78L81.65,13ZM142,29a1,1,0,0,1,1.45-.28c.48.32,3,2.55,2.63,3s-3.32-1-3.8-1.3A1,1,0,0,1,142,29ZM116.32,6.65c-.65-1.8-.78-3.4-.29-3.58S117.46,4.2,118.12,6s.78,3.4.29,3.58S117,8.45,116.32,6.65Z"/><path class="cls-2" d="M146.49,142l-2.33-3a6.52,6.52,0,0,1-4.57,2.24,4,4,0,0,1-3-1.3c-1-1.12-1.52-3.1-1.52-6.19a15.41,15.41,0,0,1,.94-6.33,3.86,3.86,0,0,1,3.59-2.28,5.52,5.52,0,0,1,3.81,1.75l2.47-3.28a8.27,8.27,0,0,0-6.28-2.46c-5.07,0-10,3.94-10,12.19,0,7.31,3.45,11.67,9.64,11.67a9.45,9.45,0,0,0,7.26-3Z"/><path class="cls-2" d="M161.35,144l-.63-3a5.85,5.85,0,0,1-2.11.45c-2.15,0-2.78-.81-2.78-3.64V125.16H160l1.3-3.41h-5.43a61.3,61.3,0,0,1,.41-6.82l-5.07,1.21a46,46,0,0,0-.22,5.61h-2.52v3.41H151v14c0,3.23,1.52,5.84,5.92,5.84a10.53,10.53,0,0,0,4.44-1Z"/><path class="cls-2" d="M175.75,144l-.63-3a5.81,5.81,0,0,1-2.11.45c-2.15,0-2.78-.81-2.78-3.64V125.16h4.17l1.3-3.41h-5.42a63.94,63.94,0,0,1,.4-6.82l-5.07,1.21a46,46,0,0,0-.22,5.61h-2.51v3.41h2.51v14c0,3.23,1.52,5.84,5.92,5.84a10.53,10.53,0,0,0,4.44-1Z"/></g></g></svg>