<svg xmlns="http://www.w3.org/2000/svg" viewBox="0 0 162.97 23.05"><defs><style>.cls-1{fill:#d2072a;}</style></defs><title>dhl</title><g id="Camada_2" data-name="Camada 2"><g id="Camada_1-2" data-name="Camada 1"><path class="cls-1" d="M28.66,0,23.45,7.07H51.83c1.44,0,1.42.55.72,1.5s-1.91,2.64-2.63,3.62c-.37.5-1,1.4,1.17,1.4h11.6l3.44-4.67C68.26,6,66.32,0,58.69,0Z"/><path class="cls-1" d="M21.35,23.05,31.81,8.84h13c1.44,0,1.42.54.72,1.49l-2.65,3.6c-.37.5-1,1.41,1.17,1.41H61.41a18.08,18.08,0,0,1-14.56,7.71Z"/><path class="cls-1" d="M81.24,15.34l-5.67,7.71h-15l5.67-7.71Z"/><polygon class="cls-1" points="104.16 13.59 67.57 13.59 77.58 0 92.53 0 86.8 7.79 93.47 7.79 99.21 0 114.16 0 104.16 13.59 104.16 13.59"/><path class="cls-1" d="M102.88,15.34,97.2,23.05h-15l5.67-7.71Z"/><polygon class="cls-1" points="0 18.38 22.04 18.38 20.84 20.02 0 20.02 0 18.38 0 18.38"/><polygon class="cls-1" points="0 15.34 24.28 15.34 23.07 16.97 0 16.97 0 15.34 0 15.34"/><polygon class="cls-1" points="0 21.42 19.8 21.42 18.6 23.05 0 23.05 0 21.42 0 21.42"/><polygon class="cls-1" points="162.97 20.02 141.02 20.02 142.22 18.38 162.97 18.38 162.97 20.02 162.97 20.02"/><polygon class="cls-1" points="162.97 23.05 138.79 23.05 139.98 21.42 162.97 21.42 162.97 23.05 162.97 23.05"/><polygon class="cls-1" points="144.46 15.34 162.97 15.34 162.97 16.97 143.26 16.98 144.46 15.34 144.46 15.34"/><path class="cls-1" d="M134.88,0l-10,13.59H109S119,0,119,0Z"/><path class="cls-1" d="M107.74,15.34l-1.62,2.21c-1.88,2.54-.22,5.5,5.91,5.5h24l5.67-7.71Z"/></g></g></svg>