<svg xmlns="http://www.w3.org/2000/svg" viewBox="0 0 117.8 115.6"><g id="Camada_2" data-name="Camada 2"><g id="Camada_1-2" data-name="Camada 1"><path class="cls-1" d="M113.6,107.4H4.2a4.12,4.12,0,0,0-4.1,4.1,4.19,4.19,0,0,0,4.1,4.1H113.7a4.12,4.12,0,0,0,4.1-4.1A4.21,4.21,0,0,0,113.6,107.4Z"/><path class="cls-1" d="M.1,71.1,0,90.6a4.23,4.23,0,0,0,1.2,3,4,4,0,0,0,2.9,1.2l19.4-.1a4,4,0,0,0,2.9-1.2l67-67a4.23,4.23,0,0,0,0-5.9L74.2,1.2a4.23,4.23,0,0,0-5.9,0L54.9,14.7,1.3,68.2A4.45,4.45,0,0,0,.1,71.1ZM71.3,10,84.8,23.5l-7.6,7.6L63.7,17.6ZM8.4,72.9,57.8,23.5,71.3,37,21.9,86.3l-13.6.1Z"/></g></g></svg>