<svg xmlns="http://www.w3.org/2000/svg" viewBox="0 0 358.4 358.4"><defs><style>.cls-1{fill:#4a9e36;}.cls-2{fill:#6ac258;}.cls-3{fill:#fff;}</style></defs><title>info</title><g id="Camada_2" data-name="Camada 2"><g id="Layer_1" data-name="Layer 1"><path class="cls-1" d="M306.9,304.91,204.8,128.07V256h34.13v34.13H119.68l38.72,67.06a181,181,0,0,0,20.8,1.21A178.64,178.64,0,0,0,306.9,304.91Z"/><path class="cls-2" d="M179.2,0A179.09,179.09,0,0,0,0,179.2c0,91.93,69.23,167.68,158.4,178l-38.72-67.06h-.21V256H153.6V162.13H128V128h76.8v.07L306.9,304.91A179.19,179.19,0,0,0,179.2,0Zm-8.53,93.87a25.6,25.6,0,1,1,12.5-3.26A25.6,25.6,0,0,1,170.67,93.87Z"/><polygon class="cls-3" points="204.76 128 204.8 128.07 204.8 128 204.76 128"/><polygon class="cls-3" points="119.47 290.13 119.68 290.13 119.47 289.76 119.47 290.13"/><polygon class="cls-3" points="128 128 128 162.13 153.6 162.13 153.6 256 119.47 256 119.47 289.76 119.68 290.13 153.6 290.13 204.8 290.13 238.93 290.13 238.93 256 204.8 256 204.8 162.13 204.8 128.07 204.76 128 128 128"/><path class="cls-3" d="M170.67,42.67a25.6,25.6,0,1,0,25.6,25.6A25.48,25.48,0,0,0,170.67,42.67Z"/></g></g></svg>