<svg xmlns="http://www.w3.org/2000/svg" viewBox="0 0 235.03 51.65"><defs><style>.cls-1{fill:#0466b4;}.cls-1,.cls-2{fill-rule:evenodd;}.cls-2,.cls-3{fill:#231f20;}</style></defs><title>mb</title><g id="Camada_2" data-name="Camada 2"><g id="Camada_1-2" data-name="Camada 1"><path class="cls-1" d="M11,0H45.31a4.52,4.52,0,0,1,4.37,4.63V6.85a2.13,2.13,0,1,1-4.24,0V5.66A1.4,1.4,0,0,0,44,4.26H9.71a1.4,1.4,0,0,0-1.4,1.4V6.84c0,3.11-4,3.09-4,.07V4.63A4.52,4.52,0,0,1,8.65,0ZM26.75,51.65H49c5.08,0,5.13-5.39,4.61-8-.28-1.79-3.32-1.78-3.66,0v2.07A1.73,1.73,0,0,1,48.2,47.4H5.6a1.74,1.74,0,0,1-1.73-1.73V43.6c-.33-1.78-3.38-1.79-3.66,0-.51,2.66-.46,8,4.61,8H26.75Z"/><path class="cls-2" d="M40.49,23.71H44v0a3.39,3.39,0,0,0,2.86-3.33h0A3.38,3.38,0,0,0,43.52,17H36.39V34.59h9a3.48,3.48,0,0,0,3.47-3.48h0a3.49,3.49,0,0,0-3.47-3.48H40.49a2,2,0,0,1-2-2h0a2,2,0,0,1,2-2Zm8.33,1.73a6.78,6.78,0,0,1,4,6.07h0a7,7,0,0,1-7.24,6.78H34.43a1.84,1.84,0,0,1-1.89-1.78V15.29a1.87,1.87,0,0,1,1.86-1.87h9.29a7.13,7.13,0,0,1,7.12,7.11h0A7.07,7.07,0,0,1,48.82,25.44Z"/><path class="cls-3" d="M30.76,36.17a2.24,2.24,0,0,1-4.45.47L24.48,19.76,18,36.27h0l0,0v0h0v.06l0,0v0l0,0h0a2.05,2.05,0,0,1-.45.59h0l0,0a2.7,2.7,0,0,1-.39.27h0l0,0h0l0,0h0l0,0h-.2a2.48,2.48,0,0,1-.65.12H15.8a2.38,2.38,0,0,1-.73-.15H15l0,0h0l0,0h0l0,0h0a2.62,2.62,0,0,1-.34-.24h0l-.07-.07h0l-.06,0L14.25,37h0l-.07-.08h0a2.16,2.16,0,0,1-.24-.35v0l0,0h0l0,0h0v-.11l0,0h0v0L7.29,19.76,5.46,36.64A2.24,2.24,0,1,1,1,36.17l2.16-19.9h0a3.91,3.91,0,0,1,.14-.68,3.36,3.36,0,0,1,.28-.65A3.71,3.71,0,0,1,6.37,13H6.5a3.46,3.46,0,0,1,.56,0h0a3.6,3.6,0,0,1,.68.09,3.71,3.71,0,0,1,2.6,2.25l5.53,14.07,5.54-14.07A3.69,3.69,0,0,1,24,13,3.6,3.6,0,0,1,24.7,13h0a3.5,3.5,0,0,1,.56,0h.13a3.71,3.71,0,0,1,2.78,1.94,3.31,3.31,0,0,1,.27.65,3.93,3.93,0,0,1,.15.68h0Z"/><path class="cls-3" d="M103.09,17.41a1.9,1.9,0,0,1,3.79,0V27.65h0a8.5,8.5,0,0,1-8.49,8.5h0a8.52,8.52,0,0,1-8.49-8.5h0V17.41a1.9,1.9,0,0,1,3.79,0V27.65h0a4.75,4.75,0,0,0,4.72,4.73h0a4.76,4.76,0,0,0,4.72-4.73h0Z"/><path class="cls-3" d="M121,32.37a1.9,1.9,0,1,1,0,3.79h-5.22A7.12,7.12,0,0,1,108.65,29h0V17.41a1.9,1.9,0,0,1,3.79,0V29h0a3.38,3.38,0,0,0,3.34,3.34H121Z"/><path class="cls-3" d="M89.17,34a1.89,1.89,0,0,1-3.76.44L83.79,20.85,78,34.26a1.89,1.89,0,0,1-3.48,0h0L68.75,20.85,67.12,34.48A1.89,1.89,0,1,1,63.37,34l1.88-15.83a3,3,0,0,1,1.66-2.35,3.92,3.92,0,0,1,.36-.16l.15,0a3.63,3.63,0,0,1,.56-.12h0a3.24,3.24,0,0,1,2.64.83,3.31,3.31,0,0,1,.39.44c.08.12.15.24.22.36a2,2,0,0,1,.1.21l4.91,11.37,4.9-11.37a3.1,3.1,0,0,1,2.21-1.79,3.78,3.78,0,0,1,.56-.08h.43l.13,0h0A3.13,3.13,0,0,1,86.88,17h0a2.65,2.65,0,0,1,.25.54c0,.12.08.24.11.37a1.87,1.87,0,0,1,0,.25h0Z"/><path class="cls-3" d="M129.25,34.26a1.89,1.89,0,1,1-3.78,0v-15h-5.39a1.89,1.89,0,1,1,0-3.78h14.56a1.89,1.89,0,1,1,0,3.78h-5.39Z"/><path class="cls-3" d="M141.06,34.26a1.89,1.89,0,1,1-3.78,0V17.41a1.89,1.89,0,0,1,3.78,0Z"/><path class="cls-3" d="M179.89,34a1.89,1.89,0,1,1-3.75.46l-.67-5.35h-6.56a1.89,1.89,0,1,1,0-3.78H175L174.83,24v0s0-.08,0-.13a6.6,6.6,0,0,0-.21-1,6.73,6.73,0,0,0-.39-1,4.31,4.31,0,0,0-3.83-2.56h0a4.19,4.19,0,0,0-1,.11,4,4,0,0,0-.85.32A5.31,5.31,0,0,0,165.93,24l-1.19,10.52a1.89,1.89,0,1,1-3.75-.42l1.18-10.52a9.08,9.08,0,0,1,4.68-7.17,7.53,7.53,0,0,1,3.51-.83h0a8,8,0,0,1,7.2,4.65,10,10,0,0,1,.64,1.61,11.61,11.61,0,0,1,.33,1.54l0,.18h0Z"/><path class="cls-3" d="M185.69,34.26a1.9,1.9,0,1,1-3.79,0V18.61h0a1.73,1.73,0,0,1,0-.32,2.59,2.59,0,0,1,.15-.61h0c0-.1.09-.22.15-.34h0a2.69,2.69,0,0,1,1.48-1.25L184,16l.2,0h0a3,3,0,0,1,.45,0h.05a2.67,2.67,0,0,1,2,1l10.08,12.85V17.41a1.89,1.89,0,0,1,3.78,0V33a2.68,2.68,0,0,1-1,2.07,3.77,3.77,0,0,1-.39.26,1.75,1.75,0,0,1-.24.11h0l-.16.06h0a2.64,2.64,0,0,1-2-.11l-.24-.13a2.47,2.47,0,0,1-.38-.28l-.24-.25-.06-.07h0l0,0L185.69,21.8Z"/><path class="cls-3" d="M215.26,32.37a1.9,1.9,0,0,1,0,3.79h-5.58a7.49,7.49,0,0,1-7.47-7.46h0V23h0a7.48,7.48,0,0,1,7.46-7.46h5.59a1.89,1.89,0,1,1,0,3.78h-5.59A3.7,3.7,0,0,0,206,23h0v5.69h0a3.63,3.63,0,0,0,1.09,2.6,3.68,3.68,0,0,0,2.6,1.09h5.58Z"/><path class="cls-3" d="M226.21,15.52h0a8.94,8.94,0,0,1,6.2,2.48A8.43,8.43,0,0,1,235,24.07h0V27.6h0a8.46,8.46,0,0,1-2.62,6.07,8.94,8.94,0,0,1-6.2,2.48h0a8.9,8.9,0,0,1-6.2-2.49,8.37,8.37,0,0,1-2.61-6.06h0V24.07h0A8.39,8.39,0,0,1,220,18a8.94,8.94,0,0,1,6.2-2.48h0Zm0,3.78h0a5.18,5.18,0,0,0-3.58,1.43,4.63,4.63,0,0,0-1.46,3.34h0V27.6h0a4.61,4.61,0,0,0,1.46,3.34,5.14,5.14,0,0,0,3.58,1.44h0a5.11,5.11,0,0,0,3.58-1.44,4.61,4.61,0,0,0,1.46-3.34h0V24.07h0a4.66,4.66,0,0,0-1.45-3.34A5.19,5.19,0,0,0,226.21,19.3Z"/><path class="cls-3" d="M142.65,25.72V17.49h0a1.9,1.9,0,0,1,.16-.75,1.94,1.94,0,0,1,.43-.65l0,0h0a1.92,1.92,0,0,1,1.24-.54h7.41a6,6,0,0,1,6,6h0a6,6,0,0,1-.93,3.21,5.88,5.88,0,0,1,1.07.85l.12.13A6.13,6.13,0,0,1,159.9,30h0a6.16,6.16,0,0,1-6.15,6.16h-9.21a1.9,1.9,0,0,1-1.89-1.9V25.72Zm3.79-6.42V32.37h7.31a2.39,2.39,0,0,0,1.68-.71,2.34,2.34,0,0,0,.7-1.68h0a2.38,2.38,0,0,0-.63-1.6l-.07-.07a2.41,2.41,0,0,0-1.68-.71h-2.52a1.89,1.89,0,0,1-1.89-1.89h0a1.9,1.9,0,0,1,1.89-1.9h.86a2.25,2.25,0,0,0,1.43-.66h0a2.25,2.25,0,0,0,.67-1.59h0a2.29,2.29,0,0,0-.67-1.6,2.26,2.26,0,0,0-1.6-.66h-5.48Z"/></g></g></svg>