<svg xmlns="http://www.w3.org/2000/svg" viewBox="0 0 116.77 31.12"><defs><style>.cls-1{fill:#009ade;}.cls-2{fill:#002f87;}</style></defs><title>paypal</title><g id="Camada_2" data-name="Camada 2"><g id="Camada_1-2" data-name="Camada 1"><path class="cls-1" d="M78.79,0H69.71a1.27,1.27,0,0,0-1.25,1.07L64.79,24.35a.76.76,0,0,0,.75.88H70.2a.89.89,0,0,0,.87-.75l1-6.6a1.27,1.27,0,0,1,1.25-1.06h2.87c6,0,9.44-2.9,10.34-8.64.41-2.51,0-4.48-1.16-5.86S81.83,0,78.79,0Zm1,8.51c-.49,3.26-3,3.26-5.39,3.26H73.08l1-6.09A.75.75,0,0,1,74.79,5h.62c1.64,0,3.19,0,4,.93A3,3,0,0,1,79.84,8.51Z"/><path class="cls-2" d="M14,0H4.93A1.27,1.27,0,0,0,3.68,1.07L0,24.35a.76.76,0,0,0,.75.88H5.09a1.26,1.26,0,0,0,1.25-1.07l1-6.28a1.27,1.27,0,0,1,1.25-1.06h2.87c6,0,9.44-2.9,10.34-8.64.41-2.51,0-4.48-1.16-5.86S17.05,0,14,0Zm1.05,8.51c-.5,3.26-3,3.26-5.39,3.26H8.29l1-6.09A.74.74,0,0,1,10,5h.63c1.64,0,3.19,0,4,.93A3,3,0,0,1,15.06,8.51Z"/><path class="cls-2" d="M41.16,8.4H36.81a.76.76,0,0,0-.75.64l-.19,1.22-.3-.44c-1-1.37-3-1.83-5.14-1.83a10,10,0,0,0-9.71,8.75,8.24,8.24,0,0,0,1.62,6.68,6.81,6.81,0,0,0,5.48,2.21,8.34,8.34,0,0,0,6-2.48l-.2,1.2a.77.77,0,0,0,.75.88h3.92a1.27,1.27,0,0,0,1.25-1.06L41.91,9.28A.77.77,0,0,0,41.16,8.4ZM35.1,16.87A4.85,4.85,0,0,1,30.19,21a3.7,3.7,0,0,1-2.92-1.17,3.7,3.7,0,0,1-.68-3.06,4.86,4.86,0,0,1,4.87-4.18,3.67,3.67,0,0,1,2.9,1.18A3.74,3.74,0,0,1,35.1,16.87Z"/><path class="cls-1" d="M105.94,8.4h-4.35a.76.76,0,0,0-.75.64l-.19,1.22-.3-.44C99.41,8.45,97.31,8,95.21,8a10,10,0,0,0-9.71,8.75,8.24,8.24,0,0,0,1.62,6.68,6.81,6.81,0,0,0,5.48,2.21,8.34,8.34,0,0,0,6-2.48l-.19,1.2a.75.75,0,0,0,.74.88h3.92a1.27,1.27,0,0,0,1.25-1.06l2.35-14.89A.76.76,0,0,0,105.94,8.4Zm-6.06,8.47A4.85,4.85,0,0,1,95,21a3.7,3.7,0,0,1-2.92-1.17,3.7,3.7,0,0,1-.68-3.06,4.86,4.86,0,0,1,4.87-4.18,3.67,3.67,0,0,1,2.9,1.18A3.74,3.74,0,0,1,99.88,16.87Z"/><path class="cls-2" d="M64.32,8.4H60a1.26,1.26,0,0,0-1,.55l-6,8.89L50.32,9.3a1.27,1.27,0,0,0-1.21-.9H44.82a.76.76,0,0,0-.72,1l4.81,14.13-4.52,6.39a.76.76,0,0,0,.61,1.2h4.37a1.29,1.29,0,0,0,1-.55L65,9.59A.76.76,0,0,0,64.32,8.4Z"/><path class="cls-1" d="M111.07.64l-3.73,23.72a.76.76,0,0,0,.75.87h3.75a1.25,1.25,0,0,0,1.24-1.07L116.76.88A.76.76,0,0,0,116,0h-4.19A.75.75,0,0,0,111.07.64Z"/></g></g></svg>