<svg xmlns="http://www.w3.org/2000/svg" viewBox="0 0 318.44 315.93"><defs><style>.cls-1{fill:#2b4457;}.cls-2{fill:#526677;}.cls-3{fill:#213546;}.cls-4{fill:#fff;}.cls-5{fill:#21d8de;}.cls-6{fill:#ff6d3b;}</style></defs><title>print</title><g id="Camada_2" data-name="Camada 2"><g id="Layer_1" data-name="Layer 1"><path class="cls-1" d="M318.44,210.85a6.37,6.37,0,0,1-6.36,6.37H6.37A6.39,6.39,0,0,1,0,210.85v-95.6H318.44v95.6Z"/><path class="cls-2" d="M318.44,115.25H0V89.91a6.39,6.39,0,0,1,6.37-6.37h305.7a6.38,6.38,0,0,1,6.36,6.37v25.34Z"/><rect class="cls-3" x="38.09" y="165.3" width="242.02" height="51.9"/><rect class="cls-1" x="47.76" y="187.39" width="222.92" height="63.7"/><rect class="cls-3" x="47.76" y="34.5" width="222.92" height="63.71"/><rect class="cls-1" x="59.94" y="15.39" width="198.55" height="82.83"/><rect class="cls-3" y="115.25" width="318.44" height="3.75"/><rect class="cls-3" x="293.54" y="139.83" width="11.46" height="8.02"/><rect class="cls-3" x="293.54" y="157.29" width="11.46" height="8.02"/><rect class="cls-4" x="68.01" width="182.17" height="98.2"/><rect class="cls-4" x="68.01" y="179.69" width="182.17" height="136.24"/><path class="cls-5" d="M134.17,290.83a9.46,9.46,0,1,1-9.47-9.46A9.47,9.47,0,0,1,134.17,290.83Z"/><path class="cls-6" d="M168.55,290.83a9.46,9.46,0,1,1-9.46-9.46A9.46,9.46,0,0,1,168.55,290.83Z"/><path class="cls-3" d="M202.94,290.83a9.46,9.46,0,1,1-9.46-9.46A9.46,9.46,0,0,1,202.94,290.83Z"/><polygon class="cls-5" points="159.09 227.6 126.84 259.86 191.34 259.86 159.09 227.6"/><polygon class="cls-6" points="159.09 227.6 126.84 195.35 126.84 259.86 159.09 227.6"/><polygon class="cls-3" points="126.84 195.35 159.09 227.6 191.34 259.86 191.34 195.35 126.84 195.35"/></g></g></svg>