<svg xmlns="http://www.w3.org/2000/svg" xmlns:xlink="http://www.w3.org/1999/xlink" viewBox="0 0 187.82 60.66"><defs><style>.cls-1{fill:url(#Blue_Gradient_01);}</style><linearGradient id="Blue_Gradient_01" y1="30.33" x2="187.82" y2="30.33" gradientUnits="userSpaceOnUse"><stop offset="0" stop-color="#272158"/><stop offset="1" stop-color="#164193"/></linearGradient></defs><title>visa</title><g id="Camada_2" data-name="Camada 2"><g id="Camada_1-2" data-name="Camada 1"><path class="cls-1" d="M71.31,1.07,46.72,59.74h-16L18.58,12.92C17.84,10,17.21,9,15,7.77c-3.65-2-9.67-3.84-15-5l.36-1.7H26.18a7.08,7.08,0,0,1,7,6l6.39,34L55.37,1.07Zm62.86,39.51c.07-15.48-21.41-16.33-21.26-23.25,0-2.1,2-4.34,6.43-4.91a28.55,28.55,0,0,1,15,2.62L137,2.6A40.67,40.67,0,0,0,122.77,0c-15,0-25.56,8-25.64,19.39-.1,8.45,7.54,13.16,13.29,16,5.91,2.87,7.89,4.72,7.87,7.29-.05,3.94-4.72,5.67-9.09,5.74a31.67,31.67,0,0,1-15.58-3.71L90.87,57.54c3.54,1.63,10.09,3.05,16.88,3.12,15.94,0,26.37-7.88,26.42-20.08m39.61,19.16h14L175.57,1.07h-13a6.92,6.92,0,0,0-6.46,4.31L133.38,59.74h15.93L152.48,51H172ZM156.85,39l8-22,4.6,22ZM93,1.07,80.45,59.74H65.27L77.82,1.07Z"/></g></g></svg>