<svg version="1.1" id="Camada_1" xmlns="http://www.w3.org/2000/svg" xmlns:xlink="http://www.w3.org/1999/xlink" x="0px" y="0px"
	 viewBox="0 0 50 50" style="enable-background:new 0 0 50 50;" xml:space="preserve">
<g>
	<path d="M29,26.3c-1.5,0.1-2.6,1.3-2.5,2.8c0.1,1.3,1.1,2.4,2.5,2.5c1.5-0.1,2.6-1.3,2.5-2.8C31.4,27.5,30.3,26.4,29,26.3z"/>
	<path d="M29,18.4c-1.5,0-2.6,1.2-2.6,2.6c0,1.5,1.2,2.6,2.6,2.6c1.5,0,2.6-1.2,2.6-2.6C31.6,19.6,30.5,18.4,29,18.4z"/>
	<rect x="18.4" y="5.3" width="13.2" height="5.3"/>
	<path d="M44.7,5.3h-2.6v5.3h2.6v34.2H5.3V10.5h2.6V5.3H5.3C2.4,5.3,0,7.6,0,10.5v34.2C0,47.6,2.4,50,5.3,50h39.5
		c2.9,0,5.3-2.4,5.3-5.3V10.5C50,7.6,47.6,5.3,44.7,5.3z"/>
	<path d="M18.5,21c0,1.4,1.1,2.6,2.6,2.6h0c1.5,0,2.6-1.2,2.6-2.6s-1.2-2.6-2.6-2.6C19.6,18.4,18.5,19.6,18.5,21z"/>
	<path d="M36.8,23.7c1.5,0,2.6-1.2,2.6-2.6c0-1.5-1.2-2.6-2.6-2.6c-1.5,0-2.6,1.2-2.6,2.6S35.4,23.7,36.8,23.7z"/>
	<path d="M36.8,31.6c1.5,0,2.6-1.2,2.6-2.6c0-1.5-1.2-2.6-2.6-2.6c-1.5,0-2.6,1.2-2.6,2.6c0,0,0,0,0,0
		C34.2,30.4,35.4,31.6,36.8,31.6z"/>
	<path d="M36.8,10.5c1.5,0,2.6-1.2,2.6-2.6V2.6c0-1.5-1.2-2.6-2.6-2.6s-2.6,1.2-2.6,2.6v5.3C34.2,9.3,35.4,10.5,36.8,10.5z"/>
	<path d="M13.2,31.6c1.5,0,2.6-1.2,2.6-2.6c0-1.5-1.2-2.6-2.6-2.6c-1.5,0-2.6,1.2-2.6,2.6c0,0,0,0,0,0.1
		C10.6,30.4,11.7,31.6,13.2,31.6z"/>
	<path d="M21,31.6c1.5,0,2.6-1.2,2.6-2.6c0-1.5-1.2-2.6-2.6-2.6c-1.5,0-2.6,1.2-2.6,2.6c0,0,0,0,0,0.1C18.4,30.4,19.6,31.6,21,31.6z
		"/>
	<path d="M13.2,34.2c-1.5,0-2.6,1.2-2.6,2.6s1.2,2.6,2.6,2.6c1.5,0,2.6-1.2,2.6-2.6S14.6,34.2,13.2,34.2z"/>
	<path d="M13.2,23.7c1.5,0,2.6-1.2,2.6-2.6s-1.2-2.6-2.6-2.6c-1.5,0-2.6,1.2-2.6,2.6S11.7,23.7,13.2,23.7z"/>
	<path d="M13.2,10.5c1.5,0,2.6-1.2,2.6-2.6V2.6c0-1.5-1.2-2.6-2.6-2.6c-1.5,0-2.6,1.2-2.6,2.6c0,0,0,0,0,0v5.3
		C10.5,9.3,11.7,10.5,13.2,10.5z"/>
	<circle cx="21" cy="36.8" r="2.6"/>
</g>
</svg>
