<svg id="Group_21" data-name="Group 21" xmlns="http://www.w3.org/2000/svg" width="15.991" height="12.13" viewBox="0 0 15.991 12.13">
  <path id="Path_11" data-name="Path 11" d="M1982.216,700.6a1.879,1.879,0,0,0-1.338-.556H1968.67a1.9,1.9,0,0,0-1.893,1.893v8.344a1.9,1.9,0,0,0,1.893,1.894h12.2a1.9,1.9,0,0,0,1.894-1.894v-8.341A1.88,1.88,0,0,0,1982.216,700.6Zm-.183,9.681a1.157,1.157,0,0,1-1.155,1.155H1968.67a1.157,1.157,0,0,1-1.155-1.155v-8.34a1.156,1.156,0,0,1,1.155-1.155h12.2a1.156,1.156,0,0,1,1.155,1.155V710.2h0Z" transform="translate(-1966.777 -700.042)" fill="#2fad49"/>
  <path id="Path_12" data-name="Path 12" d="M1982.979,712.7a.365.365,0,0,1-.254-.1l-4.073-3.87-1.183,1.06a.368.368,0,0,1-.493,0l-1.152-1.028-4.1,3.832a.37.37,0,0,1-.252.1.38.38,0,0,1-.271-.118.372.372,0,0,1,.017-.522l4.046-3.789-4.065-3.633a.369.369,0,0,1-.03-.523.369.369,0,0,1,.523-.03l4.325,3.871c.018.014.046.039.046.039l.034.034,1.117,1,5.5-4.939a.37.37,0,1,1,.5.55l-4.017,3.6,4.032,3.828a.369.369,0,0,1-.254.637Z" transform="translate(-1969.215 -702.278)" fill="#2fad49"/>
</svg>
