<svg xmlns="http://www.w3.org/2000/svg" xmlns:xlink="http://www.w3.org/1999/xlink" width="226.335" height="214.934" viewBox="0 0 226.335 214.934">
  <defs>
    <clipPath id="clip-path">
      <path id="Path_10156" data-name="Path 10156" d="M294,156.7c-9.776,11.141-12.713,19.068-12.713,31.407,0,30.172,25.183,41.252,28.288,42.5a156.119,156.119,0,0,0,59.038-41.189,37.562,37.562,0,0,0-2.261-15.335c-4.8-13.343-17.116-30.473-41.5-30.473-12.528,0-24.4,5.738-30.85,13.088m2.311-98.129c-99.469,55.2-93.676,150.408-93.676,150.408s11.091-30.087,40.571-58.711c45.518-44.2,79.491-52.116,79.491-52.116s-31.665,17.15-71.244,58.711c-37.2,39.06-44.858,86.419-44.858,86.419s41.036,6.6,86.859-7.052a56.091,56.091,0,0,1-26.56-48.124c0-33.652,27.668-56.833,57.956-56.833s45.766,21.965,48.417,25.426c3.9,5.092,7.337,15.232,7.938,17.068,18.963-33.33,24.344-81.443,26.922-98.377,4.62-30.343,20.78-45.185,20.78-45.185s-3.807-.261-10.4-.261c-22.184,0-75.917,2.942-122.2,28.626" transform="translate(-202.573 -29.946)" fill="#fff"/>
    </clipPath>
  </defs>
  <g id="Group_3524" data-name="Group 3524" opacity="0.4" clip-path="url(#clip-path)">
    <rect id="Rectangle_3142" data-name="Rectangle 3142" width="232.065" height="219.941" transform="translate(-5.73)" fill="#fff"/>
  </g>
</svg>
