<svg xmlns="http://www.w3.org/2000/svg" viewBox="0 0 1500 972"><defs><style>.cls-1{fill:#ddd;}</style></defs><title>geral</title><g id="Camada_2" data-name="Camada 2"><g id="Camada_1-2" data-name="Camada 1"><path class="cls-1" d="M555.36,540.9,659.39,420a21.18,21.18,0,0,1,32.35.2l111.35,133,56.47-56.44a21.24,21.24,0,0,1,29.31-.73l55.77,50.74V340.9H555.36ZM863.25,376.29a38.93,38.93,0,1,1-38.91,39A38.91,38.91,0,0,1,863.25,376.29Z"/><path class="cls-1" d="M0,0V972H1500V0ZM972.94,631.1a28.29,28.29,0,0,1-28.3,28.3H555.36a28.32,28.32,0,0,1-28.3-28.3V340.9a28.32,28.32,0,0,1,28.3-28.3H944.64a28.29,28.29,0,0,1,28.3,28.3Z"/></g></g></svg>