<svg xmlns="http://www.w3.org/2000/svg" viewBox="0 0 344.33 367.13"><defs><style>.cls-1{fill:#fff;}</style></defs><title>cursor</title><g id="Camada_2" data-name="Camada 2"><g id="Camada_1-2" data-name="Camada 1"><path class="cls-1" d="M311.88,146.44a31.89,31.89,0,0,0-19.47,6.49h0A32.14,32.14,0,0,0,260,120.48a35.25,35.25,0,0,0-22.07,7.79c-5.19-13-16.88-20.77-29.86-20.77A31.89,31.89,0,0,0,188.55,114V49.08a32.45,32.45,0,1,0-64.91,0V164.62c-26-23.37-54.52-41.54-72.7-23.37-26,26,28.56,76.59,70.1,153.19,29.86,53.23,71.4,72.7,112.94,72.7A110.25,110.25,0,0,0,344.33,256.79V178.9A32.14,32.14,0,0,0,311.88,146.44Zm19.47,61v49.33c0,50.63-44.14,97.37-97.37,97.37-49.33,0-77.89-27.26-101.26-64.91C83.4,203.56,47,164.62,60,150.34c14.28-14.28,49.33,16.88,76.59,45.44V49.08c0-10.39,9.09-19.47,19.47-19.47s19.47,9.09,19.47,19.47V185.39h13V139.95c0-10.39,9.09-19.47,19.47-19.47s19.47,9.09,19.47,19.47V172.4h13V152.93c0-10.39,9.09-19.47,19.47-19.47s19.47,9.09,19.47,19.47v32.45h13v-6.49c0-10.39,9.09-19.47,19.47-19.47s19.47,9.09,19.47,19.47v28.56Z"/><path class="cls-1" d="M307.48,27.18,284.31,4a13.65,13.65,0,0,0-19.44,19.18H234.32a13.66,13.66,0,0,0,0,27.31h30.54a13.65,13.65,0,0,0,19.44,19.18l23.18-23.18A13.66,13.66,0,0,0,307.48,27.18Z"/><path class="cls-1" d="M27.18,69.67A13.65,13.65,0,0,0,46.62,50.49H77.16a13.66,13.66,0,1,0,0-27.31H46.62A13.65,13.65,0,0,0,27.18,4L4,27.18A13.66,13.66,0,0,0,4,46.49Z"/></g></g></svg>