<?xml version="1.0" encoding="utf-8"?>
<!-- Generator: Adobe Illustrator 22.0.1, SVG Export Plug-In . SVG Version: 6.00 Build 0)  -->
<svg version="1.1" id="Camada_1" xmlns="http://www.w3.org/2000/svg" xmlns:xlink="http://www.w3.org/1999/xlink" x="0px" y="0px"
	 viewBox="0 0 39.4 89.3" style="enable-background:new 0 0 39.4 89.3;" xml:space="preserve">
<title>info</title>
<g>
	<path d="M36.2,3.1c-2.1-2-4.9-3.1-7.8-3.1c-2.9-0.1-5.8,1-7.9,3.1c-2.1,1.9-3.3,4.6-3.3,7.4c0,2.8,1.2,5.5,3.3,7.3
		c2.1,2,5,3.1,7.9,3c2.9,0.1,5.7-1,7.8-3c2.1-1.9,3.3-4.5,3.3-7.3C39.5,7.6,38.3,4.9,36.2,3.1z"/>
	<path d="M31.3,81.3c-2.4,0-4.1-0.4-5.1-1.2c-1-0.8-1.5-2.3-1.5-4.5c0-1.3,0.2-2.6,0.5-3.8c0.3-1.5,0.6-3,1-4.5l4.7-16.5
		c0.5-1.6,0.8-3.3,0.9-5c0.2-1.8,0.2-3.1,0.2-3.8c0.1-3.2-1.2-6.3-3.6-8.5c-2.4-2.2-5.9-3.3-10.4-3.3c-2.7,0-5.4,0.5-8,1.3
		c-2.8,0.9-5.7,2-8.8,3.2L0,39.8c0.9-0.3,2-0.7,3.3-1.1c1.2-0.4,2.5-0.6,3.7-0.6c2.5,0,4.2,0.5,5,1.3s1.3,2.3,1.3,4.4
		c0,1.3-0.2,2.6-0.4,3.9c-0.3,1.4-0.6,2.9-1.1,4.5L7.2,68.8c-0.4,1.7-0.7,3.3-0.9,4.7c-0.2,1.3-0.3,2.7-0.3,4
		c-0.1,3.2,1.3,6.4,3.7,8.5c2.5,2.2,6,3.3,10.5,3.3c2.6,0.1,5.3-0.3,7.8-1.2c2.3-0.8,5.3-1.9,9-3.4l1.2-5c-1,0.4-2,0.7-3.1,1
		C33.9,81,32.6,81.2,31.3,81.3z"/>
	<path d="M38.3,79.6L38.3,79.6C38.3,79.7,38.3,79.7,38.3,79.6L38.3,79.6z"/>
</g>
</svg>
