<svg xmlns="http://www.w3.org/2000/svg" width="14.006" height="14.007" viewBox="0 0 14.006 14.007">
  <g id="Group_1" data-name="Group 1" transform="translate(-896.285 -2073.558)">
    <path id="Path_4402" data-name="Path 4402" d="M904.061,2077.951a3.385,3.385,0,1,0,3.385,3.385A3.385,3.385,0,0,0,904.061,2077.951Zm0,5.582a2.2,2.2,0,1,1,2.2-2.2A2.2,2.2,0,0,1,904.061,2083.532Z" transform="translate(-0.773 -0.773)" fill="#2fad49"/>
    <g id="Group_1473" data-name="Group 1473" transform="translate(896.285 2073.558)">
      <path id="Path_4403" data-name="Path 4403" d="M903.288,2087.565c-1.787,0-2.024-.008-2.736-.04a5.256,5.256,0,0,1-1.731-.334,3.782,3.782,0,0,1-2.162-2.162,5.253,5.253,0,0,1-.335-1.73c-.032-.714-.04-.95-.04-2.737s.007-2.023.04-2.736a5.281,5.281,0,0,1,.334-1.731,3.787,3.787,0,0,1,2.164-2.162,5.252,5.252,0,0,1,1.729-.334c.712-.032.948-.04,2.737-.04s2.024.009,2.736.04a5.26,5.26,0,0,1,1.73.334,3.784,3.784,0,0,1,2.162,2.162,5.266,5.266,0,0,1,.335,1.73h0c.032.712.04.948.04,2.737s-.008,2.025-.04,2.737a5.283,5.283,0,0,1-.334,1.73,3.788,3.788,0,0,1-2.164,2.163,5.265,5.265,0,0,1-1.729.334C905.311,2087.558,905.074,2087.565,903.288,2087.565Zm0-13.183c-1.771,0-2,.008-2.7.039a4.5,4.5,0,0,0-1.47.279,2.964,2.964,0,0,0-1.693,1.692,4.5,4.5,0,0,0-.279,1.47c-.031.7-.039.93-.039,2.7s.007,2,.039,2.7a4.477,4.477,0,0,0,.279,1.469,2.958,2.958,0,0,0,1.692,1.693,4.484,4.484,0,0,0,1.47.279c.7.031.93.039,2.7.039s2-.007,2.7-.039a4.494,4.494,0,0,0,1.47-.279,2.965,2.965,0,0,0,1.693-1.693,4.5,4.5,0,0,0,.279-1.469c.031-.7.039-.929.039-2.7s-.008-2-.039-2.7h0a4.486,4.486,0,0,0-.279-1.47,2.959,2.959,0,0,0-1.692-1.692,4.493,4.493,0,0,0-1.47-.279C905.29,2074.39,905.058,2074.382,903.288,2074.382Z" transform="translate(-896.285 -2073.558)" fill="#2fad49"/>
    </g>
    <path id="Path_4404" data-name="Path 4404" d="M908.886,2078.41a.791.791,0,1,1,.791-.791A.791.791,0,0,1,908.886,2078.41Z" transform="translate(-2.08 -0.576)" fill="#2fad49" stroke="#2fad49" stroke-miterlimit="10" stroke-width="0.5"/>
  </g>
</svg>
