<?xml version="1.0" encoding="utf-8"?>
<!-- Svg Vector Icons : http://www.onlinewebfonts.com/icon -->
<!DOCTYPE svg PUBLIC "-//W3C//DTD SVG 1.1//EN" "http://www.w3.org/Graphics/SVG/1.1/DTD/svg11.dtd">
<svg version="1.1" xmlns="http://www.w3.org/2000/svg" xmlns:xlink="http://www.w3.org/1999/xlink" x="0px" y="0px" viewBox="0 0 1000 1000" enable-background="new 0 0 1000 1000" xml:space="preserve">
<metadata> Svg Vector Icons : http://www.onlinewebfonts.com/icon </metadata>
<g><path d="M779.9,336.7h-46.6v-93.3C733.3,112.7,630.6,10,499.9,10c-130.6,0-233.3,102.7-233.3,233.4v93.3h-46.7c-51.3,0-93.3,42-93.3,93.3v466.7c0,51.2,42,93.4,93.3,93.4h560c51.3,0,93.4-42.1,93.4-93.4V430C873.4,378.7,831.2,336.7,779.9,336.7 M499.9,756.6c-51.3,0-93.3-42-93.3-93.3c0-51.4,42-93.4,93.3-93.4c51.3,0,93.4,42,93.4,93.4C593.3,714.6,551.2,756.6,499.9,756.6 M644.6,336.7H355.3v-93.3c0-79.4,65.3-144.7,144.6-144.7c79.4,0,144.7,65.3,144.7,144.7V336.7z"/></g>
</svg>