<svg xmlns="http://www.w3.org/2000/svg" xmlns:xlink="http://www.w3.org/1999/xlink" viewBox="0 0 465.2 119.11"><defs><style>.cls-1{fill:none;}.cls-2{fill:#44964c;}.cls-3{clip-path:url(#clip-path);}.cls-4{fill:url(#radial-gradient);}</style><clipPath id="clip-path" transform="translate(0 0)"><path class="cls-1" d="M267.79,68.64c-5.29,6-6.88,10.33-6.88,17,0,16.34,13.63,22.34,15.32,23a84.58,84.58,0,0,0,32-22.31,20.21,20.21,0,0,0-1.23-8.3c-2.6-7.23-9.27-16.5-22.47-16.5-6.79,0-13.22,3.1-16.71,7.08M269,15.5C215.17,45.4,218.31,97,218.31,97s6-16.3,22-31.8c24.65-23.93,43-28.22,43-28.22s-17.15,9.29-38.58,31.79a97.84,97.84,0,0,0-24.29,46.8,117.3,117.3,0,0,0,47-3.82,30.35,30.35,0,0,1-14.39-26.06c0-18.22,15-30.77,31.39-30.77s24.78,11.89,26.22,13.76c2.11,2.76,4,8.25,4.3,9.25,10.27-18,13.18-44.11,14.58-53.28C332.1,8.18,340.85.14,340.85.14S338.79,0,335.22,0c-12,0-41.11,1.59-66.18,15.5"/></clipPath><radialGradient id="radial-gradient" cx="1574.46" cy="-2075.11" r="1.43" gradientTransform="matrix(42.9, 0, 0, -42.9, -67260.39, -88958.21)" gradientUnits="userSpaceOnUse"><stop offset="0" stop-color="#a1cd3c"/><stop offset="0.2" stop-color="#7bae3f"/><stop offset="0.44" stop-color="#568e41"/><stop offset="0.66" stop-color="#3a7843"/><stop offset="0.85" stop-color="#2a6a45"/><stop offset="1" stop-color="#246545"/></radialGradient></defs><g id="Layer_2" data-name="Layer 2"><g id="Layer_1-2" data-name="Layer 1"><path class="cls-2" d="M465.2,99.88q0-7.36-4.39-11.79A17.64,17.64,0,0,0,436.09,88a16.64,16.64,0,0,0,0,23.86,17.58,17.58,0,0,0,24.72-.08,18.3,18.3,0,0,0,2.95-3.79l-5.69-2c-.9,1.1-1.5,1.8-1.81,2.11a10.86,10.86,0,0,1-15.7.07,11.14,11.14,0,0,1-3.32-8.2v-.1ZM448.39,88.36q7.83,0,10,6.23H438.31q2.22-6.23,10.08-6.23M403.48,91a6.61,6.61,0,0,1,4.72-1.94A6.69,6.69,0,0,1,413,91.16a6.9,6.9,0,0,1,2.11,5.17v19.79h6V96.06a12.09,12.09,0,0,0-3.62-8.67,12.62,12.62,0,0,0-9.34-3.55q-4.83,0-6.36,1.67h-6.07v30.61h6.07V93.28A7.43,7.43,0,0,1,403.48,91M380.72,75.6a4.25,4.25,0,0,0-3.11,1.19,3.64,3.64,0,0,0-1.21,2.66,3.7,3.7,0,0,0,1.21,2.73,4.61,4.61,0,0,0,6.18,0A3.71,3.71,0,0,0,385,79.45a3.65,3.65,0,0,0-1.22-2.66,4.25,4.25,0,0,0-3.07-1.19m-3.05,40.52h6V85.51h-6Zm-18.24,0h6.06V67.93h-6.06ZM329.94,91a6.69,6.69,0,0,1,9.54.12,6.9,6.9,0,0,1,2.11,5.17v19.79h6V96.06A12.05,12.05,0,0,0,344,87.39a12.6,12.6,0,0,0-9.34-3.55q-4.82,0-6.36,1.67h-6.06v30.61h6.06V93.28A7.61,7.61,0,0,1,329.94,91m-126,17.07a10.87,10.87,0,0,1-15.71.07,11.13,11.13,0,0,1-3.31-8.2,11.29,11.29,0,0,1,3.31-8.27,10.82,10.82,0,0,1,15.71.06,10.84,10.84,0,0,1,3,5.73v4.89a10.78,10.78,0,0,1-3,5.72m9.1-22.6h-6.06V89.1A11.8,11.8,0,0,0,196,83a16.8,16.8,0,0,0-12.31,5,16.64,16.64,0,0,0,0,23.86,16.74,16.74,0,0,0,12.31,5,11.77,11.77,0,0,0,10.91-6.16v5.36H213Zm-44.62-.63c-3,.93-4.87,2.6-5.76,5V85.51h-6.06v30.61h6.06V100.05a9.94,9.94,0,0,1,2.27-6.68,10.11,10.11,0,0,1,6.43-3.3ZM141.84,113a12.38,12.38,0,0,0,3.68-8.78V85.48h-6.06V104a7,7,0,0,1-2.11,5.17,6.6,6.6,0,0,1-4.79,2.1,6.78,6.78,0,0,1-5-2A7.05,7.05,0,0,1,125.4,104V85.48h-6.06v18.78A12.18,12.18,0,0,0,123,113q3.52,3.56,9.63,3.55a12.49,12.49,0,0,0,9.24-3.48M93.41,85.51v5.23H99.1v25.38h6V90.74h5.69V85.51h-5.69V73.63h-6V85.51Zm-17.66,22.6a10.86,10.86,0,0,1-15.7.07,11.14,11.14,0,0,1-3.32-8.2,11.3,11.3,0,0,1,3.32-8.27,10.81,10.81,0,0,1,15.7.06,10.86,10.86,0,0,1,3,5.73v4.89a10.79,10.79,0,0,1-3,5.72m9.11-22.6H78.8V89.1A11.82,11.82,0,0,0,67.88,83a16.78,16.78,0,0,0-12.3,5,16.64,16.64,0,0,0,0,23.86,16.72,16.72,0,0,0,12.3,5,11.8,11.8,0,0,0,10.92-6.16v5.36h6.06ZM0,67.93v48.19H6.06V78.58l26.76,37.54h6.69V67.93H33.45v38.51L6,67.93Z" transform="translate(0 0)"/><g class="cls-3"><rect class="cls-4" x="215.17" width="125.68" height="119.11"/></g><path class="cls-2" d="M267.67,111.84l8.93-3.1s11.42,4.53,21.87-3.36a23.89,23.89,0,0,0,9.86-19l6.7-8.34s5.11,18-9.51,30.68c-18.36,15.86-37.85,3.1-37.85,3.1" transform="translate(0 0)"/></g></g></svg>