<?xml version="1.0" encoding="utf-8"?>
<!-- Generator: Adobe Illustrator 21.1.0, SVG Export Plug-In . SVG Version: 6.00 Build 0)  -->
<svg version="1.1" id="Camada_1" xmlns="http://www.w3.org/2000/svg" xmlns:xlink="http://www.w3.org/1999/xlink" x="0px" y="0px"
	 viewBox="0 0 31.4 35" style="enable-background:new 0 0 31.4 35;" xml:space="preserve">
<title>logout</title>
<g>
	<path d="M15.6,17.2C15.7,17.2,15.7,17.2,15.6,17.2c0.6,0,1.1-0.5,1.1-1.1V1.1c0-0.5-0.4-1-1-1.1h-0.2c-0.6,0-1,0.5-1,1.1v15.1
		C14.6,16.7,15,17.2,15.6,17.2z"/>
	<path d="M20.1,4.2c-0.5-0.3-1.2-0.1-1.5,0.4c-0.3,0.5-0.1,1.2,0.4,1.5c0.1,0.1,0.3,0.1,0.4,0.1c7.2,2.1,11.3,9.6,9.2,16.8
		c-2.1,7.2-9.6,11.3-16.8,9.2c-7.2-2.1-11.3-9.6-9.2-16.8C4,11,7.4,7.5,11.9,6.2c0.6,0,1-0.6,1-1.1s-0.6-1-1.1-1
		c-0.2,0-0.3,0.1-0.4,0.1c-3.2,0.9-6,2.9-8.1,5.6C1.1,12.5,0,15.9,0,19.3C0,28,7,35,15.7,35c8.7,0,15.7-7,15.7-15.7
		c0-3.4-1.1-6.8-3.2-9.5C26.1,7.1,23.3,5.2,20.1,4.2z"/>
</g>
</svg>
