<svg id="Group_20" data-name="Group 20" xmlns="http://www.w3.org/2000/svg" width="13.963" height="13.983" viewBox="0 0 13.963 13.983">
  <path id="Path_8" data-name="Path 8" d="M2052.589,709.179a1.377,1.377,0,0,0-1-.457,1.42,1.42,0,0,0-1.009.454l-.933.93c-.077-.041-.153-.08-.227-.118-.106-.053-.206-.1-.292-.156a10.142,10.142,0,0,1-2.429-2.214,5.98,5.98,0,0,1-.8-1.257c.242-.221.466-.452.685-.673l.248-.251a1.354,1.354,0,0,0,0-2.042l-.806-.806c-.091-.091-.186-.186-.274-.28-.177-.183-.363-.372-.555-.549a1.394,1.394,0,0,0-.988-.434,1.444,1.444,0,0,0-1,.434l-.006.006-1,1.013a2.159,2.159,0,0,0-.641,1.372,5.187,5.187,0,0,0,.378,2.19,12.708,12.708,0,0,0,2.258,3.766,13.881,13.881,0,0,0,4.625,3.621,7.2,7.2,0,0,0,2.6.767c.062,0,.126.006.186.006a2.223,2.223,0,0,0,1.7-.732c0-.006.009-.008.011-.014a6.731,6.731,0,0,1,.517-.534c.126-.121.256-.248.383-.381a1.472,1.472,0,0,0,.445-1.021,1.418,1.418,0,0,0-.454-1.012Zm1.057,3.108s0,0,0,0c-.115.124-.234.236-.36.36a7.607,7.607,0,0,0-.57.591,1.426,1.426,0,0,1-1.11.469c-.044,0-.091,0-.136,0a6.4,6.4,0,0,1-2.3-.691,13.1,13.1,0,0,1-4.356-3.412,11.971,11.971,0,0,1-2.125-3.539,4.214,4.214,0,0,1-.331-1.848,1.353,1.353,0,0,1,.407-.876l1.006-1.007a.672.672,0,0,1,.449-.21.632.632,0,0,1,.431.207l.009.009c.18.168.351.342.531.528.092.095.186.189.28.287l.806.806a.564.564,0,0,1,0,.915c-.085.085-.168.171-.254.253-.248.254-.484.49-.74.72a.077.077,0,0,0-.015.014.6.6,0,0,0-.154.67l.01.027a6.439,6.439,0,0,0,.953,1.555l0,0a10.838,10.838,0,0,0,2.621,2.385,4.043,4.043,0,0,0,.363.2c.107.053.207.1.293.157l.035.021a.641.641,0,0,0,.292.074.632.632,0,0,0,.448-.2l1.01-1.009a.668.668,0,0,1,.446-.221.6.6,0,0,1,.425.215l1.632,1.632a.583.583,0,0,1,0,.924Zm0,0" transform="translate(-2041.547 -700.517)" fill="#2fad49"/>
  <path id="Path_9" data-name="Path 9" d="M2057.336,705.815a3.8,3.8,0,0,1,3.093,3.093.4.4,0,0,0,.393.331.472.472,0,0,0,.068-.006.4.4,0,0,0,.327-.46,4.594,4.594,0,0,0-3.742-3.742.4.4,0,0,0-.46.325.394.394,0,0,0,.322.461Zm0,0" transform="translate(-2049.789 -702.488)" fill="#2fad49"/>
  <path id="Path_10" data-name="Path 10" d="M2063.875,705.762a7.562,7.562,0,0,0-6.162-6.163.4.4,0,1,0-.13.785,6.755,6.755,0,0,1,5.507,5.507.4.4,0,0,0,.393.331.481.481,0,0,0,.068-.006.391.391,0,0,0,.324-.454Zm0,0" transform="translate(-2049.918 -699.593)" fill="#2fad49"/>
</svg>
