<?xml version="1.0" encoding="utf-8"?>
<!-- Generator: Adobe Illustrator 23.0.0, SVG Export Plug-In . SVG Version: 6.00 Build 0)  -->
<svg version="1.1" id="Camada_1" xmlns="http://www.w3.org/2000/svg" xmlns:xlink="http://www.w3.org/1999/xlink" x="0px" y="0px"
	 viewBox="0 0 101 40" style="enable-background:new 0 0 101 40;" xml:space="preserve">
<path d="M32.1,17.6c-0.1-0.1-0.3-0.2-0.5-0.3c-0.3,0-0.6-0.1-0.9,0h-0.5V21H31c0.2,0,0.4,0,0.7,0c0.2,0,0.3-0.1,0.5-0.2
	c0.1-0.1,0.2-0.3,0.3-0.5c0.1-0.3,0.1-0.7,0.1-1c0-0.3,0-0.7-0.1-1C32.4,18,32.3,17.8,32.1,17.6z"/>
<path d="M18.7,18.4c0.1-0.1,0.1-0.3,0.1-0.4c0-0.3-0.2-0.6-0.6-0.7c-0.1,0-0.4,0-0.8,0h-0.9v1.4h0.8c0.3,0,0.7,0,1-0.1
	C18.6,18.7,18.7,18.6,18.7,18.4z"/>
<path d="M20,0C9,0,0,9,0,20c0,11,9,20,20,20s20-9,20-20C40,9,31,0,20,0z M7.5,21.9H3.6v-5.4h1.1V21h2.8L7.5,21.9z M9.3,21.9H8.2
	v-5.5h1.1V21.9z M13,21.9h-1.2l-2-5.5H11l1.4,4.1l1.3-4.1h1.2L13,21.9z M19.1,21.9l-0.8-1.2c-0.2-0.3-0.4-0.5-0.6-0.8
	c-0.1-0.1-0.2-0.2-0.3-0.2c-0.2,0-0.4-0.1-0.6-0.1h-0.2v2.3h-1.1v-5.5h2.3c0.4,0,0.9,0,1.3,0.2c0.3,0.1,0.5,0.3,0.6,0.5
	c0.2,0.3,0.3,0.6,0.2,0.9c0,0.4-0.1,0.7-0.4,1c-0.3,0.3-0.7,0.5-1.1,0.5c0.2,0.1,0.4,0.3,0.6,0.5c0.2,0.3,0.4,0.6,0.6,0.9l0.7,1.1
	L19.1,21.9z M25.4,21.2c-0.5,0.5-1.2,0.8-1.9,0.8c-0.7,0-1.4-0.2-1.9-0.8c-0.5-0.5-0.8-1.3-0.7-2c0-0.5,0.1-1,0.2-1.4
	c0.1-0.3,0.3-0.5,0.5-0.7c0.2-0.2,0.4-0.4,0.7-0.5c0.4-0.1,0.8-0.2,1.2-0.2c0.7,0,1.4,0.2,1.9,0.8c0.5,0.6,0.8,1.3,0.7,2.1
	C26.2,20,25.9,20.7,25.4,21.2z M33.5,20.4c-0.1,0.4-0.3,0.7-0.6,1c-0.2,0.2-0.5,0.4-0.8,0.4c-0.3,0.1-0.7,0.1-1,0.1h-2v-5.5h2
	c0.3,0,0.7,0,1,0.1c0.3,0.1,0.6,0.2,0.9,0.5c0.2,0.2,0.4,0.5,0.5,0.9c0.1,0.4,0.2,0.9,0.2,1.3C33.7,19.6,33.7,20,33.5,20.4z
	 M34.7,16.4h4.1v0.9h-3v1.2h2.8v0.9h-2.7V21h3v0.9h-4.2L34.7,16.4z"/>
<path d="M23.5,17.3c-0.4,0-0.8,0.2-1.1,0.5c-0.3,0.4-0.4,0.9-0.4,1.4c0,0.5,0.1,1,0.4,1.4c0.3,0.3,0.7,0.5,1.1,0.5
	c0.4,0,0.8-0.2,1.1-0.5c0.3-0.4,0.4-0.9,0.4-1.4c0-0.5-0.1-1-0.4-1.4C24.3,17.4,23.9,17.2,23.5,17.3z"/>
<path d="M45.5,19.9c-0.2-0.2-0.4-0.3-0.6-0.5c0.4,0,0.8-0.2,1-0.5c0.2-0.3,0.4-0.6,0.4-1c0-0.3-0.1-0.6-0.2-0.9
	c-0.1-0.2-0.4-0.4-0.6-0.5c-0.4-0.1-0.8-0.2-1.3-0.2h-2.3v5.5H43v-2.3h0.2c0.2,0,0.4,0,0.6,0.1c0.1,0.1,0.2,0.1,0.3,0.2
	c0.2,0.3,0.4,0.5,0.6,0.8l0.8,1.2h1.3l-0.7-1.1C46,20.5,45.8,20.2,45.5,19.9z M43.8,18.7L43.8,18.7l-0.8,0v-1.4h0.9
	c0.3,0,0.5,0,0.8,0c0.2,0,0.3,0.1,0.4,0.2c0.1,0.1,0.2,0.3,0.1,0.5c0,0.1,0,0.3-0.1,0.4c-0.1,0.1-0.2,0.2-0.3,0.2
	C44.5,18.7,44.1,18.7,43.8,18.7z"/>
<polygon points="48.5,19.5 51.3,19.5 51.3,18.5 48.5,18.5 48.5,17.3 51.5,17.3 51.5,16.4 47.4,16.4 47.4,21.9 51.6,21.9 51.6,21 
	48.5,21 "/>
<path d="M53.8,17.7c0.2-0.3,0.6-0.5,1-0.4c0.3,0,0.5,0.1,0.8,0.2c0.2,0.2,0.3,0.4,0.4,0.7l1.1-0.3c-0.1-0.4-0.3-0.7-0.6-1
	c-0.4-0.4-1-0.6-1.6-0.6c-0.7,0-1.4,0.2-1.9,0.8c-0.5,0.6-0.8,1.3-0.7,2.1c0,0.7,0.2,1.4,0.7,2c0.9,0.9,2.2,1,3.2,0.3
	c0.4-0.3,0.7-0.8,0.8-1.3L56,19.8c0,0.3-0.2,0.7-0.4,0.9c-0.2,0.2-0.5,0.3-0.8,0.3c-0.4,0-0.8-0.1-1-0.4c-0.3-0.4-0.4-1-0.4-1.5
	C53.4,18.6,53.6,18.1,53.8,17.7z"/>
<polygon points="59.2,16.4 58.1,16.4 58.1,21.9 62,21.9 62,21 59.2,21 "/>
<path d="M64.3,16.4l-2.1,5.5h1.2l0.5-1.2H66l0.5,1.2h1.2l-2.2-5.5H64.3z M64.2,19.7l0.7-2l0.8,2H64.2z"/>
<polygon points="70.9,20.1 69.9,16.4 68.3,16.4 68.3,21.9 69.3,21.9 69.3,17.6 70.4,21.9 71.5,21.9 72.5,17.6 72.5,21.9 73.6,21.9 
	73.6,16.4 71.9,16.4 "/>
<path d="M76.2,16.4l-2.1,5.5h1.2l0.5-1.2h2.2l0.5,1.2h1.2l-2.2-5.5H76.2z M76.1,19.7l0.7-2l0.8,2H76.1z"/>
<path d="M83.2,20.8C83,20.9,82.8,21,82.5,21c-0.4,0-0.8-0.1-1-0.4c-0.3-0.4-0.4-1-0.4-1.5c0-0.5,0.1-1,0.4-1.4
	c0.2-0.3,0.6-0.5,1-0.4c0.3,0,0.5,0.1,0.8,0.2c0.2,0.2,0.3,0.4,0.4,0.7l1.1-0.3c-0.1-0.4-0.3-0.7-0.6-1c-0.4-0.4-1-0.6-1.6-0.6
	c-0.7,0-1.4,0.2-1.9,0.8c-0.5,0.6-0.7,1.3-0.7,2.1c0,0.7,0.2,1.4,0.7,2c0.4,0.4,0.9,0.7,1.4,0.7c-0.1,0-0.2,0-0.3,0.1l-0.1,0.4
	c0.2,0,0.3-0.1,0.5-0.1c0.1,0,0.3,0,0.4,0.1c0.1,0,0.1,0.1,0.1,0.2c0,0.1,0,0.2-0.1,0.2c-0.1,0.1-0.3,0.1-0.5,0.1
	c-0.2,0-0.5,0-0.7,0v0.4c0.2,0,0.5,0.1,0.7,0.1c0.4,0,0.7-0.1,1-0.3c0.2-0.1,0.3-0.3,0.3-0.5c0-0.2-0.1-0.4-0.2-0.5
	C83,22.1,82.9,22,82.7,22c0.5,0,0.9-0.1,1.3-0.4c0.4-0.3,0.7-0.8,0.8-1.3l-1.1-0.3C83.7,20.2,83.5,20.5,83.2,20.8z"/>
<path d="M87.3,15.9c0-0.1,0.1-0.1,0.2-0.1c0.2,0,0.3,0.1,0.5,0.1l0.4,0.2c0.1,0,0.2,0,0.2,0c0.2,0,0.4-0.1,0.5-0.2
	c0.1-0.2,0.2-0.5,0.2-0.7h-0.5c0,0.1,0,0.2-0.1,0.2c0,0.1-0.1,0.1-0.2,0.1c-0.2,0-0.3-0.1-0.5-0.1c-0.1-0.1-0.3-0.1-0.4-0.2h-0.2
	c-0.2,0-0.4,0.1-0.5,0.2c-0.1,0.2-0.2,0.4-0.2,0.6v0.1l0.5,0C87.3,16,87.3,15.9,87.3,15.9z"/>
<path d="M88.2,16.3c-0.4,0-0.8,0.1-1.2,0.2c-0.3,0.1-0.5,0.3-0.7,0.5c-0.2,0.2-0.4,0.5-0.5,0.8c-0.2,0.4-0.3,0.9-0.2,1.4
	c0,0.8,0.2,1.5,0.7,2.1c1.1,1,2.8,1,3.9,0c0.5-0.6,0.8-1.3,0.7-2.1c0-0.8-0.2-1.5-0.7-2.1C89.6,16.6,88.9,16.3,88.2,16.3z
	 M89.3,20.6c-0.5,0.6-1.5,0.6-2.1,0.1c0,0,0,0,0,0l-0.1-0.1c-0.3-0.4-0.5-0.9-0.4-1.4c0-0.5,0.1-1,0.4-1.4c0.3-0.3,0.7-0.5,1.1-0.5
	c0.4,0,0.8,0.1,1.1,0.5c0.3,0.4,0.4,0.9,0.4,1.4C89.7,19.7,89.6,20.2,89.3,20.6z"/>
<polygon points="92.8,19.5 95.6,19.5 95.6,18.5 92.8,18.5 92.8,17.3 95.8,17.3 95.8,16.4 91.7,16.4 91.7,21.9 95.9,21.9 95.9,21 
	92.8,21 "/>
<path d="M100.8,19.4c-0.1-0.2-0.4-0.4-0.6-0.6c-0.4-0.2-0.8-0.3-1.2-0.4c-0.4-0.1-0.7-0.2-1-0.4c-0.1-0.1-0.2-0.2-0.2-0.3
	c0-0.1,0.1-0.3,0.2-0.3c0.2-0.1,0.5-0.2,0.8-0.2c0.3,0,0.5,0.1,0.7,0.2c0.2,0.2,0.3,0.4,0.3,0.6l1.1,0c0-0.5-0.2-0.9-0.5-1.2
	c-0.4-0.3-1-0.5-1.6-0.5c-0.4,0-0.7,0.1-1.1,0.2c-0.3,0.1-0.5,0.3-0.7,0.6c-0.2,0.2-0.2,0.5-0.2,0.8c0,0.4,0.2,0.8,0.5,1.1
	c0.4,0.3,0.8,0.5,1.2,0.5l0.9,0.2c0.1,0,0.3,0.1,0.4,0.2c0.1,0.1,0.1,0.2,0.1,0.3c0,0.2-0.1,0.4-0.3,0.5c-0.2,0.2-0.5,0.3-0.8,0.2
	c-0.3,0-0.6-0.1-0.8-0.3c-0.2-0.2-0.4-0.5-0.4-0.8l-1.1,0.1c0,0.5,0.3,1,0.7,1.4c0.5,0.3,1,0.5,1.6,0.5c0.4,0,0.8-0.1,1.2-0.2
	c0.3-0.1,0.6-0.3,0.7-0.6C101.1,20.7,101.1,20,100.8,19.4L100.8,19.4z"/>
</svg>
