<svg xmlns="http://www.w3.org/2000/svg" viewBox="0 0 2078.15 712.14"><defs><style>.cls-1,.cls-2{fill:none;}.cls-2{stroke:#000;stroke-miterlimit:10;stroke-width:40px;}</style></defs><title>show_hide</title><g id="Camada_2" data-name="Camada 2"><g id="Camada_1-2" data-name="Camada 1"><path d="M936.52,361.75c-7.1,9-14.7,17.7-22.4,26.2q-29.55,32.85-62.2,62.6c-14.4,13.2-29.1,25.9-44.3,38.2-4,3.2-8,6.4-12,9.5-3.4,2.6,4.6-3.5,1.2-.9-1,.8-2,1.5-3,2.3-2.2,1.7-4.4,3.3-6.6,4.9-8.8,6.6-17.7,13-26.8,19.2-18.7,12.8-38,24.8-57.8,35.7-10.3,5.7-20.8,11.1-31.4,16.1-5.3,2.5-10.5,4.9-15.9,7.3-1.3.6-2.6,1.1-3.9,1.7-.9.4-5.5,2.4-1.5.6s-.6.2-1.5.6c-1.7.7-3.5,1.4-5.2,2.1a482.54,482.54,0,0,1-68.2,21.7q-17.85,4.2-36,6.9c-1,.2-6.2.9-1.6.2s-.6.1-1.6.2c-3.1.4-6.2.7-9.4,1-6,.6-12.1,1-18.2,1.3-12.5.6-25,.6-37.4,0-6.1-.3-12.1-.8-18.2-1.4l-8.6-.9c-1-.1-6.2-.8-1.6-.2s-2.1-.3-3-.5a444.9,444.9,0,0,1-70.2-16.6c-11.2-3.6-22.3-7.6-33.2-12-1.5-.6-3-1.2-4.6-1.9-.9-.4-5.6-2.3-1.5-.6s-.5-.2-1.5-.6c-1.5-.6-3-1.3-4.5-2-5.3-2.4-10.6-4.8-15.9-7.3a639,639,0,0,1-60.7-33.4c-18.9-11.7-37.3-24.4-55.2-37.7-2-1.5-4-3-6-4.6-1-.8-2-1.5-3-2.3-3.1-2.4,4.9,3.8.7.6-4-3.1-8-6.3-12-9.5-7.8-6.3-15.5-12.7-23.1-19.3a938.26,938.26,0,0,1-71.2-68.4c-11.3-12-22.3-24.3-32.7-37.2-.5-.6-.9-1.2-1.4-1.8v36c7.1-9,14.7-17.7,22.4-26.2q29.55-32.85,62.2-62.6c14.4-13.2,29.1-25.9,44.3-38.2,4-3.2,8-6.4,12-9.5,3.4-2.6-4.6,3.5-1.2.9,1-.8,2-1.5,3-2.3,2.2-1.7,4.4-3.3,6.6-4.9,8.8-6.6,17.7-13,26.8-19.2,18.7-12.8,38-24.8,57.8-35.7,10.3-5.7,20.8-11.1,31.4-16.1,5.3-2.5,10.5-4.9,15.9-7.3,1.3-.6,2.6-1.1,3.9-1.7.9-.4,5.5-2.4,1.5-.6s.6-.2,1.5-.6c1.7-.7,3.5-1.4,5.2-2.1a482.55,482.55,0,0,1,68.2-21.7q17.85-4.2,36-6.9c1-.2,6.2-.9,1.6-.2s.6-.1,1.6-.2c3.1-.4,6.2-.7,9.4-1,6-.6,12.1-1,18.2-1.3,12.5-.6,25-.6,37.4,0,6.1.3,12.1.8,18.2,1.4l8.6.9c1,.1,6.2.8,1.6.2s2.1.3,3,.5a444.9,444.9,0,0,1,70.2,16.6c11.2,3.6,22.3,7.6,33.2,12,1.5.6,3,1.2,4.6,1.9.9.4,5.6,2.3,1.5.6s.5.2,1.5.6c1.5.6,3,1.3,4.5,2,5.3,2.4,10.6,4.8,15.9,7.3a639,639,0,0,1,60.7,33.4c18.9,11.7,37.3,24.4,55.2,37.7,2,1.5,4,3,6,4.6,1,.8,2,1.5,3,2.3,3.1,2.4-4.9-3.8-.7-.6,4,3.1,8,6.3,12,9.5,7.8,6.3,15.5,12.7,23.1,19.3a938.26,938.26,0,0,1,71.2,68.4c11.3,12,22.3,24.3,32.7,37.2.5.6.9,1.2,1.4,1.8,3.7,4.8,12.3,7.5,18,7.5,6.2,0,13.7-2.8,18-7.5,4.5-4.9,7.8-11.2,7.5-18-.3-7.2-3.1-12.4-7.5-18-7.2-9.2-15-18-22.8-26.7q-30.3-33.6-63.7-64a912.93,912.93,0,0,0-101.4-80.4,664.25,664.25,0,0,0-128.3-68.5c-47.1-18.8-97.2-30.4-147.9-32.9-51-2.5-102.7,5.5-151.3,21-46.9,15-91.7,36.5-133.6,62.3-38.3,23.6-74.4,50.7-108.5,80A932.88,932.88,0,0,0,42.42,322c-11.6,12.3-22.9,24.9-33.5,38-.5.6-.9,1.2-1.4,1.8-4.2,5.3-7.8,10.9-7.5,18s3.1,12.4,7.5,18c7.2,9.2,15,18,22.8,26.7q30.3,33.6,63.7,64a912.94,912.94,0,0,0,101.4,80.4,664.25,664.25,0,0,0,128.3,68.5c47.1,18.8,97.2,30.4,147.9,32.9,51,2.5,102.7-5.5,151.3-21,46.9-15,91.7-36.5,133.6-62.3,38.3-23.6,74.4-50.7,108.5-80a932.86,932.86,0,0,0,72.6-69.4c11.6-12.3,22.9-24.9,33.5-38,.5-.6.9-1.2,1.4-1.8,4.3-5.5,7.5-10.7,7.5-18,0-6.2-2.8-13.7-7.5-18C963.42,353.35,945.32,350.55,936.52,361.75Z"/><path d="M597.22,379.75q0,4.8-.3,9.6c-.1,1.7-.3,3.4-.5,5.1-.1.9-.5,3.6.1-.5.6-4.7-.1.2-.2.9a135.64,135.64,0,0,1-4.6,18.8c-.9,2.9-2,5.8-3.1,8.6-1.6,4.1,2.4-5.2.1-.3-.8,1.7-1.6,3.4-2.4,5a137.48,137.48,0,0,1-9.7,16.1c-.7,1-4,5.3-1.3,1.9s-.4.4-1,1.2a102.12,102.12,0,0,1-6.9,7.7c-2.1,2.2-4.3,4.2-6.5,6.3-1.2,1.1-2.4,2.1-3.7,3.2-.8.7-5.2,4.2-1.8,1.5s-.9.6-1.9,1.3-2.3,1.6-3.4,2.3q-4.35,2.85-9,5.4c-2.7,1.5-5.4,2.8-8.1,4.1-.6.3-1.3.6-1.9.9-2.4,1.2,3.1-1.3,2.9-1.2-1.8.6-3.5,1.4-5.3,2a130.61,130.61,0,0,1-19.2,5.4c-1.4.3-2.8.5-4.3.8a25.36,25.36,0,0,1-2.9.4c-.3.1,6-.7,3.2-.4-3.4.3-6.8.7-10.3.8a159.23,159.23,0,0,1-20.7-.8c-2.8-.2,3.5.5,3.2.4l-2.2-.3-5-.9c-3.3-.7-6.5-1.4-9.8-2.3s-6.3-1.9-9.5-3c-1.3-.5-2.6-1-4-1.5-.8-.3-3.2-1.3.4.2,4.1,1.7.1,0-.8-.4a132.6,132.6,0,0,1-16.5-9.1c-2.5-1.6-4.8-3.7-7.4-5.2,6.2,3.6,2,1.5.3.1l-4.2-3.6a138.17,138.17,0,0,1-13-13.5c-.7-.9-4.1-5.2-1.5-1.8,2.8,3.6-.8-1.2-1.3-1.9-1.9-2.7-3.6-5.4-5.3-8.2-1.6-2.6-3-5.2-4.4-7.9-.7-1.5-1.5-2.9-2.2-4.4a16.32,16.32,0,0,0-.9-1.9c-1.5-2.8,2,5.1.9,2.2a180.84,180.84,0,0,1-6.1-18.9c-.7-3-1.4-6.1-1.9-9.2l-.3-2.1c-.5-3.3.7,5.8.3,2.4-.2-1.7-.4-3.4-.5-5.1a143,143,0,0,1,0-20.7c.1-1.5.3-2.9.4-4.4.4-4.4-1,6,0,.3.5-3.3,1.2-6.6,2-9.9,1.6-6.5,3.9-12.6,6.1-18.9.9-2.6-1.3,3.1-1.2,2.8a20.62,20.62,0,0,0,1.2-2.6c.6-1.3,1.2-2.5,1.8-3.8,1.5-2.9,3-5.8,4.7-8.6s3.4-5.5,5.3-8.2c.8-1.1,1.8-2.2,2.5-3.4-.1.3-4,5-1.4,1.9l1.8-2.1a127.38,127.38,0,0,1,13-13.5c1.2-1.1,2.4-2.1,3.7-3.2.8-.7,5.4-4.3,1.8-1.5-3.4,2.7.5-.3,1.3-.9,1.5-1.1,3-2.1,4.6-3.1a132.6,132.6,0,0,1,16.5-9.1c.8-.4,1.8-.7,2.6-1.2.2-.1-5.4,2.1-2.8,1.2,1.5-.6,3.1-1.2,4.6-1.8,3.1-1.1,6.3-2.2,9.5-3,3-.8,6-1.6,9-2.2,1.7-.3,3.3-.7,5-.9l2.1-.3c3.1-.5-6.9.7-1.7.3a148.59,148.59,0,0,1,20-.7c3.2.1,6.4.4,9.5.7,4.5.4-5.9-.9-.3,0l5,.9a127.22,127.22,0,0,1,19.2,5.4c1.5.6,3.1,1.2,4.6,1.8,2.6.9-3.1-1.3-2.8-1.2a16.31,16.31,0,0,0,1.9.9c3.2,1.5,6.3,3,9.4,4.7,2.6,1.5,5.2,3,7.8,4.7,1.2.8,2.3,1.5,3.5,2.3.8.6,6,4.5,2.5,1.7s1.1.9,1.8,1.5c1.1.9,2.1,1.8,3.1,2.7,2.4,2.2,4.8,4.4,7,6.7s4.4,4.7,6.5,7.2c.9,1.1,1.7,2.2,2.6,3.2-.2-.2-3.8-5.2-1.5-1.8.5.8,1.1,1.5,1.6,2.3a134.07,134.07,0,0,1,10,16.7c.6,1.3,1.2,2.5,1.8,3.8.4.8.7,1.8,1.2,2.6.1.2-2.1-5.4-1.2-2.8,1.1,3.1,2.4,6.2,3.4,9.3a131.81,131.81,0,0,1,4.7,19.5c.1.7.2,1.4.3,2.2.1.3-.7-6-.4-3.2.1,1.7.4,3.4.5,5.1.2,3.5.3,6.9.3,10.4.1,13.3,11.7,26.1,25.5,25.5s25.6-11.2,25.5-25.5c-.2-31.9-9.7-64.3-28.4-90.3a163.31,163.31,0,0,0-76.9-58.7c-60.2-22.3-132.8-2.7-173.6,47a163.14,163.14,0,0,0-37,91c-2.6,32,5.6,65.4,22.2,92.7,15.9,26.3,40,48.7,68.1,61.4,31.8,14.4,66.1,18.6,100.4,11.7,61.5-12.3,113.1-65.2,122.7-127.4a192.39,192.39,0,0,0,2.5-27.3c.1-13.3-11.8-26.1-25.5-25.5C608.82,354.85,597.32,365.45,597.22,379.75Z"/><path d="M2034.63,367.75c-7.1,9-14.7,17.7-22.4,26.2q-29.55,32.85-62.2,62.6c-14.4,13.2-29.1,25.9-44.3,38.2-4,3.2-8,6.4-12,9.5-3.4,2.6,4.6-3.5,1.2-.9-1,.8-2,1.5-3,2.3-2.2,1.7-4.4,3.3-6.6,4.9-8.8,6.6-17.7,13-26.8,19.2-18.7,12.8-38,24.8-57.8,35.7-10.3,5.7-20.8,11.1-31.4,16.1-5.3,2.5-10.5,4.9-15.9,7.3-1.3.6-2.6,1.1-3.9,1.7-.9.4-5.5,2.4-1.5.6s-.6.2-1.5.6c-1.7.7-3.5,1.4-5.2,2.1a482.54,482.54,0,0,1-68.2,21.7q-17.85,4.2-36,6.9c-1,.2-6.2.9-1.6.2s-.6.1-1.6.2c-3.1.4-6.2.7-9.4,1-6,.6-12.1,1-18.2,1.3-12.5.6-25,.6-37.4,0-6.1-.3-12.1-.8-18.2-1.4l-8.6-.9c-1-.1-6.2-.8-1.6-.2s-2.1-.3-3-.5a444.9,444.9,0,0,1-70.2-16.6c-11.2-3.6-22.3-7.6-33.2-12-1.5-.6-3-1.2-4.6-1.9-.9-.4-5.6-2.3-1.5-.6s-.5-.2-1.5-.6c-1.5-.6-3-1.3-4.5-2-5.3-2.4-10.6-4.8-15.9-7.3a639,639,0,0,1-60.7-33.4c-18.9-11.7-37.3-24.4-55.2-37.7-2-1.5-4-3-6-4.6-1-.8-2-1.5-3-2.3-3.1-2.4,4.9,3.8.7.6-4-3.1-8-6.3-12-9.5-7.8-6.3-15.5-12.7-23.1-19.3a938.26,938.26,0,0,1-71.2-68.4c-11.3-12-22.3-24.3-32.7-37.2-.5-.6-.9-1.2-1.4-1.8v36c7.1-9,14.7-17.7,22.4-26.2q29.55-32.85,62.2-62.6c14.4-13.2,29.1-25.9,44.3-38.2,4-3.2,8-6.4,12-9.5,3.4-2.6-4.6,3.5-1.2.9,1-.8,2-1.5,3-2.3,2.2-1.7,4.4-3.3,6.6-4.9,8.8-6.6,17.7-13,26.8-19.2,18.7-12.8,38-24.8,57.8-35.7,10.3-5.7,20.8-11.1,31.4-16.1,5.3-2.5,10.5-4.9,15.9-7.3,1.3-.6,2.6-1.1,3.9-1.7.9-.4,5.5-2.4,1.5-.6s.6-.2,1.5-.6c1.7-.7,3.5-1.4,5.2-2.1a482.55,482.55,0,0,1,68.2-21.7q17.85-4.2,36-6.9c1-.2,6.2-.9,1.6-.2s.6-.1,1.6-.2c3.1-.4,6.2-.7,9.4-1,6-.6,12.1-1,18.2-1.3,12.5-.6,25-.6,37.4,0,6.1.3,12.1.8,18.2,1.4l8.6.9c1,.1,6.2.8,1.6.2s2.1.3,3,.5a444.9,444.9,0,0,1,70.2,16.6c11.2,3.6,22.3,7.6,33.2,12,1.5.6,3,1.2,4.6,1.9.9.4,5.6,2.3,1.5.6s.5.2,1.5.6c1.5.6,3,1.3,4.5,2,5.3,2.4,10.6,4.8,15.9,7.3a639,639,0,0,1,60.7,33.4c18.9,11.7,37.3,24.4,55.2,37.7,2,1.5,4,3,6,4.6,1,.8,2,1.5,3,2.3,3.1,2.4-4.9-3.8-.7-.6,4,3.1,8,6.3,12,9.5,7.8,6.3,15.5,12.7,23.1,19.3a938.26,938.26,0,0,1,71.2,68.4c11.3,12,22.3,24.3,32.7,37.2.5.6.9,1.2,1.4,1.8,3.7,4.8,12.3,7.5,18,7.5,6.2,0,13.7-2.8,18-7.5,4.5-4.9,7.8-11.2,7.5-18-.3-7.2-3.1-12.4-7.5-18-7.2-9.2-15-18-22.8-26.7q-30.3-33.6-63.7-64a912.93,912.93,0,0,0-101.4-80.4,664.25,664.25,0,0,0-128.3-68.5c-47.1-18.8-97.2-30.4-147.9-32.9-51-2.5-102.7,5.5-151.3,21-46.9,15-91.7,36.5-133.6,62.3-38.3,23.6-74.4,50.7-108.5,80a932.88,932.88,0,0,0-72.6,69.4c-11.6,12.3-22.9,24.9-33.5,38-.5.6-.9,1.2-1.4,1.8-4.2,5.3-7.8,10.9-7.5,18s3.1,12.4,7.5,18c7.2,9.2,15,18,22.8,26.7q30.3,33.6,63.7,64a912.94,912.94,0,0,0,101.4,80.4,664.25,664.25,0,0,0,128.3,68.5c47.1,18.8,97.2,30.4,147.9,32.9,51,2.5,102.7-5.5,151.3-21,46.9-15,91.7-36.5,133.6-62.3,38.3-23.6,74.4-50.7,108.5-80a932.86,932.86,0,0,0,72.6-69.4c11.6-12.3,22.9-24.9,33.5-38,.5-.6.9-1.2,1.4-1.8,4.3-5.5,7.5-10.7,7.5-18,0-6.2-2.8-13.7-7.5-18C2061.53,359.35,2043.43,356.55,2034.63,367.75Z"/><path d="M1695.33,385.75q0,4.8-.3,9.6c-.1,1.7-.3,3.4-.5,5.1-.1.9-.5,3.6.1-.5.6-4.7-.1.2-.2.9a135.64,135.64,0,0,1-4.6,18.8c-.9,2.9-2,5.8-3.1,8.6-1.6,4.1,2.4-5.2.1-.3-.8,1.7-1.6,3.4-2.4,5a137.48,137.48,0,0,1-9.7,16.1c-.7,1-4,5.3-1.3,1.9s-.4.4-1,1.2a102.12,102.12,0,0,1-6.9,7.7c-2.1,2.2-4.3,4.2-6.5,6.3-1.2,1.1-2.4,2.1-3.7,3.2-.8.7-5.2,4.2-1.8,1.5s-.9.6-1.9,1.3-2.3,1.6-3.4,2.3q-4.35,2.85-9,5.4c-2.7,1.5-5.4,2.8-8.1,4.1-.6.3-1.3.6-1.9.9-2.4,1.2,3.1-1.3,2.9-1.2-1.8.6-3.5,1.4-5.3,2a130.61,130.61,0,0,1-19.2,5.4c-1.4.3-2.8.5-4.3.8a25.36,25.36,0,0,1-2.9.4c-.3.1,6-.7,3.2-.4-3.4.3-6.8.7-10.3.8a159.23,159.23,0,0,1-20.7-.8c-2.8-.2,3.5.5,3.2.4l-2.2-.3-5-.9c-3.3-.7-6.5-1.4-9.8-2.3s-6.3-1.9-9.5-3c-1.3-.5-2.6-1-4-1.5-.8-.3-3.2-1.3.4.2,4.1,1.7.1,0-.8-.4a132.6,132.6,0,0,1-16.5-9.1c-2.5-1.6-4.8-3.7-7.4-5.2,6.2,3.6,2,1.5.3.1l-4.2-3.6a138.17,138.17,0,0,1-13-13.5c-.7-.9-4.1-5.2-1.5-1.8,2.8,3.6-.8-1.2-1.3-1.9-1.9-2.7-3.6-5.4-5.3-8.2-1.6-2.6-3-5.2-4.4-7.9-.7-1.5-1.5-2.9-2.2-4.4a16.32,16.32,0,0,0-.9-1.9c-1.5-2.8,2,5.1.9,2.2a180.84,180.84,0,0,1-6.1-18.9c-.7-3-1.4-6.1-1.9-9.2l-.3-2.1c-.5-3.3.7,5.8.3,2.4-.2-1.7-.4-3.4-.5-5.1a143,143,0,0,1,0-20.7c.1-1.5.3-2.9.4-4.4.4-4.4-1,6,0,.3.5-3.3,1.2-6.6,2-9.9,1.6-6.5,3.9-12.6,6.1-18.9.9-2.6-1.3,3.1-1.2,2.8a20.62,20.62,0,0,0,1.2-2.6c.6-1.3,1.2-2.5,1.8-3.8,1.5-2.9,3-5.8,4.7-8.6s3.4-5.5,5.3-8.2c.8-1.1,1.8-2.2,2.5-3.4-.1.3-4,5-1.4,1.9l1.8-2.1a127.38,127.38,0,0,1,13-13.5c1.2-1.1,2.4-2.1,3.7-3.2.8-.7,5.4-4.3,1.8-1.5-3.4,2.7.5-.3,1.3-.9,1.5-1.1,3-2.1,4.6-3.1a132.6,132.6,0,0,1,16.5-9.1c.8-.4,1.8-.7,2.6-1.2.2-.1-5.4,2.1-2.8,1.2,1.5-.6,3.1-1.2,4.6-1.8,3.1-1.1,6.3-2.2,9.5-3,3-.8,6-1.6,9-2.2,1.7-.3,3.3-.7,5-.9l2.1-.3c3.1-.5-6.9.7-1.7.3a148.59,148.59,0,0,1,20-.7c3.2.1,6.4.4,9.5.7,4.5.4-5.9-.9-.3,0l5,.9a127.22,127.22,0,0,1,19.2,5.4c1.5.6,3.1,1.2,4.6,1.8,2.6.9-3.1-1.3-2.8-1.2a16.31,16.31,0,0,0,1.9.9c3.2,1.5,6.3,3,9.4,4.7,2.6,1.5,5.2,3,7.8,4.7,1.2.8,2.3,1.5,3.5,2.3.8.6,6,4.5,2.5,1.7s1.1.9,1.8,1.5c1.1.9,2.1,1.8,3.1,2.7,2.4,2.2,4.8,4.4,7,6.7s4.4,4.7,6.5,7.2c.9,1.1,1.7,2.2,2.6,3.2-.2-.2-3.8-5.2-1.5-1.8.5.8,1.1,1.5,1.6,2.3a134.07,134.07,0,0,1,10,16.7c.6,1.3,1.2,2.5,1.8,3.8.4.8.7,1.8,1.2,2.6.1.2-2.1-5.4-1.2-2.8,1.1,3.1,2.4,6.2,3.4,9.3a131.81,131.81,0,0,1,4.7,19.5c.1.7.2,1.4.3,2.2.1.3-.7-6-.4-3.2.1,1.7.4,3.4.5,5.1.2,3.5.3,6.9.3,10.4.1,13.3,11.7,26.1,25.5,25.5s25.6-11.2,25.5-25.5c-.2-31.9-9.7-64.3-28.4-90.3a163.31,163.31,0,0,0-76.9-58.7c-60.2-22.3-132.8-2.7-173.6,47a163.14,163.14,0,0,0-37,91c-2.6,32,5.6,65.4,22.2,92.7,15.9,26.3,40,48.7,68.1,61.4,31.8,14.4,66.1,18.6,100.4,11.7,61.5-12.3,113.1-65.2,122.7-127.4a192.39,192.39,0,0,0,2.5-27.3c.1-13.3-11.8-26.1-25.5-25.5C1706.93,360.85,1695.43,371.45,1695.33,385.75Z"/><line class="cls-1" x1="1212.91" y1="633.6" x2="1986.99" y2="120.55"/><line class="cls-2" x1="1188.91" y1="696.6" x2="2028.99" y2="15.54"/></g></g></svg>